<?xml version="1.0" standalone="no"?>
<!DOCTYPE svg PUBLIC "-//W3C//DTD SVG 20010904//EN"
 "http://www.w3.org/TR/2001/REC-SVG-20010904/DTD/svg10.dtd">
<svg version="1.0" xmlns="http://www.w3.org/2000/svg"
 width="512.000000pt" height="512.000000pt" viewBox="0 0 512.000000 512.000000"
 preserveAspectRatio="xMidYMid meet">
<metadata>
Created by potrace 1.16, written by Peter Selinger 2001-2019
</metadata>
<g transform="translate(0.000000,512.000000) scale(0.100000,-0.100000)"
fill="#000000" stroke="none">
<path d="M14 5098 c3 -12 7 -39 11 -58 5 -32 4 -33 -10 -15 -15 19 -15 19 -11
-7 3 -15 7 -32 10 -36 3 -5 23 -60 45 -123 l40 -114 -49 53 c-41 43 -49 48
-48 30 1 -13 19 -42 39 -65 50 -55 81 -117 77 -156 -3 -32 -3 -32 -62 43 -71
90 -68 70 4 -29 50 -68 51 -72 40 -106 -6 -19 -15 -33 -20 -30 -5 3 -23 28
-41 55 -18 28 -34 50 -35 50 -2 0 -2 -15 -1 -32 3 -38 15 -61 28 -53 5 3 6 -1
3 -9 -3 -9 -1 -16 4 -16 13 0 47 -90 56 -149 6 -41 5 -43 -10 -30 -10 8 -32
45 -51 84 l-33 69 0 -42 c0 -46 18 -87 84 -191 23 -36 48 -81 55 -99 21 -51 9
-180 -27 -292 -48 -146 -66 -152 -21 -7 42 138 48 205 25 262 -22 52 -26 42
-8 -17 13 -45 13 -62 3 -113 -19 -90 -24 -95 -54 -44 -18 32 -26 64 -30 119
-9 126 -22 130 -22 7 0 -96 4 -118 23 -154 29 -55 28 -94 -3 -131 -25 -29 -25
-33 -24 -198 0 -163 1 -168 16 -136 19 37 33 41 33 10 1 -13 7 -34 15 -48 8
-14 15 -41 15 -60 0 -23 3 -30 9 -22 16 26 34 -143 27 -255 -10 -144 -18 -162
-39 -87 -18 66 -26 229 -13 259 8 20 8 20 -6 1 -14 -18 -16 -16 -36 40 -11 32
-21 51 -21 41 -1 -10 8 -43 18 -75 24 -71 38 -227 19 -199 -37 54 -37 54 -38
26 0 -15 9 -46 20 -70 11 -24 20 -53 20 -63 0 -18 -1 -18 -20 -1 -20 18 -20
17 -20 -19 0 -20 7 -51 17 -69 9 -18 20 -47 24 -66 8 -37 -15 -353 -31 -416
-5 -23 -10 -193 -10 -398 l0 -359 35 -73 c89 -183 115 -317 115 -580 0 -153 5
-215 36 -424 24 -166 32 -247 25 -254 -7 -7 -23 -2 -49 17 -32 22 -43 25 -65
17 -33 -13 -73 16 -86 62 l-9 32 -1 -40 c-1 -35 3 -43 29 -59 21 -12 40 -15
60 -11 28 6 70 -8 70 -23 0 -4 -24 -6 -52 -4 -54 4 -108 -10 -108 -27 0 -5 19
-2 42 6 43 15 102 11 126 -9 14 -12 17 -88 3 -88 -5 0 -15 16 -21 35 -13 39
-31 58 -22 23 17 -67 72 -183 87 -186 12 -3 15 1 11 15 -14 46 -26 111 -26
143 0 20 -6 45 -14 56 -14 19 -13 21 15 21 16 0 29 -1 29 -2 0 -1 39 -185 45
-213 4 -17 12 -22 40 -22 29 0 33 3 28 17 -7 17 -6 17 20 0 40 -26 45 -20 9
11 -30 27 -42 65 -24 76 10 6 50 -34 77 -76 11 -18 26 -28 41 -28 13 0 24 1
24 3 0 2 -16 42 -35 90 -33 83 -34 89 -20 117 19 37 27 41 62 34 50 -10 100
-121 73 -164 -8 -13 -10 -13 -14 0 -28 80 -55 142 -55 129 -1 -8 8 -43 20 -76
16 -49 18 -69 10 -97 -9 -33 -8 -36 13 -36 17 0 31 18 69 93 26 51 47 99 47
105 0 7 5 12 10 12 13 0 13 -31 -1 -86 -13 -52 2 -124 25 -124 9 0 12 7 9 18
-2 11 3 45 12 76 16 55 18 57 48 54 31 -3 33 -6 51 -76 10 -39 22 -72 27 -72
4 0 -2 32 -13 71 -18 65 -18 73 -4 87 15 15 16 14 16 -12 0 -16 12 -55 26 -87
l27 -59 51 1 c48 1 49 1 19 10 -41 12 -43 16 -35 73 l7 48 35 -66 c19 -36 41
-66 48 -66 6 0 12 3 12 8 0 4 10 23 21 42 l21 34 14 -24 c7 -14 13 -33 14 -42
0 -23 5 -23 30 2 20 20 20 20 0 20 -30 0 -42 31 -22 55 16 19 16 19 -1 6 -24
-19 -29 -10 -16 30 12 35 36 69 50 69 14 0 39 -94 39 -147 0 -51 12 -69 24
-37 3 9 6 43 6 77 0 113 13 120 26 14 6 -54 14 -100 18 -104 14 -14 17 8 7 63
-17 88 -14 138 8 165 l20 24 23 -24 c13 -13 17 -21 11 -17 -7 4 -13 3 -13 -3
0 -5 -8 -12 -17 -15 -10 -2 -4 -4 12 -3 25 2 30 -2 33 -23 2 -14 -8 -58 -22
-98 -18 -54 -21 -72 -11 -72 7 0 21 22 30 49 9 27 30 70 46 95 27 40 33 44 51
35 16 -8 29 -7 58 6 52 24 75 14 30 -13 -101 -61 -192 -143 -177 -159 3 -2 13
7 22 21 9 14 51 49 94 77 42 29 95 70 119 91 33 31 48 38 65 32 12 -4 37 -11
56 -15 50 -11 24 8 -31 22 -44 12 -50 11 -77 -9 -17 -12 -37 -19 -45 -16 -26
10 -1 39 50 59 38 15 53 16 77 7 23 -9 36 -8 57 3 26 13 30 13 55 -7 15 -12
44 -23 64 -25 31 -3 33 -1 16 8 -29 17 -29 17 -15 34 11 13 16 13 46 -5 31
-20 35 -20 64 -5 26 13 37 14 66 5 49 -16 37 -34 -27 -41 -60 -7 -207 -44
-217 -55 -10 -9 84 4 138 21 73 22 94 25 110 15 12 -7 10 -14 -15 -40 -39 -41
-84 -68 -159 -97 l-61 -23 111 2 c102 3 114 5 152 31 50 33 55 33 47 5 -6 -18
-4 -20 11 -13 11 5 34 9 52 9 19 1 37 8 42 16 5 9 20 108 35 220 14 113 30
230 35 260 25 138 32 230 36 425 2 149 9 239 22 310 l19 100 -4 -200 c-2 -110
-8 -262 -14 -338 -16 -189 3 -427 45 -571 6 -23 9 -54 6 -71 -6 -28 -8 -24
-28 40 -13 39 -31 126 -41 195 l-19 125 -1 -90 c-1 -129 15 -232 43 -288 35
-66 13 -59 -33 12 l-38 60 -6 -80 c-4 -43 -13 -92 -22 -108 -22 -44 -19 -51
21 -51 21 0 33 4 29 10 -4 6 7 24 24 40 29 30 30 30 141 30 66 0 133 -6 163
-14 29 -8 81 -16 116 -18 55 -4 61 -3 45 9 -22 16 -137 53 -168 54 -12 0 -1 6
24 14 38 12 53 12 105 0 33 -7 74 -19 90 -26 34 -14 197 -29 362 -34 61 -2
121 -6 132 -10 12 -4 21 -2 21 4 0 16 -33 21 -149 24 -73 1 -106 6 -109 15 -2
7 6 12 22 12 14 0 26 5 26 10 0 16 -46 12 -60 -5 -15 -18 -115 -21 -125 -4 -4
6 -19 7 -36 4 -22 -5 -31 -2 -36 11 -7 19 24 47 44 40 7 -3 13 -1 13 4 0 19
30 9 46 -15 19 -29 24 -30 50 -10 14 11 15 14 3 9 -21 -7 -35 14 -20 29 7 7
16 6 30 -7 13 -12 27 -15 41 -11 13 4 33 2 46 -5 19 -11 27 -10 50 5 29 19 43
10 44 -30 1 -19 1 -19 14 -3 16 22 55 23 62 3 9 -22 20 -19 53 17 28 30 33 32
60 22 16 -7 40 -9 53 -7 17 3 35 -4 55 -21 36 -30 45 -31 77 -11 20 13 27 13
56 1 l33 -14 -26 -16 c-22 -15 -33 -16 -84 -5 -122 24 -111 27 -188 -50 -38
-39 -73 -71 -77 -71 -5 0 -8 8 -8 18 -1 10 -6 5 -14 -14 -12 -26 -33 -44 -52
-44 -3 0 -3 10 1 23 l6 22 -17 -23 c-21 -28 -44 -28 -45 1 0 21 -1 21 -9 2 -5
-11 -9 -23 -9 -27 -1 -12 107 -9 114 3 4 6 14 8 23 4 9 -3 14 -3 10 0 -3 3 32
41 77 85 l82 79 48 -15 c27 -8 61 -14 77 -14 15 0 28 -2 28 -5 0 -6 -50 -107
-56 -114 -3 -3 -25 15 -51 40 -51 48 -41 27 16 -33 19 -21 44 -38 56 -38 13 0
16 3 8 8 -20 13 37 123 83 160 66 55 74 47 73 -63 -1 -53 1 -99 5 -102 3 -3 6
39 6 95 0 93 2 102 19 102 10 0 29 -8 42 -19 20 -16 24 -31 29 -102 5 -74 7
-79 14 -47 7 34 -1 98 -19 140 -9 22 34 34 65 18 12 -6 24 -9 27 -7 3 3 -9 13
-26 21 -21 11 -37 13 -54 7 -20 -8 -26 -5 -42 25 -21 40 -51 45 -64 10 -14
-36 -62 -48 -101 -24 -15 10 -27 10 -55 -1 -34 -12 -39 -11 -73 13 -21 14 -51
25 -67 25 -17 0 -42 2 -56 6 -21 6 -32 1 -58 -27 -24 -26 -31 -29 -31 -15 0
15 -7 18 -34 16 -21 -2 -39 3 -50 14 -28 27 -63 31 -106 12 -24 -11 -46 -15
-57 -10 -28 12 -142 15 -148 5 -13 -22 -41 -9 -50 22 -13 42 -36 56 -73 42
-22 -9 -33 -8 -47 2 -25 19 -65 18 -93 -2 -13 -9 -31 -13 -43 -9 -18 6 -19 12
-13 53 29 203 155 520 279 702 21 30 66 114 100 185 62 128 64 131 182 246
147 142 200 172 307 172 69 0 76 -2 225 -77 158 -79 233 -102 286 -88 26 8 22
9 -34 15 -47 4 -85 16 -139 43 -85 43 -84 45 43 64 44 6 132 30 195 52 110 39
220 59 220 41 0 -4 -43 -30 -95 -57 -52 -28 -93 -52 -90 -54 2 -2 44 14 93 37
102 47 120 49 174 19 61 -35 73 -64 112 -284 44 -243 60 -397 52 -484 -7 -80
-116 -469 -157 -558 -16 -35 -29 -80 -29 -98 0 -41 -9 -42 -49 -8 -17 14 -38
24 -48 22 -10 -1 -24 1 -32 6 -11 7 -13 4 -7 -17 5 -22 2 -26 -25 -32 -17 -4
-31 -5 -32 -3 -1 1 -9 17 -17 33 -12 22 -24 31 -48 33 -31 3 -32 2 -32 -33 0
-34 -1 -35 -16 -20 -13 13 -19 14 -25 4 -5 -9 1 -17 20 -25 33 -14 46 -30 31
-39 -5 -3 -10 -12 -10 -18 0 -7 4 -6 10 3 12 19 12 18 50 -72 24 -59 37 -78
51 -78 13 0 19 7 19 23 0 12 4 28 9 36 7 12 13 7 27 -22 10 -20 22 -37 27 -37
5 0 -3 21 -18 47 -21 39 -25 55 -19 88 6 34 8 37 14 19 5 -12 29 -42 55 -68
34 -35 44 -52 40 -67 -4 -11 -2 -19 4 -19 6 0 11 12 11 26 0 18 -18 46 -60 91
-88 94 -80 111 19 40 l60 -42 0 -57 c1 -46 4 -58 17 -58 21 0 63 95 71 159 11
92 25 56 21 -54 l-3 -105 58 0 c39 0 57 4 57 13 0 6 13 39 29 72 23 49 30 56
36 41 5 -10 4 -42 -2 -72 l-10 -54 33 0 c30 0 33 3 44 47 6 27 22 71 36 98
l24 50 -5 -45 c-3 -25 -8 -69 -11 -97 -6 -48 -5 -53 13 -53 17 0 22 11 31 66
16 95 49 158 86 162 15 2 39 1 52 -2 l24 -6 -39 -53 c-22 -28 -51 -78 -65
-110 l-25 -57 42 0 c26 0 58 10 86 25 52 30 60 31 36 5 -10 -11 -15 -23 -11
-27 4 -4 15 2 24 15 10 12 35 27 56 33 21 6 36 12 34 15 -2 2 -19 0 -36 -5
-37 -11 -38 -8 -14 27 34 49 35 57 2 19 -18 -21 -58 -51 -90 -67 l-59 -30 10
29 c6 16 25 53 42 82 l32 54 78 0 c89 0 103 10 22 17 -30 3 -58 8 -62 11 -9 9
54 75 90 94 35 18 30 27 -7 13 -21 -8 -27 -7 -24 2 3 7 17 14 31 16 l27 3 -1
162 0 162 -23 -110 c-13 -60 -34 -136 -46 -169 l-22 -58 -42 5 c-23 3 -58 2
-79 -2 -34 -8 -37 -7 -37 13 1 106 23 400 36 476 38 225 124 506 184 602 l30
49 0 203 0 203 -52 72 c-96 132 -108 155 -129 246 -12 50 -27 109 -34 133 -12
42 -12 43 7 26 57 -52 167 -221 196 -299 8 -24 10 5 11 135 0 103 -4 157 -9
144 -17 -44 -28 -34 -40 36 l-12 70 31 37 c21 25 31 47 30 68 -2 27 -2 27 -6
5 -3 -13 -19 -40 -35 -59 -29 -33 -30 -37 -24 -103 8 -74 -1 -87 -30 -42 -10
15 -19 53 -22 97 l-4 72 61 109 c66 119 82 163 27 76 l-35 -55 -3 80 -4 80 -3
-90 c-3 -90 -3 -90 -16 -50 l-14 40 6 -56 c3 -36 1 -64 -7 -80 -13 -23 -14
-23 -31 26 -10 28 -18 75 -18 105 0 54 1 56 64 123 l63 68 16 -23 c15 -21 16
-17 16 72 -1 90 -2 97 -31 135 l-30 40 30 9 c17 5 31 13 31 17 0 12 -7 11 -40
-6 -27 -14 -30 -14 -44 7 -15 21 -14 23 9 36 14 7 25 18 25 24 0 6 -8 4 -18
-5 -24 -22 -42 -22 -42 1 0 21 73 154 94 171 14 12 16 48 15 265 -1 208 -3
244 -12 209 -17 -58 -24 -61 -37 -14 -12 45 -7 74 27 146 12 28 23 61 22 75 0
20 -6 14 -28 -30 l-29 -55 -11 41 c-6 23 -14 62 -17 88 -7 47 -6 48 42 91 27
24 44 44 37 45 -6 0 -14 -4 -18 -10 -3 -5 -19 -19 -36 -31 l-30 -21 14 33 c8
19 28 56 46 83 42 67 39 79 -5 19 -71 -93 -72 -75 -2 40 22 37 38 70 36 73 -3
2 -24 -26 -47 -63 l-43 -68 7 45 c3 25 8 65 11 90 l4 45 -13 -48 c-8 -26 -17
-50 -20 -53 -3 -3 -11 20 -18 50 -16 75 -25 63 -10 -15 12 -57 11 -65 -15
-137 l-28 -76 -18 40 c-30 68 -41 139 -29 195 6 28 9 55 6 59 -8 13 64 47 122
60 99 21 93 17 93 56 0 34 -1 36 -27 29 l-28 -7 28 29 c15 16 27 37 27 46 0
13 -8 9 -29 -15 -16 -18 -44 -42 -62 -52 l-32 -19 7 24 c11 37 45 234 41 238
-5 4 -11 -21 -29 -120 -20 -103 -38 -145 -75 -164 l-31 -16 0 106 c0 66 5 118
13 138 26 61 121 127 185 127 6 0 12 4 12 10 0 10 -54 3 -82 -12 -12 -5 -18
-5 -18 2 0 5 23 24 51 41 57 36 61 51 4 18 l-38 -22 13 24 c7 13 26 43 41 66
32 46 36 63 15 63 -8 0 -26 -20 -40 -45 -15 -25 -29 -45 -33 -45 -3 0 -2 21 2
48 11 75 -12 39 -30 -48 -9 -44 -24 -83 -35 -95 -20 -19 -20 -19 -20 33 0 29
7 67 16 85 l15 32 -20 -25 c-22 -28 -31 -63 -31 -125 0 -40 -6 -49 -70 -116
-68 -71 -70 -72 -70 -44 0 45 27 191 41 217 6 13 37 47 68 77 52 49 47 53 -8
6 -26 -22 -26 -22 -4 33 3 6 -1 12 -8 12 -8 0 -25 -25 -39 -56 -34 -77 -44
-78 -35 -5 7 61 7 61 -18 61 -23 0 -27 -5 -33 -47 -7 -46 -38 -133 -48 -133
-2 0 -10 41 -17 90 l-12 90 -32 0 -33 0 13 -52 c24 -97 28 -179 10 -233 -32
-94 -38 -78 -32 80 5 145 2 205 -12 205 -3 0 -7 -55 -7 -123 -1 -109 -5 -131
-33 -211 -39 -112 -40 -137 -1 -36 29 75 29 75 29 33 1 -23 -6 -68 -14 -101
-17 -67 -12 -91 32 -149 l27 -35 17 74 c20 83 85 253 124 325 14 26 24 40 21
30 -11 -34 -26 -198 -20 -208 3 -5 -1 -40 -10 -77 -8 -37 -18 -100 -22 -139
-3 -40 -13 -81 -20 -90 -13 -17 -19 -13 -79 49 -72 75 -106 134 -129 225 -21
81 -20 145 4 245 11 46 20 107 20 136 0 51 0 52 -30 52 -26 0 -30 -4 -30 -27
l-1 -28 -15 28 c-10 18 -23 27 -39 27 -14 0 -25 -2 -25 -4 0 -2 11 -28 25 -58
24 -52 32 -121 17 -146 -6 -9 -20 -2 -53 25 l-44 37 48 -51 c43 -45 48 -54 45
-89 l-3 -38 -59 97 c-32 54 -61 95 -64 93 -2 -3 21 -49 51 -103 78 -136 83
-154 62 -209 -9 -24 -20 -44 -25 -44 -19 0 -75 87 -111 170 -43 100 -44 123
-10 228 23 68 26 92 13 92 -5 0 -14 -24 -21 -52 -8 -29 -19 -64 -27 -78 l-13
-25 -16 39 c-16 37 -16 39 10 77 14 21 21 39 15 39 -5 0 -17 -15 -27 -32 l-17
-33 -9 33 c-8 25 -15 32 -36 32 -25 0 -26 -2 -23 -46 l4 -45 -39 20 c-22 11
-51 31 -64 45 -29 31 -39 33 -32 7 2 -10 34 -35 69 -56 35 -21 64 -41 64 -46
0 -38 -24 -158 -31 -153 -17 10 -42 69 -65 149 -12 44 -23 71 -23 59 -1 -11 6
-43 14 -70 8 -27 15 -53 15 -59 0 -15 -59 56 -75 90 -12 26 -14 27 -15 8 0
-12 23 -49 51 -84 58 -69 51 -71 -56 -15 l-60 31 0 83 c1 45 -3 82 -7 82 -11
0 -21 -87 -14 -123 l5 -32 -40 45 c-22 24 -43 57 -46 72 -5 27 -20 45 -29 36
-2 -3 1 -19 7 -37 9 -25 9 -46 0 -87 -7 -30 -16 -54 -20 -54 -4 0 -16 41 -26
90 -10 50 -23 90 -27 90 -5 0 -6 -10 -3 -22 12 -50 45 -224 45 -235 0 -45 -73
74 -93 152 -3 11 -11 39 -17 63 -12 46 -35 60 -24 15 l7 -28 -32 29 c-17 17
-31 25 -31 19 0 -6 15 -24 33 -39 23 -19 40 -49 59 -103 15 -41 25 -77 23 -79
-2 -2 -22 6 -45 18 -48 24 -79 80 -81 145 -1 37 -2 38 -8 10 l-6 -29 -19 42
c-11 23 -21 41 -22 39 -2 -2 12 -39 31 -82 19 -44 32 -81 30 -84 -10 -9 -89
56 -100 82 -6 16 -16 29 -21 30 -5 1 -9 14 -9 30 0 15 -3 27 -7 27 -5 0 -8 -9
-8 -20 0 -18 -20 -30 -20 -12 0 4 -4 13 -9 20 -6 11 -20 3 -56 -30 l-47 -45
16 -57 17 -58 -25 -31 c-14 -18 -41 -50 -60 -72 l-35 -40 -1 32 c0 17 -5 53
-11 80 -10 45 -9 55 24 141 23 62 31 92 22 92 -7 0 -22 -28 -35 -62 -27 -76
-43 -104 -71 -119 -19 -10 -20 -9 -14 13 6 23 6 22 -10 -2 -18 -27 -76 -72
-83 -65 -3 2 18 44 45 92 63 109 81 164 23 68 -58 -96 -60 -96 -44 -19 8 38
13 75 11 84 -1 8 -13 -32 -25 -90 -13 -57 -25 -106 -27 -109 -9 -8 -5 133 4
173 5 21 6 35 1 30 -14 -15 -28 -126 -24 -194 l3 -65 -15 60 c-31 125 -57 205
-68 205 -6 -1 -22 -24 -36 -53 l-24 -52 -8 48 c-10 69 -21 74 -13 6 6 -49 3
-63 -19 -107 -15 -29 -29 -52 -32 -52 -13 0 -45 94 -50 149 -4 34 -11 61 -17
61 -16 0 -1 -129 21 -186 24 -59 37 -153 27 -191 l-6 -27 -23 41 c-13 22 -41
56 -62 76 -37 33 -39 39 -45 109 l-6 73 -1 -79 -2 -79 40 -37 c77 -71 111
-192 73 -263 l-17 -32 -7 43 c-5 23 -25 81 -45 130 -20 48 -49 121 -65 162
-15 41 -28 71 -28 65 -1 -28 25 -112 65 -212 41 -101 45 -120 47 -205 1 -51
-2 -115 -7 -143 l-10 -50 -7 40 c-6 39 -6 39 -8 -15 -2 -30 -6 -75 -10 -100
-7 -42 -8 -43 -18 -21 -5 14 -8 59 -7 100 l3 76 -9 -64 c-5 -34 -11 -68 -13
-74 -7 -21 -40 136 -47 223 l-7 85 -1 -80 c-1 -69 7 -133 32 -235 5 -18 -3
-41 -26 -80 l-32 -55 -18 60 c-11 33 -24 97 -30 142 -9 70 -8 92 6 141 22 81
19 100 -4 27 -30 -92 -25 -178 20 -335 9 -30 10 -59 5 -85 l-9 -40 -7 35 c-8
35 -8 35 -6 -7 2 -40 2 -41 -16 -25 -15 13 -18 26 -14 62 l5 45 -12 -38 c-10
-34 -14 -37 -25 -23 -7 8 -18 14 -24 13 -19 -4 -37 50 -39 117 -2 59 1 69 30
110 44 61 67 116 87 211 19 86 55 177 83 209 9 11 11 16 5 12 -9 -5 -13 -1
-14 11 0 10 -10 -7 -22 -37 -21 -53 -22 -54 -25 -23 -2 17 1 70 6 117 8 68 15
91 35 115 31 37 91 141 85 147 -3 2 -26 -30 -52 -72 -27 -41 -50 -73 -53 -71
-2 3 5 44 16 92 12 48 21 90 20 93 -1 17 -22 -50 -38 -124 -14 -62 -28 -93
-57 -133 l-39 -52 -22 48 c-26 58 -29 54 -7 -11 14 -41 15 -59 6 -115 -6 -36
-14 -91 -18 -121 -3 -30 -15 -75 -25 -100 l-18 -45 -2 55 c-1 30 -4 42 -6 25
-2 -16 -6 -50 -9 -75 l-6 -45 -13 41 c-7 23 -29 69 -49 102 -20 33 -36 65 -36
72 0 7 15 38 34 69 19 31 46 85 60 121 35 87 69 136 127 188 27 24 58 57 71
75 l22 32 -25 -20 c-13 -11 -43 -37 -66 -57 -24 -21 -47 -38 -53 -38 -5 0 -1
23 10 50 23 58 23 60 12 60 -5 0 -15 -12 -22 -27 l-13 -28 -7 30 c-4 22 -8 9
-14 -52 -4 -46 -10 -85 -14 -87 -4 -2 -6 35 -4 82 2 57 0 82 -6 73 -6 -7 -8
-32 -6 -55 3 -31 2 -35 -4 -16 -7 22 -9 19 -15 -24 -4 -27 -7 -65 -7 -85 0
-20 -4 -42 -9 -49 -10 -17 -34 96 -27 130 13 62 16 112 6 98 -5 -8 -10 -27
-10 -42 0 -40 -14 -35 -35 12 -10 22 -22 40 -28 40 -5 0 -7 -6 -4 -12 19 -51
77 -241 77 -253 0 -21 -27 -73 -55 -106 l-22 -27 -18 81 c-16 69 -17 90 -7
154 12 73 2 163 -18 163 -4 0 -3 -19 3 -41 7 -31 7 -63 -2 -118 -11 -65 -10
-86 3 -136 8 -33 14 -60 13 -61 -1 -2 -22 30 -47 69 -40 65 -45 80 -51 152
l-6 80 -1 -64 c-2 -58 -3 -62 -19 -50 -36 30 -73 93 -73 124 0 20 -6 35 -15
39 -39 14 -7 -80 53 -158 27 -34 37 -54 26 -49 -10 6 -36 18 -58 28 -53 25
-96 87 -97 139 0 31 -2 36 -8 21 -5 -11 -3 -38 3 -60 8 -30 8 -62 0 -125 -14
-102 -17 -91 -18 60 -1 73 -6 122 -14 135 -12 19 -12 19 -7 -5 13 -67 9 -238
-5 -224 -5 5 -16 38 -25 74 -22 93 -46 172 -50 168 -3 -2 2 -25 10 -52 8 -26
15 -64 17 -84 1 -20 8 -53 15 -72 14 -34 12 -33 -38 20 -57 61 -48 43 20 -38
24 -30 50 -70 57 -90 14 -39 19 -172 7 -172 -5 0 -22 14 -40 29 -22 20 -37 48
-49 90 -9 34 -20 64 -24 66 -4 3 -1 -18 7 -45 22 -75 15 -87 -28 -51 -22 19
-45 53 -63 96 -31 71 -46 85 -19 17 19 -49 14 -59 -19 -41 -14 8 -57 13 -112
12 l-89 -1 68 36 c38 20 91 58 119 84 l51 49 -70 -52 c-88 -66 -200 -118 -268
-126 l-52 -6 27 22 c15 12 52 30 83 41 77 26 148 67 182 103 26 28 25 27 -25
-8 -45 -32 -172 -85 -204 -85 -5 0 12 25 38 56 39 45 65 64 143 101 102 49
175 93 167 101 -3 2 -27 -9 -53 -25 -44 -26 -186 -93 -199 -93 -16 0 12 22 49
38 54 25 126 82 103 82 -10 0 -32 -11 -49 -24 -50 -37 -81 -51 -75 -35 34 89
12 76 -66 -41 -37 -56 -71 -98 -76 -95 -20 13 -10 66 18 93 36 35 62 73 62 91
0 8 -13 -5 -28 -30 -16 -24 -36 -50 -46 -58 -16 -13 -17 -12 -10 15 3 16 13
40 21 52 8 13 12 26 10 29 -3 3 -12 -8 -21 -24 l-15 -28 -2 30 c-1 19 -4 10
-9 -25 -7 -46 -14 -59 -41 -80 -18 -14 -44 -36 -58 -48 l-26 -24 30 21 c17 11
43 31 59 43 27 21 28 21 18 1 -11 -21 -60 -61 -100 -82 -21 -11 -22 -11 -16
26 3 24 21 57 47 88 l40 50 -41 -40 c-32 -29 -42 -35 -42 -22 0 31 28 74 62
96 33 21 23 30 -13 11 -13 -7 -19 -7 -19 0 0 5 -6 10 -13 10 -7 0 -21 -22 -31
-50 -21 -57 -31 -57 -41 1 -6 36 -27 60 -41 46 -3 -3 2 -31 12 -62 11 -41 15
-83 12 -144 -7 -141 -62 -220 -206 -292 -37 -18 -84 -44 -104 -56 -21 -13 -38
-19 -38 -14 0 6 4 12 10 16 5 3 7 12 4 19 -8 22 20 66 76 121 45 44 121 141
145 185 12 22 -4 4 -62 -70 -64 -81 -142 -157 -123 -120 7 14 30 50 50 80 20
30 51 82 69 115 27 53 39 64 96 94 36 19 63 37 60 39 -2 2 -29 -10 -59 -28
-31 -17 -56 -29 -56 -27 0 16 33 93 50 118 17 22 18 29 7 29 -8 0 -23 -12 -32
-27 l-18 -26 -14 26 c-19 37 -24 34 -17 -10 4 -29 0 -48 -19 -81 l-24 -43 -6
38 c-4 21 -7 57 -7 81 0 23 -4 42 -10 42 -13 0 -13 -23 2 -130 11 -85 11 -87
-16 -136 -15 -27 -38 -62 -52 -79 l-24 -30 6 61 c5 42 1 86 -11 139 -14 65
-15 84 -5 122 14 49 19 49 30 1 8 -33 8 -33 9 10 1 38 -1 42 -24 42 -15 0 -25
-6 -25 -14 0 -8 -5 -27 -10 -42 l-11 -27 -26 24 c-25 22 -24 21 5 -21 17 -25
37 -70 43 -100 12 -56 8 -219 -7 -254 -7 -19 -8 -19 -15 0 -4 10 -8 43 -8 72
-1 29 -8 83 -16 120 -8 37 -16 78 -18 92 -4 22 -4 22 -6 -5 0 -16 6 -68 14
-115 20 -115 19 -123 -13 -65 -20 38 -26 65 -27 112 0 34 -3 55 -7 45 -14 -35
-7 -93 17 -159 17 -43 25 -82 23 -108 l-4 -40 -49 100 c-61 126 -68 179 -33
257 14 30 40 71 58 91 l32 37 -39 0 c-38 0 -42 -3 -75 -57 l-36 -57 -12 57
c-12 58 -30 77 -30 32 0 -14 -4 -25 -8 -25 -5 0 -19 11 -32 25 -13 14 -35 25
-48 25 -24 0 -23 -2 16 -44 22 -24 49 -61 60 -83 24 -48 34 -156 18 -202 l-12
-35 -18 62 c-9 35 -28 86 -41 115 -14 29 -32 82 -42 120 -16 62 -19 67 -45 67
l-28 0 27 -67 c15 -38 28 -93 30 -123 2 -54 2 -55 -12 -25 -8 17 -14 36 -15
44 0 8 -3 12 -6 8 -3 -3 1 -30 10 -60 21 -71 20 -94 -5 -137 l-20 -35 5 40 c5
43 2 33 -23 -65 -7 -25 -18 -65 -25 -90 l-13 -45 -8 48 c-4 27 -3 115 3 195 6
84 7 173 2 207 -5 33 -9 70 -9 83 -1 15 -7 22 -21 22 -11 0 -20 -5 -20 -12 0
-9 -3 -9 -12 0 -24 24 -28 11 -8 -28 16 -32 20 -56 18 -108 l-3 -67 -48 62
c-31 41 -50 77 -55 105 -4 23 -13 43 -20 46 -9 3 -11 -3 -8 -20z m3336 -50 c0
-14 -16 -68 -36 -120 -19 -51 -48 -138 -64 -193 -36 -124 -65 -213 -70 -219
-3 -2 -6 49 -7 113 l-3 118 38 44 c20 24 50 61 65 81 27 36 27 38 12 80 -22
65 -19 88 18 119 35 29 47 24 47 -23z m-450 -97 c20 -100 24 -208 11 -266 l-7
-30 -17 32 c-25 47 -38 49 -16 2 25 -50 20 -67 -42 -135 -54 -60 -56 -60 -33
-6 30 67 53 161 38 155 -8 -3 -16 10 -22 39 -6 24 -10 33 -11 20 -1 -13 4 -42
10 -66 10 -39 7 -51 -26 -136 -36 -91 -74 -163 -62 -115 3 11 8 106 12 210 6
173 9 195 31 245 34 75 97 171 107 161 4 -4 16 -53 27 -110z m1250 94 c0 -14
-4 -25 -9 -25 -4 0 -6 11 -3 25 2 14 6 25 8 25 2 0 4 -11 4 -25z m-705 -88
c16 -16 42 -35 58 -43 15 -8 27 -21 27 -30 0 -22 -46 -105 -81 -144 l-30 -35
6 40 c6 39 5 39 -12 -10 -14 -39 -31 -60 -78 -97 -32 -27 -63 -48 -67 -48 -5
0 -2 14 7 30 9 17 13 30 10 30 -2 0 -13 -17 -24 -38 -11 -21 -26 -44 -35 -51
-13 -11 -12 -3 3 46 11 32 29 90 40 130 16 53 28 77 49 91 15 11 36 35 46 54
17 30 15 29 -19 -10 -20 -24 -39 -41 -42 -39 -3 4 25 91 63 197 4 11 11 8 27
-15 12 -16 35 -43 52 -58z m-2581 24 c-9 -23 -18 -40 -20 -38 -2 2 4 22 13 45
9 23 18 40 20 38 2 -2 -4 -22 -13 -45z m2996 -89 c0 -79 45 -257 78 -309 30
-48 -42 -7 -87 48 -75 93 -105 181 -99 284 7 102 13 107 65 52 31 -33 43 -54
43 -75z m325 17 c17 -46 43 -109 57 -139 15 -30 25 -57 22 -59 -4 -5 -104 71
-129 99 -15 17 -16 31 -10 105 5 58 11 85 18 82 7 -2 26 -41 42 -88z m-2251
-3 c61 -29 91 -61 141 -151 l36 -64 -30 -93 c-17 -51 -30 -86 -31 -78 -1 21
-109 318 -109 302 -1 -8 24 -87 54 -177 64 -189 72 -243 20 -145 -19 36 -34
61 -35 57 0 -11 50 -109 65 -127 7 -8 20 -41 29 -72 15 -54 15 -59 -3 -104
l-18 -48 -13 40 c-20 62 -67 134 -131 199 -32 33 -65 76 -73 95 -17 41 -23
239 -11 367 l8 81 24 -28 c13 -16 48 -40 77 -54z m-1830 12 c45 -56 57 -96 49
-156 l-6 -45 -29 63 c-24 55 -68 181 -68 198 0 7 5 2 54 -60z m1116 14 c0 -37
-2 -39 -70 -72 -38 -18 -72 -31 -75 -28 -11 11 7 34 48 60 23 15 53 39 67 53
13 14 25 25 27 25 2 0 3 -17 3 -38z m1842 -294 c-44 -79 -85 -152 -91 -163 -8
-16 -11 -4 -12 60 -2 80 -2 80 -9 25 -4 -30 -6 -68 -4 -85 3 -25 1 -24 -10 10
-14 41 -13 69 6 210 16 119 26 137 110 192 l73 49 9 -78 9 -77 -81 -143z
m-2684 192 c11 -36 23 -85 26 -110 l7 -45 -40 70 c-35 60 -41 78 -41 130 0 53
1 57 14 40 7 -11 23 -49 34 -85z m3573 44 c96 -48 149 -82 149 -96 0 -6 -12
-1 -27 13 -15 13 -21 16 -14 6 23 -29 6 -30 -50 -1 -31 15 -48 20 -41 12 7 -9
39 -27 71 -42 l58 -26 6 -80 c4 -44 13 -93 22 -109 8 -17 15 -32 15 -35 0 -2
-37 5 -82 17 l-83 22 -31 62 c-32 66 -88 293 -71 293 3 0 38 -16 78 -36z
m-336 -20 c56 -32 99 -81 132 -149 l26 -53 -22 -36 c-23 -37 -41 -47 -41 -23
0 44 -108 203 -125 185 -3 -3 1 -34 10 -69 18 -77 18 -144 2 -220 -10 -49 -21
-66 -86 -135 l-74 -79 5 68 c4 51 16 88 47 153 22 47 37 83 33 80 -7 -4 -70
-128 -90 -176 -9 -23 -11 -20 -17 28 -6 38 -11 50 -17 40 -9 -12 -5 60 7 122
3 14 -2 7 -9 -15 -19 -53 -19 -111 -1 -182 26 -99 21 -133 -29 -199 -49 -67
-88 -104 -163 -158 -72 -51 -70 -28 6 77 32 45 66 98 76 117 9 19 34 52 54 74
21 23 28 34 16 28 -11 -6 -29 -20 -40 -32 -11 -12 -40 -36 -63 -52 -42 -29
-43 -29 -28 -6 9 14 13 28 9 33 -5 4 -3 5 3 2 6 -3 31 15 55 40 l44 47 -44
-37 c-25 -20 -45 -36 -46 -34 -2 1 1 27 6 57 4 30 7 75 7 100 0 31 -4 17 -14
-48 -15 -107 -40 -169 -89 -223 -31 -34 -36 -37 -45 -21 -13 19 -12 14 11 -63
12 -39 11 -43 -25 -93 -21 -29 -40 -52 -43 -52 -6 0 3 65 13 97 3 10 -1 7 -10
-7 -8 -14 -18 -46 -21 -72 -7 -47 -26 -75 -43 -64 -17 10 5 87 51 179 67 134
124 267 132 307 5 25 -4 13 -33 -45 -36 -73 -40 -78 -47 -54 -15 58 63 161
218 285 124 100 192 179 223 259 9 25 21 45 26 45 5 0 29 -12 53 -26z m-2420
-4 c-18 -19 -115 -80 -129 -80 -3 0 -6 6 -6 13 0 6 30 28 68 48 79 43 92 46
67 19z m1239 -37 l-8 -48 -5 40 c-3 22 -1 45 4 51 16 19 18 8 9 -43z m-19 -58
c6 -64 6 -68 -10 -55 -9 7 -23 25 -30 40 -12 24 -12 30 6 59 11 19 22 32 23
30 2 -2 7 -35 11 -74z m-1940 19 c21 -51 19 -58 -16 -71 -25 -10 -30 -9 -26 1
3 8 9 34 12 60 4 25 9 46 11 46 2 0 11 -16 19 -36z m-119 -50 l37 -66 -28
-104 c-15 -57 -31 -104 -36 -104 -4 0 -15 21 -23 48 l-15 47 6 -45 c3 -25 10
-53 15 -63 11 -21 1 -60 -13 -51 -5 3 -21 26 -34 52 -31 56 -22 16 10 -48 19
-39 21 -50 11 -80 -14 -44 -43 -86 -53 -76 -4 4 -10 28 -15 54 -6 42 -7 40 -3
-16 4 -76 -10 -79 -40 -8 -19 46 -19 49 -1 94 18 48 36 117 55 210 9 43 80
222 88 222 1 0 19 -30 39 -66z m1159 55 c26 -6 63 -27 87 -49 24 -20 61 -48
83 -63 67 -43 105 -80 115 -114 5 -18 5 -33 0 -33 -4 0 -31 18 -60 41 -28 22
-47 32 -42 22 12 -22 55 -62 99 -91 29 -21 32 -27 35 -90 2 -37 3 -69 2 -70
-2 -2 -12 16 -25 40 -26 52 -67 104 -174 223 -45 50 -85 97 -88 105 -3 8 -6
-13 -6 -47 l-1 -62 -50 52 c-64 67 -65 49 -1 -25 47 -55 52 -67 77 -186 4 -18
-13 -6 -67 49 l-72 73 5 105 c3 58 3 93 -1 77 l-6 -29 -28 36 -27 36 27 4 c52
8 74 7 118 -4z m-131 -55 c36 -54 37 -59 31 -115 -4 -33 -11 -59 -15 -59 -5 0
-13 19 -18 43 -6 26 -10 33 -11 18 -1 -24 -1 -24 -23 5 -12 16 -26 34 -31 39
-15 15 3 -15 30 -51 31 -42 29 -53 -4 -23 -65 57 -74 59 -21 4 31 -33 59 -72
62 -87 3 -16 8 -39 11 -53 3 -14 2 -25 -3 -25 -15 0 -84 75 -118 127 -43 68
-54 69 -17 2 29 -54 81 -114 122 -141 13 -9 22 -21 20 -27 -7 -19 -121 43
-183 100 -63 57 -65 52 -9 -19 34 -41 34 -44 19 -67 -9 -14 -21 -25 -26 -25
-11 0 -1 32 14 42 7 5 5 8 -5 8 -10 0 -20 -11 -23 -26 -9 -33 -24 -27 -63 25
-37 48 -43 45 -12 -5 18 -30 19 -35 5 -40 -9 -4 -29 -1 -45 6 -28 11 -30 16
-36 88 -9 104 -15 114 -12 19 1 -42 0 -77 -2 -77 -2 0 -27 16 -55 36 l-51 35
36 -34 c19 -19 43 -38 52 -43 9 -6 21 -31 26 -57 8 -46 8 -48 -19 -62 -32 -17
-209 -50 -218 -41 -7 8 14 78 49 158 37 85 37 98 -1 29 -17 -30 -32 -56 -34
-59 -2 -2 -9 20 -15 50 -10 52 -10 52 -4 -19 3 -52 0 -86 -12 -122 -16 -49
-17 -50 -71 -61 -30 -6 -76 -26 -103 -44 l-49 -33 18 31 c10 17 30 68 44 113
32 95 72 161 130 207 47 39 394 256 410 257 6 0 47 6 91 14 44 7 85 13 91 14
6 0 28 -24 48 -55z m2884 -72 c69 -55 95 -111 100 -215 4 -88 4 -89 -16 -78
-32 17 -72 81 -150 237 -96 194 -97 201 -30 139 30 -27 74 -65 96 -83z m628
13 l-6 -115 -39 -35 c-58 -53 -75 -95 -68 -174 3 -36 15 -93 26 -125 30 -85
19 -80 -18 9 -24 59 -31 89 -31 142 0 101 17 195 47 274 25 62 74 139 90 139
3 0 3 -52 -1 -115z m-1249 38 c14 -24 34 -66 45 -95 l19 -51 -23 -32 c-13 -18
-37 -44 -54 -59 l-32 -26 9 37 c13 59 10 185 -6 239 -8 27 -15 51 -15 53 0 12
35 -29 57 -66z m-1253 -9 l28 -45 -22 -82 c-31 -114 -56 -177 -84 -212 l-24
-30 -7 38 c-6 29 -1 55 19 110 20 56 45 198 46 260 0 18 17 3 44 -39z m765
-84 c1 -73 -14 -135 -47 -190 l-26 -45 -8 60 c-14 106 -15 93 -10 -66 5 -155
5 -156 -22 -205 -63 -115 -62 -115 -69 60 -5 123 -3 165 8 197 14 40 94 194
139 269 l21 35 6 -30 c4 -16 7 -55 8 -85z m1011 8 c28 -57 50 -109 50 -115 0
-40 -76 26 -89 75 -10 42 -20 142 -14 142 2 0 26 -46 53 -102z m-3639 20 c19
-50 24 -82 24 -153 -1 -115 -35 -219 -142 -435 -71 -142 -84 -162 -156 -232
-73 -72 -107 -96 -94 -65 60 136 93 239 42 132 -13 -27 -24 -47 -24 -43 -1 5
32 115 106 350 16 49 31 88 34 88 13 0 29 -91 29 -163 0 -76 -18 -152 -52
-222 l-19 -40 25 29 c13 16 35 55 48 85 20 50 23 73 23 216 1 104 6 170 14
190 7 17 44 58 82 93 88 81 91 103 2 25 l-66 -58 7 40 c4 22 6 38 3 35 -10
-10 -57 -143 -57 -161 0 -11 -4 -19 -10 -19 -14 0 -13 7 20 111 16 52 36 126
45 166 14 62 20 73 43 82 45 16 48 13 73 -51z m1215 -194 c45 -58 87 -146 82
-174 -3 -16 -12 -14 -83 21 -129 61 -142 77 -164 189 -10 52 -21 114 -24 138
l-5 43 76 -82 c43 -45 95 -106 118 -135z m2748 -1 c-20 -29 -40 -56 -44 -58
-20 -12 -28 186 -10 240 l13 39 39 -84 39 -83 -37 -54z m-684 121 c0 -6 -12
-21 -26 -35 -34 -31 -66 -96 -93 -188 -20 -67 -29 -80 -88 -135 -35 -34 -85
-89 -110 -124 -25 -35 -46 -62 -48 -60 -1 2 1 36 4 76 l6 74 60 42 c57 40 105
102 104 136 0 8 -11 -7 -25 -33 -27 -53 -112 -117 -125 -96 -4 8 -9 5 -12 -7
-3 -13 -5 -9 -6 11 -1 26 16 47 123 151 68 67 136 143 151 170 45 78 46 79 67
52 9 -13 18 -28 18 -34z m-1640 -58 l0 -70 -25 34 c-29 39 -29 37 -13 97 10
42 12 44 25 28 8 -12 13 -46 13 -89z m764 -187 c10 -69 16 -146 14 -170 -3
-42 -5 -45 -68 -81 -79 -46 -104 -50 -69 -10 l24 27 -27 -24 c-15 -13 -25 -28
-21 -34 4 -6 1 -7 -6 -2 -14 8 -56 -27 -73 -60 -9 -16 -5 -15 18 6 16 14 60
40 97 57 38 17 81 41 97 52 l29 21 -5 -73 c-3 -40 -14 -120 -24 -178 -10 -58
-22 -145 -26 -195 -8 -108 -15 -130 -57 -173 l-32 -33 -6 68 -5 68 -2 -74 -2
-73 -62 -67 c-34 -36 -65 -67 -70 -69 -4 -2 -8 43 -8 101 l0 104 42 64 c23 35
52 91 64 124 l23 60 0 -46 c1 -26 -6 -65 -14 -88 -8 -22 -12 -41 -9 -41 8 0
34 68 34 90 0 11 9 33 20 48 10 15 22 41 25 57 5 24 2 21 -16 -15 -17 -35 -23
-41 -27 -26 -3 17 1 51 25 171 3 17 3 28 0 25 -3 -3 -13 -40 -22 -83 -17 -82
-81 -221 -116 -253 l-21 -19 7 35 c4 19 17 62 30 95 13 33 28 94 35 135 6 41
14 86 17 100 3 14 3 22 0 19 -4 -3 -18 -50 -32 -105 -28 -107 -55 -187 -62
-180 -3 2 0 55 7 117 8 79 16 120 28 134 16 19 16 19 0 6 -15 -11 -18 -11 -18
0 0 26 58 115 118 181 62 68 74 86 92 132 14 38 4 32 -16 -9 -9 -19 -34 -54
-55 -77 -35 -39 -38 -40 -29 -15 17 49 10 54 -11 7 -23 -51 -80 -143 -85 -137
-2 2 5 27 16 55 24 64 18 69 -9 7 -11 -25 -22 -45 -24 -45 -2 0 -12 34 -22 75
-29 124 -18 150 146 343 42 50 85 104 95 122 l19 31 6 -78 c3 -43 14 -135 23
-204z m-2799 153 c-11 -60 -17 -25 -9 50 8 66 9 69 12 28 2 -24 1 -60 -3 -78z
m2070 48 c14 -28 45 -123 58 -177 3 -12 2 -36 -2 -53 -6 -31 -7 -29 -38 43
-22 52 -34 97 -38 146 -2 39 -3 71 0 71 2 0 12 -14 20 -30z m1711 -20 c8 0 14
-4 14 -9 0 -8 -163 -137 -207 -164 -27 -17 -12 15 29 61 40 44 40 45 5 13 -20
-19 -37 -32 -37 -28 0 18 45 116 66 144 l24 32 47 -24 c25 -14 52 -25 59 -25z
m-2509 18 c-3 -8 -6 -5 -6 6 -1 11 2 17 5 13 3 -3 4 -12 1 -19z m1300 -37 c-3
-46 -9 -66 -30 -90 l-26 -31 6 52 c5 48 36 128 48 128 3 0 4 -27 2 -59z
m-1197 -44 c68 -80 80 -122 33 -111 -82 20 -98 29 -110 64 -7 19 -12 56 -12
82 -1 62 11 57 89 -35z m2536 36 c22 -8 17 -16 -36 -50 -61 -40 -65 -41 -44
-5 14 23 14 24 0 8 -52 -63 -75 -82 -140 -111 -113 -53 -141 -53 -51 -1 98 57
133 88 50 46 -67 -36 -62 -29 53 65 34 28 62 54 62 59 0 8 77 0 106 -11z m501
-13 c-3 -10 -1 -18 3 -17 5 1 27 -27 50 -61 l41 -64 -24 -59 -24 -60 -22 50
c-26 62 -27 93 -1 116 11 10 18 20 15 23 -11 11 -45 -33 -45 -57 l0 -26 -21
25 -21 25 18 -30 c33 -55 66 -128 71 -159 4 -26 -2 -37 -39 -73 l-43 -42 -29
124 c-32 142 -31 148 31 245 41 64 48 71 40 40z m-2366 -82 c10 -21 30 -68 43
-105 l25 -68 -57 60 c-59 63 -82 112 -82 176 l1 34 25 -30 c14 -16 34 -47 45
-67z m2714 75 c-5 -10 -10 -48 -13 -86 -3 -54 1 -84 22 -153 28 -87 32 -164 9
-171 -29 -10 -113 198 -113 280 0 45 12 71 53 115 34 35 54 42 42 15z m-723
-42 c78 -52 185 -166 218 -232 11 -21 29 -87 41 -146 25 -131 103 -335 166
-433 36 -57 43 -73 33 -85 -6 -8 -27 -42 -47 -77 l-34 -63 4 83 c3 45 3 82 1
82 -2 0 -10 -21 -18 -47 l-15 -48 0 49 c-1 44 -14 132 -42 290 -6 32 -17 70
-26 83 -22 33 -26 23 -7 -15 18 -36 11 -60 -12 -41 -22 18 -36 48 -50 104
l-12 50 -1 -38 c-1 -45 18 -93 59 -151 24 -33 34 -61 41 -112 17 -124 21 -209
12 -233 -9 -23 -11 -21 -55 40 -48 66 -198 221 -198 204 0 -6 11 -29 25 -52
27 -49 23 -51 -46 -22 -33 15 -48 26 -45 36 4 9 -1 12 -17 8 -13 -3 -36 3 -56
15 l-33 21 23 25 c38 41 55 47 84 28 31 -20 44 -11 27 17 -10 15 -10 29 -3 52
18 53 40 142 36 145 -2 2 -15 -35 -29 -82 -15 -47 -31 -86 -35 -86 -5 0 -23
16 -41 37 l-32 36 4 96 c4 103 -7 82 -17 -32 l-7 -67 -45 37 c-39 33 -43 38
-26 45 13 6 11 7 -8 3 -17 -3 -32 1 -43 13 -15 17 -13 20 24 41 51 28 100 70
100 84 0 6 -10 1 -22 -10 -39 -36 -127 -85 -145 -81 -13 3 -3 12 32 32 28 16
67 39 87 52 20 13 71 33 112 44 79 21 159 50 153 56 -1 2 -30 -4 -62 -12 -33
-9 -68 -18 -78 -20 -10 -2 -27 -6 -38 -9 -10 -4 -19 -3 -19 0 0 13 24 51 59
95 61 75 66 88 12 30 l-51 -55 0 31 c0 28 14 121 26 169 4 16 3 17 -5 5 -5 -8
-17 -55 -26 -105 -9 -49 -18 -100 -21 -112 -6 -29 -59 -90 -95 -109 -38 -19
-42 -18 -37 11 3 13 1 22 -3 19 -5 -3 -9 -14 -9 -24 0 -18 -25 -50 -39 -50 -4
0 -2 28 5 63 8 34 13 71 13 82 -1 11 -7 -9 -15 -45 -16 -71 -62 -172 -82 -178
-9 -3 -10 3 -2 22 13 34 5 33 -15 -1 -16 -28 -16 -28 -11 -3 14 80 13 88 -5
30 -30 -98 -34 -104 -75 -124 -22 -11 -51 -25 -66 -33 -35 -18 -41 -17 -28 6
6 13 7 28 1 43 l-10 23 0 -23 c-2 -62 -83 -155 -183 -210 -32 -18 -60 -32 -62
-32 -6 0 41 177 53 198 14 25 69 75 126 113 74 49 216 162 211 166 -2 3 -16
-3 -30 -13 -15 -9 -28 -15 -30 -13 -2 2 -1 31 1 64 l5 60 87 42 c47 23 131 75
186 116 55 42 105 76 112 76 6 1 45 -21 85 -48z m-2266 -13 c55 -62 100 -152
110 -223 l7 -50 -46 43 c-26 23 -50 42 -55 42 -4 0 -13 21 -20 46 -7 26 -15
44 -18 41 -4 -3 -1 -20 5 -38 12 -36 11 -42 -11 -34 -11 4 -17 29 -22 92 -3
47 -9 96 -12 109 -10 38 10 28 62 -28z m-600 -60 c24 -48 57 -91 97 -130 50
-47 57 -58 39 -58 -46 0 -102 32 -122 69 -10 20 -38 54 -61 76 l-43 40 47 -54
c41 -46 59 -81 42 -81 -26 0 -69 38 -90 81 l-26 50 33 39 c18 21 36 39 40 39
4 1 24 -31 44 -71z m56 23 c48 -20 60 -31 73 -63 8 -21 15 -45 15 -53 0 -8 5
-15 11 -15 5 0 7 -5 3 -11 -3 -6 -1 -15 6 -19 7 -4 10 -14 8 -21 -6 -18 -137
115 -166 170 -13 24 -20 42 -15 40 5 -2 34 -15 65 -28z m-286 4 c12 -8 25 -11
29 -7 4 4 5 -6 1 -23 l-6 -30 18 33 c16 30 19 31 37 17 20 -15 20 -15 0 -31
-44 -34 -54 -36 -61 -9 -8 32 -23 24 -16 -10 6 -34 -14 -32 -22 3 -3 15 -8 37
-12 50 -7 26 3 28 32 7z m540 -42 c-7 -7 -26 7 -26 19 0 6 6 6 15 -2 9 -7 13
-15 11 -17z m-428 -20 c-3 -19 -70 -57 -89 -51 -10 3 68 66 84 67 5 1 7 -7 5
-16z m400 -13 c14 0 26 -8 31 -22 13 -36 25 -268 13 -268 -23 0 -35 36 -42
118 l-7 87 -2 -80 -1 -80 -20 30 c-17 25 -100 223 -100 238 0 3 24 -1 53 -9
28 -7 62 -14 75 -14z m3429 -105 c-5 -16 -17 -38 -25 -48 -30 -34 -32 1 -5 89
l28 89 6 -50 c3 -27 1 -63 -4 -80z m-356 41 c-26 -26 -32 -19 -24 29 l6 38 19
-23 c19 -23 19 -24 -1 -44z m-3621 45 c0 -14 -46 -58 -78 -75 -29 -15 -142
-46 -169 -46 -15 0 -18 56 -3 65 5 3 51 11 102 17 64 8 97 17 110 30 19 19 38
24 38 9z m257 -90 c35 -17 93 -38 131 -46 63 -15 69 -18 95 -60 14 -25 22 -45
17 -45 -6 0 -51 18 -101 41 -50 22 -93 39 -95 36 -4 -4 175 -90 214 -102 12
-3 34 -22 48 -40 24 -32 25 -38 19 -110 -7 -75 -8 -76 -27 -58 -11 10 -33 41
-49 68 -34 58 -39 53 -8 -8 32 -61 69 -107 83 -101 7 3 24 -17 40 -46 l28 -51
-38 19 c-112 57 -167 124 -206 244 -22 67 -23 69 -61 75 -46 7 -104 53 -123
98 -7 16 -13 24 -14 17 -1 -47 72 -119 130 -128 38 -6 40 -9 56 -63 20 -70 58
-142 93 -174 14 -14 62 -47 106 -75 56 -34 86 -60 102 -88 12 -21 20 -40 18
-42 -11 -11 -80 22 -126 59 -73 60 -124 95 -115 81 4 -7 32 -30 62 -53 46 -34
54 -44 54 -72 0 -36 -34 -117 -49 -117 -5 0 -24 17 -41 38 -37 42 -20 13 24
-42 16 -20 27 -38 25 -40 -2 -3 -28 10 -56 27 -58 35 -55 30 -118 227 -23 73
-39 148 -44 205 -5 50 -9 74 -10 55 l-2 -35 -15 25 c-8 14 -13 17 -10 8 26
-88 34 -174 14 -162 -5 3 -6 10 -3 15 4 5 -1 19 -9 31 -9 12 -16 18 -16 12 0
-5 5 -15 12 -22 6 -6 9 -14 6 -18 -8 -8 -88 46 -89 60 -1 6 -7 92 -14 191
l-12 180 -2 -115 -2 -115 -30 35 c-17 19 -34 34 -39 33 -5 -2 -6 5 -3 14 4 10
2 14 -4 10 -9 -6 -22 39 -38 135 -6 36 -5 38 42 62 l48 24 20 -33 c13 -22 40
-43 82 -64z m435 73 c101 -36 105 -40 88 -109 -13 -54 -14 -55 -33 -38 -10 10
-30 38 -44 63 -13 25 -21 34 -18 20 4 -14 6 -39 6 -57 -1 -17 3 -52 9 -78 6
-26 8 -50 5 -53 -3 -3 -20 5 -38 18 -23 16 -17 7 20 -31 43 -45 83 -109 83
-134 0 -3 -36 22 -80 55 l-80 61 -1 102 c0 56 -4 126 -8 155 -9 62 -10 62 91
26z m443 -65 c39 -50 76 -101 83 -115 7 -13 17 -75 23 -136 5 -62 12 -120 15
-128 11 -28 34 -195 34 -244 l0 -49 -29 37 c-26 32 -29 43 -26 94 1 31 1 41
-2 22 -6 -50 -17 -55 -45 -21 -23 26 -25 35 -17 73 4 24 8 75 7 113 -1 66 -1
64 -8 -28 -4 -54 -11 -101 -14 -104 -11 -11 -66 50 -91 102 -21 42 -27 76 -37
208 -11 146 -10 163 7 213 10 30 21 54 24 53 3 0 38 -41 76 -90z m1101 43
c-12 -24 -79 -114 -107 -146 -4 -5 -2 15 6 44 8 28 15 53 17 55 8 8 93 75 96
75 1 0 -4 -13 -12 -28z m-3029 -61 c-15 -33 -23 -43 -25 -30 -3 14 34 79 44
79 2 0 -7 -22 -19 -49z m496 -1 c-7 -26 -18 -35 -68 -55 -76 -31 -151 -83
-222 -154 -56 -56 -59 -37 -3 24 15 17 49 57 75 90 27 33 64 72 84 86 38 29
134 62 139 49 2 -5 -1 -22 -5 -40z m351 -6 c3 -31 22 -96 41 -145 19 -48 37
-105 41 -125 l7 -37 -42 23 c-47 27 -100 98 -137 186 -20 46 -24 52 -19 24 3
-19 23 -66 45 -104 22 -38 40 -72 40 -75 0 -4 25 -23 56 -42 95 -58 94 -57
125 -174 l28 -109 -50 50 c-36 36 -57 69 -74 115 -28 76 -32 69 -8 -15 15 -52
28 -72 94 -141 43 -45 105 -97 137 -115 53 -31 61 -41 75 -83 15 -45 15 -48
-1 -42 -9 4 -64 16 -122 27 -58 11 -112 23 -120 27 -20 10 -94 238 -121 374
-13 64 -29 117 -40 130 -19 22 -19 22 -5 -8 15 -30 59 -246 52 -252 -5 -5 -88
130 -127 207 -18 36 -45 103 -60 150 -17 49 -26 68 -22 45 14 -90 80 -234 186
-405 25 -41 49 -88 53 -105 l7 -30 -37 35 c-20 19 -42 51 -48 72 -6 21 -13 36
-15 34 -13 -13 27 -96 65 -134 49 -49 71 -92 47 -92 -8 0 -32 7 -54 16 -44 17
-50 28 -81 147 -22 84 -54 155 -101 224 -36 51 -47 79 -70 168 -22 86 -25 50
-3 -45 8 -37 31 -94 50 -127 20 -32 42 -71 50 -88 13 -25 8 -22 -30 18 -44 47
-143 167 -179 217 -14 21 -14 18 2 -16 11 -22 36 -60 55 -83 28 -34 36 -52 36
-84 l0 -40 -26 24 c-14 13 -41 51 -60 84 -20 33 -32 49 -28 35 9 -35 38 -89
68 -129 29 -39 32 -73 12 -111 l-14 -25 -36 38 c-22 24 -33 44 -30 55 5 14 4
14 -4 2 -5 -8 -13 -37 -16 -65 -4 -27 -10 -66 -13 -85 l-6 -35 -14 50 c-15 60
-16 108 -3 156 6 20 14 84 19 142 7 96 10 109 37 140 16 19 36 47 45 63 13 25
26 32 89 46 41 10 111 35 155 57 44 22 83 40 86 40 3 1 9 -24 13 -55z m2306
-45 c-6 -41 -10 -93 -10 -117 1 -50 -47 -219 -69 -246 -17 -20 -100 -76 -113
-76 -20 0 -5 27 27 49 37 25 95 86 95 99 0 5 -25 -16 -56 -46 -30 -30 -58 -51
-61 -48 -4 3 3 16 14 29 33 35 161 247 150 247 -3 0 -37 -46 -76 -102 -39 -57
-79 -114 -90 -128 l-21 -25 -1 50 -2 50 -6 -50 -6 -50 -8 49 c-14 92 -11 104
31 125 21 11 45 28 53 38 15 19 14 19 -63 -32 l-28 -17 0 29 c0 22 8 33 33 48
47 28 153 132 185 182 32 52 36 41 22 -58z m288 52 c-7 -68 -27 -94 -116 -152
-42 -28 -89 -62 -104 -76 -15 -15 -31 -24 -34 -20 -9 8 52 107 102 167 40 48
133 129 148 130 5 0 6 -22 4 -49z m-1125 -18 c8 -24 10 -40 4 -36 -6 4 -8 -2
-4 -16 7 -27 -25 -122 -52 -157 l-20 -25 -26 39 -25 38 19 57 c25 71 73 159
83 149 3 -4 13 -26 21 -49z m2167 15 c13 -24 43 -75 67 -115 l43 -71 -21 -69
c-12 -37 -24 -72 -28 -78 -3 -5 -11 44 -17 110 l-11 120 -2 -100 -3 -100 -19
75 c-11 44 -18 101 -17 137 3 88 -8 88 -16 1 -5 -48 -2 -108 8 -175 9 -57 16
-116 16 -132 0 -30 -47 -151 -59 -151 -26 0 -148 292 -138 329 3 10 5 7 6 -6
2 -44 19 -22 61 80 45 109 86 187 99 187 4 0 18 -19 31 -42z m-2809 -7 c51
-32 87 -83 96 -134 8 -54 -11 -51 -57 8 -23 30 -58 69 -77 85 -25 22 -33 36
-28 50 8 26 13 25 66 -9z m1238 -33 c-5 -18 -9 -35 -9 -38 0 -3 -5 3 -11 13
-8 14 -7 23 7 38 23 26 24 24 13 -13z m-1339 -117 c12 -39 20 -89 19 -130 l0
-66 -13 40 c-7 22 -22 58 -33 80 -21 39 -53 156 -53 191 0 36 59 -49 80 -115z
m106 33 c24 -34 44 -69 44 -78 0 -23 -24 -67 -48 -89 -19 -17 -19 -17 -26 23
-3 23 -4 45 -1 51 4 5 2 9 -3 9 -13 0 -52 97 -52 130 0 58 20 47 86 -46z
m3116 -139 c-2 -24 4 -69 16 -110 22 -75 34 -135 28 -135 -3 0 -14 30 -26 68
-12 37 -46 110 -76 163 -30 52 -54 102 -54 110 0 8 19 36 42 62 l43 48 16 -83
c9 -45 14 -101 11 -123z m-2415 61 c8 -39 11 -83 7 -100 l-7 -31 -15 35 c-8
19 -18 55 -23 80 -7 40 -8 39 -3 -15 3 -33 7 -88 11 -123 3 -35 1 -68 -3 -72
-6 -6 -27 25 -52 75 l-43 84 40 52 c23 28 41 56 41 62 0 6 -7 2 -16 -9 -12
-15 -14 -15 -11 -3 3 10 11 36 18 60 l13 42 14 -34 c8 -19 21 -65 29 -103z
m-1916 106 c-18 -34 -51 -55 -116 -72 -36 -10 -65 -16 -65 -14 0 14 152 98
188 104 1 0 -2 -8 -7 -18z m1775 -234 c107 -180 101 -155 100 -388 l-1 -205
-44 -80 c-24 -44 -46 -82 -48 -85 -15 -17 -79 188 -94 300 -14 106 -7 157 36
275 18 51 36 115 39 142 6 45 4 43 -22 -32 -16 -44 -33 -89 -39 -100 -7 -11
-15 -29 -19 -40 -5 -14 -11 6 -22 65 -14 82 -13 88 8 153 27 85 21 97 -11 20
l-24 -58 -7 45 c-3 25 -7 79 -7 120 l0 75 47 -52 c26 -28 75 -98 108 -155z
m-1297 140 c24 -32 31 -52 31 -87 0 -55 -11 -46 -38 34 -11 33 -23 68 -27 78
-12 29 2 19 34 -25z m1941 18 c0 -14 -10 -30 -26 -41 l-25 -16 23 40 c13 23
24 41 26 41 1 0 2 -11 2 -24z m-2487 -118 c-3 -51 -10 -104 -15 -118 l-10 -25
-19 24 c-23 28 -25 20 -3 -14 15 -23 14 -28 -14 -88 -25 -54 -73 -107 -96
-107 -3 0 -7 21 -8 48 -1 43 -2 44 -5 10 -5 -44 -8 -45 -42 -15 l-26 22 23
-26 c23 -27 29 -49 12 -49 -5 0 -10 -4 -10 -10 0 -5 7 -10 16 -10 20 0 22 9
-53 -189 l-58 -154 -8 46 c-8 40 -4 62 32 169 26 77 41 140 40 168 -1 42 -2
40 -14 -25 -7 -38 -22 -90 -33 -115 l-21 -45 -1 45 c-1 25 -8 63 -16 85 -7 22
-12 29 -9 15 19 -117 16 -217 -5 -165 -5 11 -9 38 -9 59 -1 26 -4 37 -11 30
-6 -6 -4 -34 5 -79 17 -79 18 -95 8 -95 -17 1 -47 56 -45 81 1 15 -3 31 -9 35
-9 5 -10 0 -7 -14 9 -33 -5 -26 -26 13 -27 50 -31 36 -5 -18 15 -31 20 -53 15
-72 -9 -34 -17 -26 -46 46 -16 39 -21 65 -16 85 6 22 9 25 17 13 8 -11 9 -9 5
7 -8 27 92 148 157 189 168 107 170 109 203 170 17 33 35 71 38 85 4 14 -8 -2
-26 -35 -32 -57 -103 -143 -112 -134 -5 5 9 84 20 114 4 11 4 17 -1 13 -4 -4
-15 -36 -25 -70 -13 -51 -23 -67 -49 -83 -18 -11 -55 -37 -83 -59 -40 -30 -52
-35 -59 -25 -6 10 -9 6 -9 -12 0 -15 -17 -49 -38 -77 l-37 -51 -5 54 c-7 76
-16 76 -24 -2 -7 -71 -32 -137 -48 -127 -5 3 -8 32 -6 64 2 32 6 56 11 53 4
-2 7 2 7 10 0 27 79 121 143 170 34 27 100 86 147 132 76 75 94 88 165 114 44
17 86 30 92 31 10 0 11 -22 6 -92z m4241 7 c-4 -14 -3 -16 4 -7 7 11 14 8 29
-15 44 -64 65 -105 57 -112 -5 -3 -24 -28 -42 -56 -33 -50 -33 -50 -4 -19 17
18 35 40 41 50 9 17 12 17 21 4 21 -32 70 -174 79 -228 10 -68 4 -94 -50 -188
-35 -61 -45 -72 -57 -62 -18 15 -12 62 24 202 37 142 37 139 22 159 -11 15
-13 11 -14 -30 0 -39 -36 -199 -60 -273 -8 -22 -20 1 -54 108 -46 142 -38 203
39 316 17 25 31 48 31 52 0 13 -40 -29 -70 -74 l-30 -45 0 41 c0 54 15 92 48
119 15 12 22 22 16 23 -6 0 -17 -7 -24 -15 -7 -8 -16 -13 -20 -10 -12 7 -30
-77 -30 -137 0 -83 -16 -91 -29 -16 -16 93 -14 117 16 208 l26 80 19 -27 c10
-16 15 -37 12 -48z m-2876 57 c7 -5 17 -37 23 -71 10 -63 37 -130 66 -163 8
-9 12 -21 9 -26 -3 -5 8 -40 23 -78 50 -124 50 -122 -4 -83 -26 19 -51 43 -56
54 -4 11 -8 14 -8 6 -1 -11 -6 -10 -21 4 -15 14 -20 31 -20 69 0 39 3 47 11
36 8 -12 9 -10 4 7 -3 12 -12 53 -19 90 l-13 68 5 -122 c3 -73 1 -123 -4 -123
-5 0 -18 6 -29 13 -11 8 -33 22 -50 33 l-30 18 19 -22 c11 -13 35 -32 54 -44
l34 -21 -7 -71 c-6 -68 -27 -126 -44 -126 -15 0 -62 161 -68 229 -7 84 16 175
62 254 19 32 35 63 35 68 0 11 11 11 28 1z m1930 -4 c7 -7 12 -15 12 -20 0
-12 -106 -40 -137 -36 -27 3 -26 4 22 35 53 35 83 41 103 21z m-800 -176 l-3
-103 -32 -20 -31 -20 -7 58 c-11 111 -21 122 -21 23 l1 -94 -40 -23 c-22 -12
-43 -23 -47 -23 -11 0 -10 159 2 199 12 41 70 114 124 153 l41 29 8 -38 c4
-20 6 -84 5 -141z m-1353 30 c26 -37 33 -72 15 -72 -5 0 -21 21 -34 48 -26 49
-33 52 -16 8 5 -14 8 -26 5 -26 -2 0 -25 14 -50 31 -80 54 -58 25 29 -38 l83
-61 6 -62 c4 -35 7 -79 7 -99 0 -35 -2 -33 -62 59 -106 165 -125 207 -127 279
l-2 63 61 -47 c33 -25 71 -63 85 -83z m2270 33 c44 -40 75 -74 69 -75 -6 0
-28 -13 -49 -30 -21 -16 -43 -30 -50 -30 -6 0 -30 17 -53 38 -38 35 -41 36
-46 17 -3 -11 -5 -29 -5 -40 1 -15 3 -13 8 7 l6 26 40 -35 40 -35 -35 -30
c-65 -55 -70 -55 -65 -1 l4 48 -10 -46 c-10 -44 -13 -47 -85 -82 -41 -20 -74
-33 -74 -27 0 5 5 31 11 57 9 40 18 54 60 87 28 21 48 41 45 43 -3 3 -24 -10
-47 -28 -41 -33 -42 -33 -36 -9 18 64 16 70 -5 17 -21 -53 -28 -60 -77 -82
-29 -14 -54 -25 -56 -25 -2 0 1 15 6 32 5 18 9 49 9 69 0 20 5 50 11 68 15 42
92 101 133 102 17 0 56 8 86 19 30 10 62 18 70 19 9 1 51 -33 95 -74z m-345
21 c0 -2 -46 -45 -102 -97 -79 -73 -97 -86 -82 -59 26 47 94 114 140 139 43
22 44 23 44 17z m-2802 -129 c28 -32 55 -72 61 -88 l10 -29 -30 16 c-46 23
-45 11 0 -19 28 -19 43 -38 50 -64 16 -56 15 -57 -32 -24 -56 38 -137 188
-137 254 0 47 -5 50 78 -46z m424 21 c34 -30 38 -39 43 -98 l6 -65 -35 37
c-45 47 -46 39 -2 -15 18 -23 39 -53 46 -66 l12 -24 -32 19 c-50 29 -71 65
-91 156 -10 46 -19 89 -19 96 0 17 24 4 72 -40z m2308 -78 c-6 -39 -17 -73
-23 -77 -7 -4 -58 -26 -114 -49 -56 -23 -119 -51 -140 -63 -34 -20 -32 -17 17
26 30 26 102 94 160 150 58 56 107 98 108 93 2 -6 -2 -42 -8 -80z m1153 -80
c25 -91 49 -174 53 -185 4 -11 -26 25 -66 79 -83 111 -88 130 -54 223 11 28
20 50 20 50 1 -1 22 -76 47 -167z m-1477 108 c-7 -24 -33 -99 -58 -168 -26
-69 -49 -135 -53 -148 -7 -23 -7 -23 -28 -5 -20 18 -20 18 -5 -5 14 -21 12
-33 -18 -152 -18 -71 -42 -147 -53 -168 -32 -63 -161 -231 -161 -210 0 2 9 33
19 70 23 79 46 250 37 273 -3 10 16 51 48 104 48 81 113 239 131 319 4 21 16
37 34 47 15 7 47 30 70 49 24 20 45 36 46 36 2 0 -2 -19 -9 -42z m163 -22
c-22 -37 -102 -116 -137 -135 -28 -15 -29 -2 -3 55 15 32 32 49 82 77 35 19
67 36 71 36 4 1 -2 -14 -13 -33z m-2624 -26 c34 -67 32 -75 -14 -45 -37 25
-38 27 -28 61 6 19 12 34 14 34 1 0 14 -22 28 -50z m1401 -125 c27 -40 35 -61
32 -86 l-3 -34 -47 43 c-35 33 -55 64 -83 130 -20 48 -39 94 -42 102 -8 25
106 -98 143 -155z m-1622 71 l14 -69 -36 36 -36 36 19 42 c11 23 20 38 22 33
1 -5 9 -40 17 -78z m116 -9 c-12 -21 -12 -21 5 -7 16 13 20 11 46 -20 31 -37
39 -61 13 -40 -12 11 -15 11 -12 0 2 -8 -16 -21 -44 -32 -55 -20 -61 -12 -32
44 9 16 11 28 6 24 -5 -3 -15 -20 -22 -37 -12 -27 -14 -29 -20 -13 -4 11 -2
53 3 95 l11 76 30 -35 c27 -30 28 -36 16 -55z m664 3 c4 -28 3 -38 -2 -25 -5
11 -12 40 -15 65 -4 28 -3 37 2 25 5 -11 11 -40 15 -65z m2780 -4 c140 -68
183 -104 227 -188 20 -40 27 -148 9 -148 -5 0 -10 3 -10 8 0 4 -10 18 -21 32
-20 24 -20 24 0 -12 20 -34 22 -53 24 -231 1 -107 -1 -190 -5 -184 -4 7 -8 25
-8 40 0 15 -6 40 -14 56 -15 28 -78 90 -112 109 -18 11 -18 12 6 29 14 9 50
41 80 71 l55 54 -75 -56 c-89 -66 -116 -72 -66 -15 37 44 67 116 65 158 -1 17
-4 11 -10 -18 -8 -44 -50 -124 -70 -137 -11 -7 -10 16 7 116 5 32 -21 -52 -32
-105 -8 -37 -13 -41 -56 -55 -56 -18 -64 -32 -12 -20 23 6 33 5 27 -1 -5 -5
-23 -11 -39 -12 -16 -1 -31 -5 -34 -8 -3 -3 -33 -14 -67 -25 -70 -23 -69 -13
2 36 37 26 42 27 52 12 11 -15 12 -15 12 3 1 11 17 45 38 75 l36 55 -54 -53
c-30 -30 -67 -61 -83 -69 l-29 -15 24 39 c13 21 76 91 141 155 65 64 118 121
118 126 0 5 -45 -35 -100 -89 -56 -55 -104 -99 -109 -99 -4 0 -6 15 -4 33 3
26 0 23 -15 -18 -18 -51 -96 -174 -159 -253 -32 -39 -93 -82 -93 -66 0 4 28
70 61 146 76 173 117 221 251 297 138 78 171 112 45 45 -59 -31 -110 -54 -113
-52 -10 11 21 75 50 102 30 27 30 27 4 12 -16 -9 -28 -15 -28 -12 0 2 9 34 21
71 32 105 15 87 -21 -22 -42 -125 -61 -163 -119 -233 -31 -38 -69 -106 -116
-209 -61 -135 -94 -185 -112 -168 -5 6 54 236 72 279 6 15 30 41 52 57 23 17
47 41 54 53 9 17 1 13 -30 -15 -50 -45 -68 -41 -24 6 36 37 103 141 103 158 0
6 -22 -22 -49 -64 -63 -97 -74 -103 -66 -41 3 27 8 68 11 90 5 40 6 42 47 48
55 8 137 47 162 76 l20 24 -32 -22 c-50 -35 -105 -55 -113 -42 -5 8 -11 6 -20
-5 -7 -8 -21 -15 -31 -15 -16 0 -19 8 -20 43 -1 46 -4 42 -14 -15 l-6 -38 -76
0 c-73 0 -76 1 -59 19 9 10 53 35 99 57 61 29 98 39 147 43 65 4 62 19 -4 20
l-28 1 23 20 c13 10 36 19 52 20 15 0 88 -29 161 -64z m-458 -18 c-15 -54 -35
-78 -89 -112 l-28 -17 6 48 c12 91 13 93 67 118 29 13 54 22 56 20 2 -2 -3
-28 -12 -57z m-2826 -41 c30 -27 69 -56 87 -65 33 -16 35 -20 49 -112 l6 -45
-23 20 c-62 51 -94 84 -132 135 -23 30 -50 64 -60 75 -101 108 -50 102 73 -8z
m2191 11 c-23 -68 -110 -255 -110 -238 0 3 15 66 33 140 31 125 36 136 67 157
18 13 34 23 36 23 1 0 -11 -37 -26 -82z m-2441 -63 c0 -14 -4 -13 -27 3 -54
39 -94 88 -87 106 5 14 16 8 60 -38 30 -31 54 -63 54 -71z m1069 20 c24 -30
58 -66 76 -79 41 -31 75 -119 75 -192 0 -30 -2 -54 -5 -54 -2 0 -21 11 -41 25
-27 18 -32 25 -18 25 17 0 17 1 -3 13 -28 16 -163 171 -164 188 0 8 -6 -2 -13
-21 l-13 -35 -7 31 c-4 17 0 55 9 89 8 33 15 67 15 77 0 17 2 17 23 4 12 -9
42 -40 66 -71z m413 -11 c65 -53 123 -104 128 -114 26 -49 -1 -160 -63 -265
l-42 -70 -3 37 c-2 21 4 79 14 130 25 139 26 161 4 78 -10 -41 -22 -104 -26
-139 -5 -49 -9 -59 -17 -46 -9 17 -6 99 8 200 4 36 4 35 -9 -10 -7 -27 -18
-70 -23 -95 l-9 -45 -13 44 c-7 24 -16 89 -21 145 l-9 101 3 -115 c3 -102 7
-124 35 -194 28 -68 31 -89 29 -154 -3 -65 -5 -72 -15 -51 -6 13 -35 73 -64
132 -29 60 -56 125 -60 145 l-7 37 -1 -34 c-1 -21 14 -63 40 -115 44 -87 62
-136 50 -136 -18 0 -55 53 -67 97 l-14 48 3 -47 c1 -25 -1 -44 -4 -43 -25 16
-54 329 -33 355 29 36 46 86 51 151 3 38 8 69 11 69 3 0 58 -43 124 -96z m869
-34 c-31 -112 -72 -205 -110 -250 l-20 -25 -1 28 c0 16 5 61 10 100 18 128 19
137 11 137 -5 0 -11 -31 -15 -68 -4 -38 -11 -82 -15 -98 -9 -29 -9 -28 -35 30
l-27 59 58 60 c62 63 165 149 171 142 2 -2 -10 -54 -27 -115z m605 93 c-2 -16
-8 -46 -11 -68 -6 -35 -26 -60 -150 -186 -79 -81 -162 -175 -185 -210 -29 -46
-54 -70 -89 -89 l-48 -27 20 34 c11 19 30 71 43 116 18 62 30 87 51 102 39 29
193 166 193 171 0 3 -14 -5 -31 -17 -37 -26 -136 -68 -162 -69 -16 0 -16 3 -2
38 28 69 103 123 275 198 94 41 103 42 96 7z m-3027 -45 c36 -34 68 -66 70
-71 5 -14 -66 1 -110 24 -33 16 -79 65 -79 83 0 5 34 23 49 25 2 1 33 -27 70
-61z m1153 36 c46 -22 110 -114 80 -114 -10 0 -122 115 -122 124 0 9 6 7 42
-10z m2996 -121 l42 -62 0 -113 0 -114 -42 -58 c-53 -72 -60 -54 -23 59 14 42
25 80 24 84 0 3 -17 -28 -37 -69 l-37 -75 -3 57 c-2 48 3 71 38 152 22 52 40
99 40 103 -1 4 -19 -26 -41 -67 l-40 -75 5 50 5 50 -12 -38 c-7 -21 -16 -34
-21 -30 -4 4 -6 -3 -5 -17 5 -54 0 -72 -18 -66 -15 6 -16 5 -1 -11 17 -20 34
-168 17 -158 -5 4 -21 29 -34 56 -14 27 -28 49 -30 49 -10 0 26 -74 51 -108
14 -18 24 -36 21 -38 -10 -11 -73 64 -90 107 -16 41 -17 22 0 -36 4 -18 2 -17
-21 5 l-25 25 14 67 c17 83 54 187 106 297 l39 84 18 -24 c10 -13 37 -52 60
-86z m-4678 77 c-6 -11 -13 -20 -16 -20 -2 0 0 9 6 20 6 11 13 20 16 20 2 0 0
-9 -6 -20z m810 -14 c0 -13 95 -114 163 -172 62 -55 62 -69 -3 -61 -90 11
-101 21 -135 124 -17 51 -35 96 -39 100 -5 4 -7 1 -3 -9 4 -12 -6 -26 -36 -48
l-42 -31 -24 28 c-13 15 -20 22 -17 16 10 -18 -9 -16 -24 2 -16 19 -17 18 54
49 45 20 62 24 73 15 11 -10 12 -8 6 7 -6 17 -5 17 10 5 9 -7 17 -19 17 -25z
m-309 -51 c10 -4 19 -15 19 -25 0 -32 -31 -112 -69 -178 -32 -56 -37 -61 -48
-45 -18 24 -16 48 7 93 25 49 19 52 -9 6 -22 -35 -27 -81 -11 -106 12 -19 -12
-45 -62 -71 -21 -10 -40 -19 -42 -19 -3 0 24 87 60 193 36 105 67 197 69 204
3 7 16 1 35 -17 17 -16 40 -32 51 -35z m3305 -37 c-10 -93 -33 -164 -65 -201
-34 -38 -168 -107 -222 -114 l-38 -5 21 41 c15 32 36 51 88 82 37 22 76 49 86
61 15 16 10 14 -21 -7 -22 -15 -62 -38 -88 -52 -68 -34 -59 -7 18 54 62 50
105 104 105 132 0 10 -7 4 -19 -14 -10 -16 -30 -41 -44 -54 l-26 -23 28 73 27
74 64 6 c36 3 71 6 79 7 11 2 12 -10 7 -60z m-2293 -7 c43 -40 72 -101 47
-101 -29 0 -130 121 -130 156 0 9 49 -23 83 -55z m-450 31 c26 -10 51 -22 56
-28 8 -8 121 -346 121 -361 0 -3 -19 20 -42 53 -23 32 -68 89 -100 126 -43 51
-62 84 -77 134 -22 70 -26 94 -13 94 4 0 28 -8 55 -18z m2561 -4 c-23 -75 -47
-128 -69 -148 -29 -27 -42 -22 -25 10 6 12 13 42 14 67 2 36 9 51 30 70 36 30
60 31 50 1z m-3054 -37 c-21 -42 -59 -80 -47 -48 4 10 7 35 7 56 0 36 1 37 30
33 l29 -4 -19 -37z m245 -3 c8 -28 15 -53 15 -55 0 -2 -22 8 -50 22 -27 14
-50 28 -50 31 0 7 53 53 62 54 4 0 14 -23 23 -52z m3624 13 c-6 -18 -13 -30
-15 -28 -2 2 1 18 7 36 6 18 13 30 15 28 2 -2 -1 -18 -7 -36z m-3107 -27 c54
-18 96 -40 138 -74 34 -27 82 -56 108 -65 95 -34 162 -69 194 -103 18 -19 27
-32 21 -28 -18 10 -16 -4 3 -25 16 -18 78 -218 70 -227 -11 -10 -67 22 -99 58
-19 20 -42 59 -52 86 -29 79 -52 128 -69 149 -16 19 -16 18 -2 -12 21 -41 76
-193 71 -193 -3 0 -21 14 -42 31 -21 17 -9 3 27 -31 l65 -61 -40 6 c-64 11
-82 29 -130 130 -45 94 -68 128 -39 59 17 -41 14 -50 -13 -36 -10 6 -53 22
-97 36 -112 36 -122 45 -147 126 -11 38 -18 73 -15 78 3 5 -1 17 -8 27 -21 30
1 -98 30 -169 13 -33 22 -61 21 -63 -2 -2 -19 7 -38 20 -37 25 -68 90 -114
240 l-24 79 52 -6 c29 -4 87 -18 129 -32z m342 -58 c27 -31 46 -59 42 -63 -3
-3 -24 -1 -45 6 -55 16 -81 52 -81 110 0 45 1 46 18 25 9 -12 39 -47 66 -78z
m-1005 75 c11 -7 4 -14 -28 -31 -50 -25 -60 -21 -37 15 17 26 40 31 65 16z
m2841 -77 c-26 -97 -64 -148 -144 -197 -58 -35 -61 -35 -68 -17 -10 28 -16 25
-11 -7 3 -24 2 -25 -6 -8 -5 11 -10 15 -10 8 -2 -28 -61 -60 -61 -32 0 11 313
339 318 334 2 -2 -6 -38 -18 -81z m-2801 37 c12 -8 10 -15 -11 -40 -14 -16
-28 -28 -31 -25 -3 3 -24 -8 -48 -25 -55 -41 -71 -40 -67 2 3 29 10 35 68 64
74 37 71 36 89 24z m1580 -51 c0 -8 -11 -28 -25 -45 l-25 -30 6 45 c4 25 9 56
11 70 l6 25 13 -25 c8 -14 14 -32 14 -40z m474 3 c37 -86 39 -98 22 -139 -18
-45 -121 -184 -135 -184 -6 0 -11 19 -11 43 -3 87 -15 101 -15 17 1 -77 -3
-91 -32 -145 -18 -33 -43 -73 -56 -90 l-24 -29 2 129 c3 149 12 182 80 283 50
73 128 171 137 172 4 0 18 -26 32 -57z m2057 -86 c0 -6 -3 -7 -7 -3 -4 3 -22
-8 -40 -26 l-33 -32 0 35 c0 18 -3 66 -6 104 l-6 70 46 -69 c25 -38 46 -74 46
-79z m-4589 48 c10 -22 19 -57 19 -77 0 -42 -29 -124 -39 -111 -4 4 -20 47
-36 94 -27 81 -28 90 -15 128 13 40 14 41 33 24 11 -10 28 -36 38 -58z m576
29 c43 -25 83 -74 50 -61 -16 6 -67 19 -121 31 -26 7 -27 8 -12 25 24 26 20
37 -5 15 -22 -19 -22 -19 -10 4 14 27 31 24 98 -14z m-627 -247 c0 -28 -10
-54 -36 -93 -20 -30 -37 -54 -39 -54 -1 0 -2 94 -2 210 l1 210 38 -118 c21
-64 38 -134 38 -155z m360 198 c0 -17 -9 -29 -30 -40 l-31 -16 21 41 c23 45
40 52 40 15z m86 -61 c-25 -43 -46 -85 -46 -94 0 -13 -1 -13 -10 0 -5 8 -10
38 -10 65 1 50 1 50 53 82 28 17 53 30 55 28 2 -2 -17 -38 -42 -81z m1728 -99
l41 -120 -1 -150 c0 -105 -5 -163 -16 -195 l-15 -45 -18 40 c-15 32 -19 70
-21 195 -1 85 -7 169 -13 185 -10 26 -10 24 -5 -20 7 -56 6 -286 0 -293 -3 -2
-25 24 -50 58 -34 46 -55 90 -81 173 -19 61 -35 116 -35 123 0 15 79 140 124
198 l31 38 9 -33 c5 -19 27 -88 50 -154z m-1572 159 c65 -15 108 -40 108 -64
0 -6 -9 -6 -22 -1 -13 4 -48 11 -78 14 l-55 5 54 -13 c77 -19 100 -34 123 -79
25 -49 50 -118 44 -123 -7 -8 -82 35 -114 65 -26 24 -34 27 -43 16 -18 -22
-34 -17 -46 14 l-11 27 -1 -27 c-1 -22 -12 -33 -67 -63 -36 -20 -68 -35 -70
-32 -3 2 11 37 30 77 19 40 38 97 42 128 10 84 2 80 106 56z m215 -20 c40 -11
63 -26 95 -61 24 -26 64 -70 91 -98 26 -27 53 -65 59 -82 7 -18 15 -33 19 -33
4 0 9 -7 13 -15 4 -12 -7 -14 -72 -11 -42 2 -85 7 -95 11 -20 8 -46 56 -67
123 -19 61 -24 44 -6 -19 25 -85 50 -119 88 -120 30 -2 30 -2 6 -6 -64 -10
-115 43 -173 182 -20 50 -44 105 -52 124 l-14 33 28 -6 c15 -4 51 -13 80 -22z
m-342 -71 c-9 -32 -28 -76 -40 -98 -20 -33 -25 -36 -31 -21 -7 17 73 192 83
182 3 -2 -3 -31 -12 -63z m2265 12 c0 -41 -5 -50 -67 -116 -93 -98 -96 -67 -8
62 37 55 69 99 71 99 2 0 4 -20 4 -45z m1928 23 c21 -21 13 -35 -35 -67 -80
-53 -99 -33 -35 37 42 45 51 49 70 30z m-4298 -103 c11 -88 11 -110 -1 -131
l-13 -25 -9 23 c-5 13 -17 55 -27 93 -11 39 -22 79 -25 90 -4 15 2 25 22 37
15 10 31 18 34 18 3 0 12 -47 19 -105z m3530 81 c0 -2 -8 -10 -17 -17 -16 -13
-17 -12 -4 4 13 16 21 21 21 13z m-601 -33 c-17 -46 -29 -53 -83 -53 l-51 0
65 39 c36 22 68 40 72 40 4 1 3 -11 -3 -26z m250 -29 l-11 -29 -10 28 c-8 23
-7 31 8 42 24 18 30 1 13 -41z m-3289 9 c-5 -16 -14 -63 -19 -105 -13 -95 -87
-290 -149 -389 -24 -39 -96 -110 -130 -128 -18 -9 -23 -8 -32 8 -17 32 -23
106 -11 129 6 11 47 46 92 77 52 37 91 73 110 103 40 63 37 75 -4 16 -22 -32
-62 -67 -113 -101 -43 -29 -84 -63 -91 -75 -15 -28 -16 -81 -2 -131 10 -38 1
-67 -22 -67 -18 0 -9 147 12 216 40 133 70 166 193 214 55 22 97 63 96 95 -1
6 -7 -2 -16 -17 -13 -26 -60 -58 -83 -58 -5 0 -12 12 -14 28 -3 22 -4 21 -3
-6 1 -30 -4 -35 -43 -53 -24 -11 -45 -18 -47 -17 -7 8 72 128 104 156 33 30
171 132 178 132 2 0 -1 -12 -6 -27z m4474 -32 c4 -14 2 -39 -4 -56 -9 -26 -9
-25 -4 15 4 35 2 42 -7 33 -11 -11 -15 -59 -29 -318 -3 -70 -61 156 -60 236 1
42 22 104 46 130 16 18 19 18 35 3 10 -9 20 -28 23 -43z m-4429 -59 c8 -56 15
-122 15 -147 l0 -45 -51 0 c-45 0 -50 2 -44 18 16 39 25 79 35 156 12 89 21
129 26 123 2 -1 10 -49 19 -105z m3208 66 c15 -10 -32 -198 -57 -226 -12 -13
-33 -32 -47 -43 l-27 -19 24 77 c23 76 20 90 -6 23 -8 -19 -44 -87 -80 -150
-37 -63 -86 -151 -109 -195 -23 -44 -51 -91 -61 -104 l-18 -25 -12 58 -12 58
35 29 c39 32 77 102 77 141 0 14 13 43 28 64 30 42 61 96 45 79 -33 -35 -83
-116 -83 -136 -1 -37 -34 -103 -65 -127 -33 -26 -40 -23 -55 23 l-12 35 72 68
c39 37 93 98 118 137 38 56 59 77 112 107 42 24 67 33 71 26 4 -6 17 10 29 36
12 27 19 50 17 52 -2 3 -10 -9 -17 -26 -10 -24 -30 -40 -83 -66 -39 -20 -68
-30 -65 -22 3 7 8 24 12 38 l6 25 -12 -25 c-16 -35 -110 -181 -114 -177 -8 7
47 201 58 209 7 4 22 8 33 8 12 0 57 17 100 39 50 23 82 34 84 27 2 -6 9 -14
14 -18z m-2315 -2 c15 -8 53 -23 85 -34 62 -22 120 -59 112 -72 -2 -4 -25 -13
-49 -19 -25 -6 -49 -19 -55 -28 -8 -16 -14 -13 -50 25 -52 54 -98 142 -76 142
4 0 18 -6 33 -14z m1530 -43 c-11 -78 -82 -277 -86 -243 -1 14 -10 55 -18 92
l-16 67 64 71 c34 38 63 70 64 70 1 0 -3 -26 -8 -57z m1901 12 c-7 -26 -9 -83
-4 -160 4 -79 3 -117 -3 -110 -36 37 -122 150 -122 161 0 23 68 111 103 133
17 11 33 19 34 17 1 -1 -2 -20 -8 -41z m-549 -12 c46 -41 89 -107 78 -119 -6
-5 -79 45 -115 79 -18 17 -33 26 -33 20 0 -6 31 -35 69 -64 62 -47 73 -61 110
-138 41 -87 91 -216 91 -233 0 -5 -31 19 -70 53 -52 47 -70 70 -70 89 0 14 -5
32 -10 40 -8 11 -9 8 -4 -12 8 -34 -5 -36 -33 -5 -27 29 -112 207 -129 269
-12 47 -12 50 9 58 39 16 54 11 107 -37z m-125 -45 c10 -40 29 -95 42 -121 13
-27 23 -51 20 -53 -2 -2 -25 21 -52 52 -46 54 -50 56 -87 51 -21 -3 -38 -3
-38 -1 0 2 9 28 21 59 18 48 48 85 70 85 4 0 15 -33 24 -72z m432 -38 c2 -8
-7 -1 -22 15 l-26 30 16 -38 16 -38 -40 -51 -41 -50 -10 26 c-13 35 -29 172
-23 196 5 18 11 15 66 -28 33 -26 62 -54 64 -62z m127 51 c-22 -33 -29 -39
-41 -29 -12 9 -8 18 24 50 45 47 55 35 17 -21z m241 1 c-17 -16 -17 -16 -11 8
3 14 6 32 7 40 0 9 5 6 11 -8 9 -19 8 -26 -7 -40z m-4025 -31 c51 -28 53 -31
25 -31 -33 0 -96 28 -135 58 -21 17 -22 22 -10 36 12 15 15 15 39 -8 14 -14
51 -39 81 -55z m3101 -8 c-21 -43 -54 -98 -72 -123 -18 -25 -43 -66 -56 -91
-13 -25 -34 -56 -48 -69 -27 -26 -33 -17 -10 14 8 11 15 24 15 29 0 6 -13 -9
-30 -31 -18 -26 -40 -44 -57 -47 -16 -3 -50 -12 -77 -20 -28 -8 -52 -12 -54
-10 -6 6 42 118 74 173 17 29 48 57 92 86 37 24 83 60 102 81 33 35 119 85
148 85 7 0 -3 -29 -27 -77z m-3271 37 c-8 -16 -17 -19 -33 -14 -19 6 -20 5 -8
-9 11 -14 10 -21 -8 -45 -11 -16 -27 -35 -36 -42 -13 -10 -15 -9 -16 6 0 11
-4 7 -10 -11 -14 -49 -100 -89 -96 -46 0 11 4 18 8 16 10 -7 37 28 44 58 6 21
25 38 83 72 42 24 78 42 80 40 2 -2 -2 -13 -8 -25z m2690 5 c0 -26 -42 -169
-60 -205 -18 -35 -101 -120 -118 -120 -4 0 -21 37 -36 81 l-27 82 25 51 c44
89 63 104 136 115 36 4 68 9 73 10 4 0 7 -6 7 -14z m-2605 -40 l30 -25 -35 6
c-69 13 -82 22 -70 44 12 23 23 19 75 -25z m507 -2 c35 -25 67 -50 73 -55 5
-4 -16 -8 -46 -8 l-54 0 -23 48 c-36 77 -34 78 50 15z m855 -159 c-2 -2 -22
21 -45 51 -44 56 -51 85 -30 131 12 26 14 22 45 -76 18 -57 31 -105 30 -106z
m2801 166 c-2 -4 -22 -23 -44 -43 l-42 -37 2 40 c1 21 6 43 10 47 5 5 5 -2 2
-14 -11 -34 -1 -28 24 14 21 36 23 37 36 18 8 -10 13 -22 12 -25z m-2926 -93
c10 -20 -7 -117 -21 -117 -9 0 -91 192 -91 213 0 16 96 -66 112 -96z m1157 57
c-17 -27 -29 -41 -25 -31 3 10 6 29 6 41 0 19 37 51 48 41 2 -2 -11 -25 -29
-51z m-435 -30 c25 -93 21 -145 -16 -212 -17 -31 -33 -59 -35 -61 -6 -8 -15 9
-39 74 l-24 67 40 94 c22 52 40 99 40 106 0 26 18 -10 34 -68z m-2018 41 c20
-8 79 -18 132 -21 124 -8 144 -19 50 -27 -41 -4 -91 -13 -111 -22 -36 -15 -37
-14 -37 5 0 11 -4 20 -10 20 -5 0 -9 -3 -9 -7 5 -33 -13 -47 -82 -62 -35 -7
-40 -7 -26 2 40 26 51 37 20 22 -38 -18 -43 -18 -43 -5 0 9 70 108 78 109 1 1
19 -6 38 -14z m850 -26 l15 -30 -63 7 c-68 7 -78 10 -78 24 0 10 91 39 103 33
4 -2 14 -18 23 -34z m1559 -16 l-8 -48 -12 40 c-11 34 -11 42 3 52 22 18 25
10 17 -44z m1561 -85 c47 -50 61 -72 57 -87 -3 -12 -7 -21 -9 -21 -3 0 -30 20
-61 45 -53 41 -58 48 -70 105 -6 33 -15 71 -18 83 -3 12 4 4 16 -18 12 -22 50
-70 85 -107z m248 52 c-21 -28 -49 -57 -61 -66 -23 -14 -23 -14 -23 24 0 34 6
45 46 82 42 38 48 41 62 27 14 -14 11 -21 -24 -67z m-4416 40 c-8 -25 -28 -51
-28 -37 0 15 24 67 30 67 5 0 4 -14 -2 -30z m2565 -7 c3 -16 2 -32 -2 -38 -4
-5 -15 -31 -25 -57 -14 -39 -124 -208 -158 -243 -6 -7 -20 2 -39 25 -17 19
-28 30 -25 23 6 -11 -33 -47 -41 -39 -2 2 2 24 9 50 16 62 124 205 197 262 31
24 61 44 67 44 7 0 14 -12 17 -27z m979 -20 c30 -33 62 -82 57 -87 -2 -2 -59
-19 -126 -38 l-123 -35 62 66 c34 36 73 74 87 83 14 10 20 18 14 18 -7 0 -47
-32 -88 -71 -41 -39 -75 -68 -75 -64 0 17 86 128 109 140 38 21 54 18 83 -12z
m483 -24 c4 -22 18 -75 31 -117 13 -42 24 -86 24 -98 0 -11 -17 -49 -39 -84
-42 -70 -68 -91 -57 -45 4 15 3 24 -2 21 -5 -3 -17 22 -27 54 -21 69 -18 81
39 148 20 24 36 49 36 55 0 7 -9 -2 -19 -19 -34 -55 -44 -53 -36 7 10 77 25
130 35 124 4 -3 11 -23 15 -46z m-3569 10 c32 -6 63 -15 69 -20 13 -13 55
-131 49 -141 -3 -4 -30 -8 -60 -8 -68 0 -76 14 -45 79 l22 46 -27 -34 -27 -33
-18 43 c-22 55 -26 20 -4 -41 24 -68 21 -75 -21 -51 -19 12 -32 17 -29 11 3
-5 2 -10 -3 -10 -6 0 -29 24 -53 53 -57 70 -64 76 -50 49 7 -12 31 -46 55 -76
l44 -53 -37 13 c-20 7 -46 13 -58 14 -20 0 -23 5 -23 44 0 24 -3 51 -6 59 -4
11 7 19 38 31 37 13 101 32 119 35 3 1 32 -4 65 -10z m1193 -143 c86 -114 121
-181 121 -233 0 -34 -27 -93 -42 -93 -31 0 -169 163 -214 251 -33 66 -32 89
12 208 7 20 13 13 123 -133z m2314 67 c-20 -104 -28 -117 -42 -67 -6 21 -11
45 -11 53 0 11 56 91 65 91 1 0 -4 -35 -12 -77z m-3214 31 c12 -20 20 -38 18
-41 -7 -7 -139 45 -156 61 -14 15 -9 16 51 16 65 0 66 0 87 -36z m146 7 c3
-10 23 -46 45 -79 l39 -61 -45 14 c-25 7 -56 20 -68 29 -24 15 -96 98 -96 110
0 3 27 6 59 6 50 0 61 -3 66 -19z m1639 -101 c-20 -41 -54 -120 -75 -175 -52
-140 -71 -178 -81 -163 -12 19 -10 137 3 151 42 49 158 230 169 267 12 38 15
41 18 20 2 -15 -12 -57 -34 -100z m-2464 100 c0 -5 -7 -10 -16 -10 -8 0 -12 5
-9 10 3 6 10 10 16 10 5 0 9 -4 9 -10z m552 -18 c29 -16 63 -31 76 -34 12 -3
22 -11 22 -16 0 -14 -118 23 -141 44 -17 15 -25 34 -15 34 2 0 28 -13 58 -28z
m512 3 c110 -21 169 -50 224 -110 46 -50 86 -115 76 -124 -7 -8 -173 31 -184
44 -5 6 -14 36 -19 66 l-10 54 3 -61 4 -61 -42 10 c-55 13 -64 22 -80 76 -16
51 -22 36 -7 -17 16 -53 -7 -35 -72 56 -32 45 -63 82 -68 82 -12 0 -9 -5 43
-79 41 -59 45 -71 24 -71 -18 0 -116 130 -116 155 0 8 141 -4 224 -20z m-1236
-11 c31 -9 28 -28 -10 -68 -33 -34 -118 -74 -118 -56 0 19 42 115 53 122 14 9
44 10 75 2z m332 -45 c0 -48 -1 -51 -22 -45 -13 3 -35 6 -50 6 -28 0 -28 0 -9
19 11 11 27 31 36 45 28 43 45 33 45 -25z m355 21 c8 -16 15 -37 15 -47 -1
-14 -4 -13 -14 7 -17 32 -29 70 -22 70 3 0 12 -13 21 -30z m-481 -41 c-27 -28
-57 -55 -68 -61 -17 -9 -18 -7 -11 34 4 23 11 47 15 52 10 10 103 36 109 30 3
-3 -17 -27 -45 -55z m2917 -54 c-45 -91 -59 -111 -109 -150 -31 -25 -58 -41
-60 -36 -4 11 24 68 80 164 26 44 56 80 86 102 26 18 49 32 51 30 2 -2 -20
-52 -48 -110z m-3062 78 c1 10 9 17 21 17 26 0 17 -21 -20 -49 -31 -23 -35
-17 -23 28 6 23 7 23 14 5 7 -16 8 -17 8 -1z m767 -36 c4 -4 -18 -7 -50 -7
-51 0 -57 2 -66 26 -6 14 -10 27 -10 28 0 5 118 -39 126 -47z m2912 11 c3 -41
-14 -53 -21 -15 -4 19 -4 19 -6 -5 -1 -22 -8 -29 -38 -37 -54 -15 -63 -14 -64
12 l-2 22 -4 -23 c-3 -15 -10 -22 -18 -18 -8 3 -15 1 -17 -5 -3 -8 -158 -39
-198 -39 -29 0 78 58 171 93 147 54 153 56 174 54 15 -2 21 -10 23 -39z m542
-27 c0 -4 -11 -13 -25 -19 -23 -11 -27 -9 -35 14 -6 13 -13 37 -17 52 l-6 26
41 -33 c23 -18 42 -36 42 -40z m-2060 -31 c26 -79 26 -84 13 -138 -25 -98 -21
-214 11 -320 l28 -92 -28 -47 c-50 -87 -213 -243 -253 -243 -13 0 -28 52 -35
122 -14 132 45 532 93 630 23 48 130 183 138 174 3 -3 18 -42 33 -86z m512 17
c11 -36 10 -39 -23 -73 -19 -20 -55 -54 -81 -76 l-48 -40 16 39 c9 21 20 42
25 48 5 5 9 16 9 24 0 8 14 46 32 84 29 63 33 67 45 51 8 -10 19 -36 25 -57z
m-1867 53 c4 -6 11 -8 16 -5 5 4 17 1 26 -4 15 -9 13 -10 -13 -11 -16 0 -39 7
-50 15 -17 13 -17 14 -2 15 9 0 20 -5 23 -10z m-768 -52 c-5 -41 -33 -76 -48
-61 -20 21 -13 54 16 78 17 13 32 24 33 25 2 0 2 -19 -1 -42z m3673 21 c0 -5
-4 -9 -10 -9 -5 0 -10 7 -10 16 0 8 5 12 10 9 6 -3 10 -10 10 -16z m617 -36
c19 -46 13 -49 -22 -13 -17 18 -25 35 -21 45 8 22 25 9 43 -32z m-4127 7 c0
-15 -25 -54 -83 -128 -27 -35 -47 -66 -44 -68 7 -8 95 103 118 148 l20 39 25
-31 c24 -28 46 -40 43 -22 -5 28 3 62 14 62 7 0 37 -7 66 -16 l54 -16 -39 -39
-39 -40 -17 22 c-18 21 -18 21 -12 -9 7 -37 0 -42 -137 -86 -113 -37 -109 -39
-109 65 l0 69 47 30 c47 30 93 39 93 20z m60 -11 c20 -36 6 -41 -25 -9 -27 28
-28 30 -7 30 12 0 26 -9 32 -21z m175 11 c3 -5 2 -10 -4 -10 -5 0 -13 5 -16
10 -3 6 -2 10 4 10 5 0 13 -4 16 -10z m419 -62 c20 -40 45 -89 55 -108 19 -33
55 -179 47 -187 -10 -10 -160 169 -186 222 -32 65 -35 68 -20 16 l9 -34 -26
24 c-25 23 -62 92 -63 116 0 15 22 20 91 22 l57 1 36 -72z m2964 -12 l42 -40
0 -81 c-1 -75 -2 -79 -17 -60 l-16 20 8 -20 c19 -51 26 -87 20 -105 -4 -11 -9
-18 -13 -16 -4 2 -5 -20 -4 -50 2 -30 1 -67 -3 -82 -6 -24 -11 -18 -40 58 -38
98 -51 142 -37 122 7 -11 11 -8 16 13 4 14 4 30 1 35 -4 6 -2 10 4 10 5 0 12
14 16 30 4 17 10 30 14 30 5 0 6 12 3 28 l-6 27 -8 -33 c-5 -19 -22 -54 -37
-79 l-28 -45 -17 67 c-9 37 -20 103 -23 148 -5 70 -4 82 12 93 21 15 22 14
113 -70z m428 73 c8 -13 -15 -129 -26 -129 -4 0 -10 8 -13 18 -3 9 -12 34 -21
54 -16 37 -16 37 11 52 34 18 40 19 49 5z m-4278 -73 c-72 -35 -77 -36 -81
-13 -3 18 -5 17 -6 -6 -1 -25 -9 -32 -66 -58 -35 -16 -67 -29 -70 -29 -4 0 15
27 41 60 34 44 63 68 108 90 l61 31 8 -37 c4 -20 6 -38 5 -38z m926 68 c18 -7
23 -88 6 -99 -8 -5 -60 82 -60 100 0 7 35 6 54 -1z m-229 -62 c20 -44 21 -51
7 -43 -29 16 -102 82 -102 92 0 6 16 9 35 7 32 -3 38 -8 60 -56z m3014 21 c0
-21 -4 -56 -8 -78 -8 -35 -9 -31 -10 38 -1 45 3 77 9 77 6 0 10 -17 9 -37z
m651 -96 c0 -39 3 -83 6 -97 4 -21 -2 -17 -41 25 -25 28 -48 60 -51 72 -3 12
2 48 11 80 l17 58 29 -33 c26 -29 29 -39 29 -105z m-3687 37 c135 -115 327
-312 327 -338 0 -21 -64 32 -95 78 -34 51 -72 83 -142 120 -50 25 -39 10 17
-25 47 -29 120 -103 120 -121 0 -13 -30 -9 -92 10 -61 19 -101 49 -124 94 -8
15 -25 39 -39 54 -39 42 -118 183 -111 199 10 28 37 15 139 -71z m2997 29 l0
-58 -40 45 c-21 25 -39 41 -40 36 0 -5 21 -33 46 -62 45 -53 64 -96 64 -144
l0 -25 -29 30 c-27 27 -107 192 -98 202 2 2 24 10 48 17 24 8 45 14 47 15 1 1
2 -25 2 -56z m-2612 16 l72 -23 0 -63 c0 -35 -2 -63 -5 -63 -3 0 -12 15 -20
33 -8 17 -14 26 -15 19 0 -7 9 -35 21 -61 14 -34 19 -64 17 -104 l-3 -55 -60
68 c-77 89 -105 148 -105 224 0 42 3 57 13 53 6 -2 45 -15 85 -28z m-554 12
c12 -19 -7 -41 -50 -57 -24 -9 -46 -15 -49 -12 -2 2 9 21 26 41 29 35 61 48
73 28z m1829 -33 c-3 -16 -9 -28 -14 -28 -12 0 -11 4 3 35 14 31 18 29 11 -7z
m427 -64 c0 -7 -30 -24 -67 -39 -38 -16 -87 -36 -111 -46 -41 -17 -42 -17 -32
1 5 10 47 52 92 94 l83 77 17 -38 c10 -21 18 -43 18 -49z m497 80 c-3 -3 -12
-4 -19 -1 -8 3 -5 6 6 6 11 1 17 -2 13 -5z m326 -62 c15 -37 27 -71 27 -75 0
-3 -27 11 -61 33 -33 21 -77 44 -97 51 -20 6 -43 16 -51 22 -11 10 13 -34 101
-180 24 -39 16 -42 -26 -10 -35 27 -76 50 -76 43 0 -2 16 -14 36 -26 19 -12
33 -24 31 -26 -6 -7 -95 33 -131 58 -23 17 -27 18 -17 5 20 -25 87 -62 148
-81 69 -23 79 -46 15 -35 -26 4 -81 12 -123 18 -99 13 -132 28 -119 52 19 35
9 30 -23 -13 -27 -35 -184 -147 -207 -148 -5 0 -6 24 -1 68 0 8 27 41 59 75
32 34 76 84 97 110 21 27 52 55 68 64 35 18 235 61 288 62 35 1 36 0 62 -67z
m601 -4 c-3 -10 -1 -18 5 -18 13 0 43 -57 33 -63 -4 -3 -29 -8 -57 -12 -27 -4
-58 -9 -67 -11 -25 -7 -17 20 26 91 20 33 36 67 37 75 0 8 7 2 14 -15 8 -16
12 -38 9 -47z m-4125 10 l0 -53 -16 38 c-15 37 -12 67 7 67 6 0 10 -23 9 -52z
m3151 46 c0 -5 -47 -26 -87 -38 -14 -4 -23 -3 -23 3 0 5 21 16 48 24 56 18 62
19 62 11z m1197 -139 c4 -76 3 -79 -11 -53 -9 15 -18 62 -21 115 -5 87 -5 88
11 53 9 -19 18 -71 21 -115z m-4373 42 c25 -66 32 -132 17 -171 -6 -15 -12 -7
-29 39 -12 31 -22 67 -22 78 -1 12 -12 -12 -25 -53 -27 -82 -94 -220 -107
-220 -9 0 -7 18 22 175 10 55 22 123 25 151 6 48 9 53 43 66 20 8 40 12 43 9
3 -3 18 -36 33 -74z m501 53 c18 -34 11 -37 -27 -12 -22 14 -25 21 -16 30 18
18 26 15 43 -18z m679 14 c33 -9 67 -20 73 -26 23 -18 65 -170 58 -207 l-6
-33 -22 19 c-45 41 -51 36 -15 -13 43 -59 113 -203 124 -254 l6 -34 -23 17
c-13 10 -50 34 -81 55 -51 33 -59 43 -73 92 -9 30 -28 75 -41 100 -26 47 -26
46 13 -63 30 -85 26 -102 -15 -59 -49 52 -60 99 -65 270 -2 83 -2 152 1 152 2
0 32 -7 66 -16z m1206 -23 c5 -11 10 -61 10 -111 0 -97 -6 -113 -78 -203 l-30
-38 -18 53 c-22 62 -25 195 -6 248 9 25 22 40 50 52 50 22 59 21 72 -1z
m-1919 -13 c22 -12 39 -25 39 -30 0 -4 -18 -17 -40 -28 l-40 -20 -42 37 -43
37 38 -41 c40 -42 37 -53 -15 -53 -25 0 -78 31 -78 46 0 23 69 60 139 73 2 1
21 -9 42 -21z m2972 1 c61 -31 168 -112 216 -164 22 -24 41 -47 41 -49 0 -3
-8 -10 -19 -15 -15 -9 -24 -2 -56 44 -21 30 -39 55 -42 55 -5 0 -3 -4 39 -69
47 -74 38 -85 -41 -50 -39 16 -52 29 -67 62 -11 23 -30 57 -43 77 -37 54 -81
130 -75 130 2 0 24 -10 47 -21z m-2067 -15 c27 -9 51 -18 53 -20 5 -4 -70
-114 -78 -114 -7 0 -51 122 -51 139 0 15 18 14 76 -5z m1726 -31 c-22 -27 -52
-59 -66 -72 -24 -23 -26 -23 -26 -5 0 11 4 24 10 30 6 6 5 15 -1 24 -9 13 -10
12 -5 -2 3 -10 1 -18 -4 -18 -4 0 -14 -17 -20 -37 -19 -59 -34 -66 -26 -13 9
66 62 108 174 139 2 1 -14 -20 -36 -46z m843 -56 c21 -38 28 -67 32 -130 l5
-82 -52 70 c-50 67 -52 72 -48 122 3 29 1 50 -4 47 -4 -3 -8 14 -8 38 l0 43
25 -30 c13 -16 36 -52 50 -78z m-4075 61 c-1 -18 -13 -90 -28 -160 -24 -111
-29 -125 -40 -108 -6 11 -12 27 -12 35 0 8 -5 15 -11 15 -12 0 -5 -29 18 -74
23 -45 28 -126 9 -166 l-16 -35 4 45 c3 25 -1 74 -8 110 -13 65 -13 65 -8 -51
5 -113 4 -118 -20 -150 -14 -19 -38 -58 -53 -87 -14 -30 -29 -51 -32 -48 -3 3
0 47 7 98 7 51 10 102 7 113 -3 12 -5 5 -6 -18 -1 -49 -31 -180 -39 -172 -3 3
-7 68 -9 145 -3 134 -2 140 20 162 32 32 74 106 81 143 5 25 4 24 -8 -7 -16
-41 -69 -123 -87 -134 -8 -4 -9 4 -4 27 11 50 39 100 75 134 18 17 52 57 77
90 l45 60 -81 -82 c-77 -77 -82 -80 -77 -50 4 18 -9 -8 -27 -57 l-34 -90 -6
40 c-17 98 -11 121 44 179 39 41 67 60 120 81 39 15 72 31 75 36 12 19 24 6
24 -24z m2885 -60 c6 -41 3 -55 -21 -96 l-28 -47 -11 65 c-6 36 -16 74 -24 85
l-13 20 8 -20 c4 -11 9 -54 11 -95 4 -72 3 -77 -32 -133 -21 -32 -40 -55 -44
-52 -3 4 -9 46 -12 93 -6 76 -6 72 -3 -28 3 -106 2 -113 -13 -95 -30 39 -55
108 -63 174 l-7 66 -2 -60 c0 -47 7 -78 34 -144 l34 -83 -24 -85 c-14 -47 -25
-91 -25 -99 0 -31 -51 -172 -69 -188 -17 -16 -19 -15 -24 12 -4 20 5 61 28
126 19 53 35 105 34 114 0 14 -2 14 -6 2 -3 -8 -19 -48 -36 -89 -38 -92 -42
-84 -53 100 l-9 134 -5 -108 -5 -107 -40 59 c-22 32 -41 58 -43 56 -2 -2 17
-42 42 -90 40 -76 46 -95 46 -149 0 -35 -9 -98 -20 -141 -18 -72 -123 -319
-187 -440 -14 -27 -49 -92 -76 -144 -27 -52 -63 -133 -79 -180 -49 -143 -109
-403 -120 -516 -3 -26 -6 -30 -31 -27 -15 2 -34 -1 -41 -7 -11 -9 -17 22 -31
161 -31 296 -13 636 51 977 8 46 24 101 35 122 11 22 72 85 145 150 146 131
203 197 269 317 86 155 183 306 218 340 44 43 218 126 228 110 4 -7 11 -34 14
-60z m-2520 15 c-41 -72 -58 -86 -115 -93 l-50 -6 0 42 c0 50 9 58 105 85 89
26 91 25 60 -28z m1341 -45 c67 -72 111 -173 124 -283 17 -154 7 -454 -16
-462 -11 -4 -137 174 -172 242 -11 22 -30 74 -42 115 -12 41 -44 119 -71 172
-27 54 -49 111 -49 127 0 19 19 57 51 105 l52 76 39 -22 c22 -13 60 -44 84
-70z m-999 25 c59 -85 58 -82 16 -72 -21 4 -39 6 -41 4 -4 -4 64 -35 77 -35
11 0 66 -48 61 -53 -10 -11 -123 42 -201 94 -43 29 -77 55 -74 57 11 12 101
61 111 61 6 1 29 -25 51 -56z m-241 -10 c-9 -9 -96 -32 -96 -25 0 4 9 22 20
40 l20 33 30 -23 c16 -12 28 -23 26 -25z m3898 5 c25 -35 19 -39 -26 -18 -24
11 -52 20 -63 20 l-20 1 20 9 c37 16 73 11 89 -12z m-1292 -33 c-3 -35 -11
-50 -34 -70 -16 -14 -25 -25 -20 -25 5 0 15 7 22 15 7 8 17 15 22 15 17 0 -3
-63 -58 -181 -30 -65 -54 -121 -54 -126 0 -11 -14 -18 -115 -63 -38 -17 -82
-43 -97 -57 l-27 -26 6 39 c3 22 15 46 27 56 11 10 17 18 12 18 -4 0 9 21 30
48 l37 47 -42 -40 -42 -40 20 52 c41 104 164 272 249 339 32 24 59 44 62 44 3
0 4 -20 2 -45z m-1910 -52 c63 -74 118 -156 118 -178 0 -15 -34 -1 -66 28 -49
42 -98 120 -117 185 -9 29 -15 52 -13 52 1 0 36 -39 78 -87z m2677 13 c1 -6
-6 -1 -14 10 -8 10 -14 30 -14 44 0 22 2 21 14 -10 7 -19 14 -39 14 -44z m469
50 c27 -9 38 -19 40 -37 2 -13 14 -68 28 -121 13 -53 24 -100 24 -104 0 -4
-12 3 -26 17 -39 36 -67 97 -75 159 l-6 55 -2 -53 c-1 -63 22 -114 81 -178
l41 -44 -40 -47 c-55 -65 -66 -67 -58 -7 4 33 3 44 -3 35 -8 -11 -11 -9 -17 8
-4 13 -9 21 -11 18 -3 -2 0 -17 6 -32 8 -22 7 -39 -6 -78 l-17 -51 -18 37
c-48 93 -65 266 -33 330 l17 32 -21 -19 c-23 -20 -20 -25 -38 62 -3 13 -2 28
2 33 7 12 75 4 132 -15z m-4178 -113 c0 -19 -104 -172 -128 -187 -16 -9 -20
40 -6 72 6 16 24 38 38 48 15 11 37 27 49 37 17 15 14 14 -15 -2 l-36 -21 31
88 31 89 18 -51 c9 -28 17 -61 18 -73z m471 68 l46 -37 -24 -17 c-32 -25 -29
-47 12 -87 39 -38 40 -45 2 -31 -26 10 -51 44 -114 155 -25 44 -31 61 -21 67
15 9 39 -3 99 -50z m-101 -11 c38 -98 39 -94 -19 -86 -83 11 -85 13 -51 52 41
48 38 53 -8 12 -55 -50 -119 -91 -182 -117 -30 -13 -70 -31 -87 -42 -18 -10
-33 -17 -33 -15 0 16 71 85 145 142 82 62 169 106 204 101 7 -1 21 -22 31 -47z
m3916 -95 c24 -100 27 -142 8 -123 -7 8 -63 209 -64 230 0 11 5 15 14 12 9 -3
26 -51 42 -119z m-1066 105 c12 -8 9 -10 -13 -10 -16 0 -26 4 -22 10 8 12 16
12 35 0z m-3637 -117 c2 -60 10 -147 17 -195 6 -48 10 -96 7 -105 -7 -30 -28
33 -42 127 -8 53 -13 70 -13 45 0 -22 3 -63 7 -92 6 -46 5 -51 -8 -40 -27 23
-71 101 -71 128 0 57 69 239 91 239 4 0 9 -48 12 -107z m534 72 c-25 -19 -48
-35 -51 -35 -3 0 -6 11 -6 25 0 28 25 43 74 44 28 1 28 1 -17 -34z m3853 -123
c12 -22 20 -49 18 -59 -2 -14 -12 -8 -47 27 -49 51 -45 39 16 -40 22 -30 55
-82 71 -115 30 -57 30 -60 14 -88 -30 -52 -38 -52 -67 -2 -16 26 -24 52 -21
62 13 32 -14 82 -54 103 -46 23 -51 45 -40 155 5 44 9 86 9 94 1 17 70 -77
101 -137z m-605 101 c28 -15 77 -36 110 -47 52 -18 63 -27 84 -65 l24 -43 -24
12 c-13 7 -39 24 -57 38 -18 14 -35 23 -37 20 -3 -2 27 -28 65 -57 39 -30 70
-57 70 -62 0 -27 -88 12 -159 69 -39 31 -42 37 -25 43 15 6 11 8 -14 8 -18 1
-45 8 -60 17 l-27 16 23 -20 c13 -12 18 -23 12 -27 -12 -7 -77 4 -104 17 -13
7 -16 7 -12 -1 10 -16 86 -33 119 -27 24 5 37 -1 72 -32 24 -21 61 -47 84 -57
l40 -20 -67 -16 c-37 -9 -100 -29 -141 -43 -40 -15 -88 -26 -105 -24 l-31 3
34 18 c24 13 44 17 70 13 26 -5 32 -4 21 3 -27 19 -71 12 -117 -19 -44 -30
-90 -43 -65 -18 25 25 11 31 -15 6 -25 -24 -87 -48 -121 -48 -19 0 3 29 56 73
28 24 60 39 97 47 30 6 57 15 60 19 7 13 -117 -19 -145 -36 -14 -9 -61 -53
-105 -98 -44 -46 -101 -97 -127 -114 l-46 -31 23 73 c37 119 41 124 77 132 44
9 130 36 126 40 -2 2 -34 -3 -72 -11 -38 -8 -71 -12 -73 -10 -2 2 3 20 11 40
15 35 16 36 69 36 60 0 144 22 198 52 31 17 40 18 60 7 42 -22 230 -78 219
-64 -5 6 -45 22 -88 34 -42 12 -96 29 -120 38 -30 10 -46 12 -55 5 -43 -36
-257 -80 -257 -53 0 27 178 156 244 177 71 22 145 17 201 -13z m114 -1 c19 -9
41 -28 50 -41 15 -23 15 -24 -4 -13 -11 5 -47 20 -80 31 -32 11 -63 25 -69 31
-17 17 66 11 103 -8z m258 -19 c11 -21 24 -48 28 -61 6 -21 3 -20 -44 13 -56
40 -59 46 -35 69 22 23 28 20 51 -21z m-2917 1 c30 -9 56 -17 57 -18 1 -1 14
-27 27 -58 l25 -56 -30 8 c-38 11 -75 41 -121 97 -41 48 -45 58 -25 49 6 -2
37 -12 67 -22z m-174 -10 c47 -15 83 -29 80 -32 -4 -4 -86 8 -166 24 -17 4
-22 2 -15 -5 6 -5 54 -15 108 -22 89 -12 100 -16 129 -46 l32 -33 -45 -2
c-128 -6 -186 11 -239 68 -44 48 -48 60 -22 67 35 9 56 6 138 -19z m-295 -15
c58 -9 79 -17 92 -36 18 -23 18 -23 -15 -23 -29 0 -167 24 -208 37 -11 3 -9 9
10 23 14 11 30 18 36 16 6 -2 44 -10 85 -17z m3285 -20 c41 -17 74 -36 74 -42
0 -6 14 -26 32 -44 18 -18 27 -33 20 -33 -6 0 -17 6 -24 13 -7 8 -19 12 -28
10 -9 -2 -32 7 -53 21 -20 14 -37 21 -37 16 0 -11 29 -40 40 -40 5 0 34 -9 65
-21 l55 -20 0 -103 c0 -112 16 -182 53 -237 23 -34 44 -91 27 -73 -44 47 -94
141 -125 235 -34 100 -76 175 -129 229 -16 16 -59 120 -50 120 3 0 39 -14 80
-31z m-2701 1 c3 -5 15 -10 27 -10 11 0 38 -16 59 -35 l39 -35 -55 0 c-54 0
-55 1 -75 40 -11 21 -20 42 -20 45 0 9 19 5 25 -5z m-671 -36 c25 -4 46 -10
46 -13 0 -4 -36 -12 -80 -19 -43 -6 -127 -28 -185 -48 -58 -20 -108 -34 -111
-31 -15 15 203 117 252 117 17 0 52 -3 78 -6z m3512 -53 c22 -31 12 -25 -27
16 -22 24 -26 31 -11 20 13 -8 30 -25 38 -36z m-3221 -5 c37 -11 27 -13 -118
-18 -87 -3 -163 -10 -168 -15 -5 -5 23 -6 69 -1 42 3 93 7 111 7 l35 1 -34
-35 c-19 -20 -45 -38 -57 -41 -13 -4 -20 -10 -17 -15 10 -16 24 -10 69 32 l44
40 210 4 210 4 35 -37 c20 -20 34 -37 33 -38 -5 -6 -92 28 -107 40 -33 28 -43
26 -13 -2 27 -26 29 -31 15 -37 -9 -4 -104 -8 -210 -10 -106 -1 -195 -4 -197
-7 -11 -10 293 -16 364 -8 89 12 142 4 180 -24 16 -11 50 -37 75 -55 51 -39
49 -50 -13 -58 -30 -4 -64 2 -128 24 -49 17 -108 35 -133 41 -25 6 -54 14 -65
17 -18 6 -19 6 -2 -5 10 -6 50 -20 89 -31 75 -21 133 -47 108 -49 -8 -1 -42
-8 -75 -16 l-60 -14 50 6 c28 3 74 8 104 11 68 7 66 -10 -5 -49 -47 -26 -56
-40 -11 -17 22 12 22 12 3 -10 -15 -16 -31 -21 -71 -21 -76 0 -154 17 -205 44
-89 48 -193 97 -197 92 -2 -2 25 -20 61 -40 89 -50 92 -59 14 -51 -106 11
-111 15 -174 135 -31 58 -65 118 -76 131 -17 21 -18 22 -9 2 6 -12 11 -24 11
-27 0 -3 -43 -6 -97 -6 l-96 0 36 28 c20 15 39 33 42 40 3 8 -17 -4 -44 -27
-41 -34 -56 -41 -92 -41 -49 0 -84 15 -59 24 79 30 194 65 200 61 4 -2 22 0
41 6 92 28 257 36 324 15z m649 -66 c32 -12 81 -41 109 -64 51 -41 116 -130
104 -142 -9 -10 -207 46 -262 73 -49 25 -175 137 -175 156 0 17 161 0 224 -23z
m3113 8 c-3 -8 -6 -5 -6 6 -1 11 2 17 5 13 3 -3 4 -12 1 -19z m-449 -243 c4
-95 4 -99 -13 -85 -39 32 -58 99 -61 220 l-4 115 37 -75 c33 -68 37 -85 41
-175z m55 207 c10 -9 17 -29 17 -51 l0 -36 -24 30 c-14 17 -32 42 -40 57 -16
25 -15 26 6 21 13 -3 31 -13 41 -21z m414 -161 c-4 -99 -13 -162 -31 -231 -14
-52 -26 -105 -26 -118 0 -37 -21 -22 -67 47 l-43 63 0 96 c0 54 -5 115 -10
137 -8 35 -6 44 17 75 14 19 46 54 71 77 l46 41 24 -26 c24 -25 25 -28 19
-161z m-4835 136 c16 -23 42 -62 58 -87 68 -101 80 -253 25 -336 l-17 -26 -24
23 c-58 55 -114 191 -114 278 0 48 29 191 39 191 3 0 18 -20 33 -43z m4158 -9
c17 -22 29 -42 28 -44 -2 -1 -27 4 -57 12 -29 7 -98 14 -153 15 -57 1 -96 5
-91 10 14 14 153 47 200 48 39 1 46 -3 73 -41z m-3496 7 l148 0 39 -75 c43
-85 48 -106 22 -95 -10 4 -65 15 -123 26 -58 10 -151 33 -206 49 -64 19 -121
29 -155 29 l-54 -2 60 -7 c55 -6 269 -70 261 -77 -2 -2 -32 3 -67 12 -35 8
-89 14 -119 13 l-55 -1 65 -7 c36 -4 85 -13 109 -19 24 -7 53 -10 65 -7 12 3
67 -6 121 -19 55 -14 101 -25 102 -25 2 0 3 -4 3 -10 0 -5 -8 -10 -17 -10 -29
0 -141 -57 -187 -94 -23 -19 -68 -51 -101 -70 -32 -20 -56 -36 -52 -36 22 0
87 36 154 85 78 57 174 95 239 95 49 0 42 -17 -18 -44 -64 -28 -78 -44 -108
-119 -12 -31 -35 -75 -51 -97 -16 -22 -26 -40 -23 -40 14 0 48 51 84 127 l39
83 87 41 c79 38 91 40 140 34 l54 -6 -47 -62 c-70 -90 -125 -142 -195 -187
-73 -46 -70 -52 5 -14 35 18 88 63 162 140 l110 113 55 -14 c30 -8 70 -15 90
-16 37 0 89 -17 59 -18 -9 -1 -53 -25 -97 -55 -44 -29 -102 -60 -129 -69 -56
-18 -163 -67 -148 -67 6 0 45 11 88 25 43 14 83 25 90 25 42 -2 -177 -140
-222 -140 -8 0 -12 -3 -9 -6 12 -12 132 31 187 66 31 20 73 59 93 87 41 57 59
63 193 62 l80 0 -78 -28 c-42 -16 -86 -36 -96 -45 -23 -21 -47 -109 -56 -201
-3 -38 -8 -83 -12 -100 -3 -16 -2 -27 1 -24 4 4 18 61 31 128 31 154 41 173
102 196 26 9 74 29 106 43 31 14 60 22 63 19 4 -3 -14 -39 -40 -79 -25 -40
-54 -84 -62 -98 -9 -14 4 -4 28 22 25 25 58 71 74 102 16 31 36 58 45 61 21 7
104 -10 170 -34 104 -39 269 -165 305 -233 19 -36 18 -77 -6 -265 -11 -87 -29
-264 -40 -393 -29 -345 -42 -418 -65 -380 -8 13 -71 13 -96 -1 -16 -8 -25 -7
-38 5 -24 21 -58 20 -77 -3 -15 -18 -18 -18 -45 -2 -23 13 -33 14 -61 3 -21
-8 -36 -8 -42 -2 -14 14 -57 12 -86 -5 -14 -8 -39 -14 -57 -15 -18 0 -43 -5
-57 -11 -20 -9 -29 -9 -41 1 -17 14 -21 0 -4 -17 8 -8 6 -14 -9 -22 -19 -10
-21 -8 -24 21 -4 43 -38 51 -58 13 -9 -17 -17 -22 -24 -15 -18 18 -54 10 -77
-17 l-22 -28 6 45 6 45 -17 -38 c-16 -36 -18 -37 -40 -21 -16 11 -22 12 -20 3
2 -7 -5 -14 -14 -16 -11 -3 -18 4 -21 19 -4 21 -4 21 -6 -4 -1 -34 -21 -47
-28 -18 -4 16 -8 18 -14 9 -4 -7 -3 -21 2 -30 9 -18 -7 -69 -21 -69 -9 0 -54
59 -63 82 -4 11 0 21 11 28 15 10 15 10 -3 8 -31 -5 -29 -38 8 -99 32 -53 33
-58 20 -84 -8 -15 -16 -25 -18 -23 -7 8 -85 139 -85 143 0 2 6 2 14 -1 17 -7
25 14 15 46 -6 22 -7 23 -8 4 -1 -12 -8 -24 -16 -28 -12 -4 -15 3 -15 34 0 43
-5 47 -34 25 -27 -20 -43 -19 -51 4 -9 28 -31 32 -58 10 -14 -10 -36 -19 -50
-19 -14 0 -27 -6 -30 -12 -2 -8 -10 -2 -17 14 -11 24 -18 27 -56 26 -34 0 -47
-6 -59 -24 -13 -20 -19 -23 -36 -13 -11 6 -36 9 -54 8 -24 -3 -41 3 -57 18
-13 12 -39 23 -58 25 l-35 3 -13 90 c-8 53 -15 206 -16 370 -3 264 -5 287 -30
400 -50 215 -36 370 50 572 50 116 88 184 124 218 l30 29 103 -17 c64 -11 124
-29 160 -47 33 -16 54 -23 48 -16 -18 21 -102 54 -178 70 -37 8 -76 18 -86 22
-33 12 4 25 48 17 22 -4 107 -8 189 -8z m4257 -97 l20 -27 -35 -38 c-19 -21
-37 -36 -39 -33 -3 3 -8 43 -12 90 l-7 85 27 -25 c15 -14 36 -37 46 -52z
m-770 35 c42 -19 49 -27 64 -73 9 -28 14 -54 11 -57 -3 -3 -33 11 -66 31 -56
35 -198 91 -207 82 -3 -2 33 -18 79 -36 107 -41 116 -50 49 -50 -64 0 -96 14
-181 81 l-65 52 135 -5 c108 -4 144 -9 181 -25z m-875 -47 c-42 -111 -99 -188
-219 -295 -61 -55 -112 -99 -114 -98 -1 2 15 39 36 83 22 43 51 115 67 159 15
44 37 91 48 103 16 18 187 112 203 112 2 0 -8 -29 -21 -64z m579 28 l30 -25
-65 6 c-74 8 -77 -2 -3 -14 l48 -8 -39 -17 c-22 -10 -50 -16 -63 -13 -13 2
-23 0 -23 -6 0 -6 -22 -8 -57 -4 -44 4 -54 3 -39 -5 29 -16 149 -3 200 22 l43
22 44 -23 44 -23 -85 -12 c-137 -19 -228 -41 -288 -70 -49 -24 -74 -28 -187
-34 -71 -4 -139 -10 -149 -15 -33 -14 -10 11 41 44 30 20 54 29 67 25 13 -3
16 -2 9 3 -9 6 12 25 65 60 109 72 130 81 229 97 128 20 144 19 178 -10z m743
-163 l-3 -45 -41 63 -42 64 27 37 26 38 18 -56 c10 -32 16 -77 15 -101z m-153
-37 c-8 -42 -16 -79 -19 -81 -9 -10 -37 225 -28 241 2 4 17 -12 33 -38 l29
-46 -15 -76z m545 66 c13 -56 7 -109 -22 -188 -39 -105 -138 -172 -154 -106
-17 67 36 237 97 315 47 59 61 55 79 -21z m-3206 29 c164 -50 201 -80 261
-211 31 -67 47 -170 24 -152 -130 103 -200 141 -321 178 -48 15 -117 40 -152
56 -36 16 -83 32 -105 36 -23 4 -41 9 -41 13 1 18 178 107 219 110 8 1 59 -13
115 -30z m2399 -43 c18 -7 43 -25 56 -39 l24 -27 -56 20 c-72 26 -73 25 -175
-10 -106 -35 -285 -71 -367 -71 -36 -1 -79 7 -105 17 l-44 18 29 12 c17 7 59
14 95 14 36 1 74 6 85 11 15 7 10 8 -18 3 -21 -3 -53 -2 -70 2 l-31 6 27 15
c73 38 479 60 550 29z m364 -122 c36 -70 37 -72 24 -126 -12 -55 -62 -148 -80
-148 -16 0 -61 128 -61 174 0 24 6 62 14 84 8 22 18 62 22 88 l7 47 18 -24
c10 -13 35 -56 56 -95z m-2997 15 c69 -25 24 -38 -153 -47 -140 -8 -143 -4
-42 44 41 20 60 23 107 18 32 -3 71 -10 88 -15z m1299 -236 c-43 -151 -131
-303 -122 -212 3 28 136 308 141 297 2 -4 -6 -43 -19 -85z m1849 10 c83 -139
91 -235 37 -454 -23 -96 -38 -187 -45 -278 -12 -157 -34 -298 -54 -345 -10
-25 -22 -35 -46 -40 -19 -3 -38 -1 -46 5 -18 14 -59 4 -84 -21 -20 -20 -20
-20 -20 10 0 44 27 217 50 321 11 49 26 134 34 189 12 86 20 111 55 169 64
108 73 156 65 355 -5 116 -4 167 3 163 6 -4 29 -37 51 -74z m-113 -150 c28
-68 20 -156 -16 -189 -10 -9 -21 -15 -24 -13 -9 10 -35 124 -35 156 0 48 59
85 75 46z m178 -1001 c7 -10 13 -9 30 3 29 20 74 19 86 -2 10 -17 10 -17 11 0
0 9 5 17 10 17 17 0 11 -23 -14 -54 -19 -23 -27 -26 -42 -18 -27 14 -76 18
-95 7 -9 -6 -26 -28 -38 -50 l-22 -40 4 60 c2 33 14 94 28 135 l24 75 5 -60
c3 -33 9 -66 13 -73z m-421 5 c-2 -5 -14 -7 -25 -5 -22 2 -27 -2 -27 -22 0 -6
10 -5 26 2 21 10 27 9 35 -3 21 -33 10 -47 -37 -51 -44 -3 -45 -2 -41 22 5 23
4 24 -9 5 -14 -18 -14 -18 -14 4 0 40 28 81 55 81 17 0 25 6 26 18 1 9 5 4 8
-13 4 -16 6 -34 3 -38z m-1679 15 c3 -4 3 -28 0 -53 -5 -47 -6 -47 -35 -38
-19 5 -48 3 -81 -5 -63 -17 -74 -9 -61 41 8 34 13 38 38 36 16 -1 38 4 50 12
21 16 81 20 89 7z m97 -11 c5 -11 10 -29 10 -41 0 -20 -2 -20 -35 7 -40 32
-43 40 -17 46 29 8 31 7 42 -12z m1757 6 c-49 -32 -52 -35 -40 -47 8 -9 14 -8
21 7 10 18 88 50 98 40 3 -2 -4 -24 -15 -48 l-20 -44 -1 35 c-1 34 -2 35 -13
10 -16 -34 -26 -40 -69 -40 -33 0 -38 3 -38 24 0 31 43 76 72 75 21 0 22 -1 5
-12z m-2127 -26 c5 -11 10 -36 10 -55 0 -35 -1 -36 -39 -36 -40 0 -51 11 -51
51 0 51 58 80 80 40z m-2054 -25 c3 -7 0 -23 -5 -37 -5 -13 -10 -18 -10 -10
-1 8 -12 29 -26 47 l-25 33 31 -11 c17 -6 33 -16 35 -22z m2414 -17 c16 -29
11 -39 -19 -39 -49 0 -79 48 -50 77 14 14 54 -8 69 -38z m-2468 5 c17 -29 17
-29 -8 -30 -13 -1 -24 3 -24 10 0 6 -3 22 -7 35 -9 33 17 23 39 -15z m238 0
c0 -15 -6 -24 -15 -24 -8 0 -15 -4 -15 -10 0 -5 5 -10 10 -10 6 0 10 -12 10
-27 -1 -27 -1 -27 -21 10 -19 36 -19 39 -3 67 20 33 34 31 34 -6z m47 16 c3
-11 10 -20 16 -20 8 0 8 -3 0 -11 -18 -18 -51 -2 -48 24 3 27 3 27 16 27 6 0
13 -9 16 -20z m169 9 c9 -15 -6 -28 -36 -31 -14 -2 -28 -7 -32 -13 -4 -5 -10
-6 -14 -3 -8 8 46 57 63 58 6 0 15 -5 19 -11z m572 -20 c2 -14 -2 -38 -8 -53
l-10 -28 -21 26 c-19 24 -19 27 -4 56 18 36 39 35 43 -1z m142 12 c0 -13 -55
-58 -81 -66 -47 -15 -30 23 26 57 33 20 55 23 55 9z m1650 0 c0 -12 -29 -35
-36 -28 -11 10 5 37 21 37 8 0 15 -4 15 -9z m910 -11 c26 -26 25 -47 -1 -55
-24 -8 -34 0 -43 36 -10 43 11 52 44 19z m-3208 -32 c-21 -21 -32 -3 -15 22
16 22 18 23 21 6 2 -10 -1 -23 -6 -28z m2928 0 c0 -4 -11 -8 -25 -8 -18 0 -25
5 -25 18 0 10 3 22 7 25 7 8 43 -21 43 -35z m-3101 -36 c-9 -61 -38 -137 -39
-100 0 20 29 148 37 161 10 16 11 1 2 -61z m3546 48 c18 -20 17 -20 -8 -20
-28 0 -42 14 -32 30 9 15 20 12 40 -10z m-3411 4 c-7 -3 -10 -13 -7 -24 6 -22
-29 -44 -57 -35 -10 3 -21 1 -25 -5 -3 -5 -13 -10 -20 -10 -11 0 -12 6 -6 23
5 14 24 28 57 39 43 15 88 24 58 12z m-215 -54 c-6 -16 -15 -30 -20 -30 -5 0
-9 14 -9 30 0 23 5 30 19 30 18 0 19 -3 10 -30z m561 13 c0 -10 -4 -24 -9 -31
-7 -11 -10 -10 -15 3 -10 28 -7 45 9 45 8 0 15 -8 15 -17z m3214 -20 c-7 -41
-43 -143 -50 -143 -2 0 -4 38 -4 84 0 90 -3 85 53 95 4 0 5 -16 1 -36z m210
25 c-4 -7 -18 -26 -30 -43 -12 -16 -33 -56 -46 -88 -13 -31 -27 -54 -31 -51
-9 9 -9 106 -1 157 l7 37 54 0 c41 0 52 -3 47 -12z m-4224 -24 c6 -14 13 -44
17 -67 l6 -42 -36 43 c-42 49 -49 92 -17 92 13 0 24 -10 30 -26z m514 -1 c3
-16 2 -50 -2 -78 l-8 -50 -22 42 c-12 23 -22 58 -22 78 0 30 3 35 24 35 19 0
26 -7 30 -27z m3271 -10 c-14 -79 -16 -82 -37 -34 -22 53 -30 51 -18 -4 5 -22
9 -53 9 -70 0 -24 -6 -14 -29 44 -16 41 -29 76 -27 76 9 8 66 24 85 24 21 1
22 -2 17 -36z m161 15 c-3 -13 -6 -29 -6 -36 0 -15 -51 11 -77 41 -15 16 -13
17 37 17 49 0 52 -1 46 -22z"/>
<path d="M3431 4804 c0 -11 3 -14 6 -6 3 7 2 16 -1 19 -3 4 -6 -2 -5 -13z"/>
<path d="M1932 4860 c0 -14 2 -19 5 -12 2 6 2 18 0 25 -3 6 -5 1 -5 -13z"/>
<path d="M2057 4699 c18 -18 35 -30 38 -27 3 3 -11 18 -32 33 l-38 28 32 -34z"/>
<path d="M1361 4654 c0 -11 3 -14 6 -6 3 7 2 16 -1 19 -3 4 -6 -2 -5 -13z"/>
<path d="M4812 4555 c-17 -37 -14 -45 4 -12 9 16 14 31 11 33 -2 2 -9 -7 -15
-21z"/>
<path d="M4161 4169 c-7 -12 -10 -23 -8 -26 3 -3 11 5 17 17 6 12 10 23 8 25
-2 2 -10 -5 -17 -16z"/>
<path d="M4318 4067 c-58 -87 -109 -224 -107 -286 0 -27 6 -13 24 54 12 50 41
128 64 173 40 80 48 104 19 59z"/>
<path d="M3621 3944 c0 -11 3 -14 6 -6 3 7 2 16 -1 19 -3 4 -6 -2 -5 -13z"/>
<path d="M1321 3944 c0 -11 3 -14 6 -6 3 7 2 16 -1 19 -3 4 -6 -2 -5 -13z"/>
<path d="M1550 3776 c0 -2 14 -14 30 -26 17 -12 30 -19 30 -16 0 2 -13 14 -30
26 -16 12 -30 19 -30 16z"/>
<path d="M2172 4095 c0 -16 2 -22 5 -12 2 9 2 23 0 30 -3 6 -5 -1 -5 -18z"/>
<path d="M2156 3998 c-4 -35 -9 -79 -12 -98 -4 -29 -3 -31 5 -13 11 25 27 173
19 173 -3 0 -8 -28 -12 -62z"/>
<path d="M2222 3935 c0 -16 2 -22 5 -12 2 9 2 23 0 30 -3 6 -5 -1 -5 -18z"/>
<path d="M2282 3750 c0 -19 2 -27 5 -17 2 9 2 25 0 35 -3 9 -5 1 -5 -18z"/>
<path d="M3559 4067 c-55 -51 -96 -97 -88 -97 3 0 38 34 79 75 86 86 91 99 9
22z"/>
<path d="M4643 3748 c-15 -33 -18 -46 -8 -38 14 11 40 78 33 85 -1 1 -13 -20
-25 -47z"/>
<path d="M4981 4014 c0 -11 3 -14 6 -6 3 7 2 16 -1 19 -3 4 -6 -2 -5 -13z"/>
<path d="M2352 3975 c0 -16 2 -22 5 -12 2 9 2 23 0 30 -3 6 -5 -1 -5 -18z"/>
<path d="M2402 3805 c0 -16 2 -22 5 -12 2 9 2 23 0 30 -3 6 -5 -1 -5 -18z"/>
<path d="M2403 3720 c0 -30 2 -43 4 -27 2 15 2 39 0 55 -2 15 -4 2 -4 -28z"/>
<path d="M2521 3354 c0 -11 3 -14 6 -6 3 7 2 16 -1 19 -3 4 -6 -2 -5 -13z"/>
<path d="M2513 3214 c-6 -27 -14 -58 -17 -69 -4 -11 3 -1 14 23 12 24 20 55
18 69 -2 21 -6 16 -15 -23z"/>
<path d="M4961 3647 c-13 -16 -44 -88 -39 -92 2 -2 15 21 30 51 27 55 29 64 9
41z"/>
<path d="M2048 3643 c5 -21 7 -23 10 -9 2 10 0 22 -6 28 -6 6 -7 0 -4 -19z"/>
<path d="M3685 3759 c-4 -6 -5 -12 -2 -15 2 -3 7 2 10 11 7 17 1 20 -8 4z"/>
<path d="M3692 3708 c-12 -23 -20 -43 -18 -46 3 -2 14 15 26 38 12 23 20 43
18 45 -2 2 -13 -15 -26 -37z"/>
<path d="M4724 3608 l-19 -23 23 19 c21 18 27 26 19 26 -2 0 -12 -10 -23 -22z"/>
<path d="M2051 3464 c0 -11 3 -14 6 -6 3 7 2 16 -1 19 -3 4 -6 -2 -5 -13z"/>
<path d="M4671 3344 c0 -11 3 -14 6 -6 3 7 2 16 -1 19 -3 4 -6 -2 -5 -13z"/>
<path d="M490 3397 c0 -4 14 -26 30 -49 17 -22 30 -37 30 -32 -1 11 -60 91
-60 81z"/>
<path d="M3636 3371 c-13 -20 -25 -62 -17 -57 5 3 14 19 19 36 10 29 9 40 -2
21z"/>
<path d="M1380 3324 c0 -3 25 -32 57 -65 63 -66 53 -78 -30 -35 -26 13 -43 18
-37 11 12 -15 61 -35 167 -69 60 -19 101 -26 150 -24 l68 1 -70 7 c-119 10
-152 26 -232 107 -40 40 -73 70 -73 67z"/>
<path d="M1810 3106 c0 -2 8 -10 18 -17 15 -13 16 -12 3 4 -13 16 -21 21 -21
13z"/>
<path d="M1207 2979 c29 -31 93 -76 93 -66 0 2 -28 25 -62 52 -52 39 -57 42
-31 14z"/>
<path d="M4286 2900 c7 -26 74 -150 74 -138 0 4 -18 43 -40 85 -23 43 -38 67
-34 53z"/>
<path d="M3971 2874 c0 -11 3 -14 6 -6 3 7 2 16 -1 19 -3 4 -6 -2 -5 -13z"/>
<path d="M3405 2903 c-21 -32 -47 -68 -58 -80 -11 -13 -15 -23 -9 -23 13 0 48
46 87 113 37 65 26 59 -20 -10z"/>
<path d="M3308 2893 c-21 -26 -50 -74 -46 -78 2 -2 18 19 36 46 33 50 37 64
10 32z"/>
<path d="M4621 2544 c0 -11 3 -14 6 -6 3 7 2 16 -1 19 -3 4 -6 -2 -5 -13z"/>
<path d="M3189 2623 c-13 -16 -12 -17 4 -4 16 13 21 21 13 21 -2 0 -10 -8 -17
-17z"/>
<path d="M1206 2465 c8 -37 14 -45 14 -19 0 10 -5 26 -10 34 -8 11 -9 7 -4
-15z"/>
<path d="M3596 2309 c-15 -22 -26 -42 -24 -45 3 -2 17 14 32 37 36 53 30 59
-8 8z"/>
<path d="M361 2324 c0 -11 3 -14 6 -6 3 7 2 16 -1 19 -3 4 -6 -2 -5 -13z"/>
<path d="M3320 2091 c-6 -16 -31 -49 -53 -72 -41 -42 -41 -42 -7 -17 33 24 87
104 77 114 -2 3 -10 -9 -17 -25z"/>
<path d="M1190 1940 c-30 -16 -51 -29 -47 -30 10 0 107 49 107 55 0 7 1 7 -60
-25z"/>
<path d="M465 1855 c77 -65 198 -103 280 -88 35 6 28 8 -52 14 -76 6 -101 12
-153 40 -34 18 -64 39 -67 46 -3 7 -13 13 -22 13 -11 0 -7 -7 14 -25z"/>
<path d="M1031 212 c0 -4 4 -16 8 -26 7 -19 8 -19 13 1 4 14 0 24 -8 27 -8 3
-14 2 -13 -2z"/>
<path d="M3625 1778 c-22 -5 -60 -6 -85 -3 -32 4 -41 3 -30 -4 21 -15 86 -13
145 3 56 16 32 19 -30 4z"/>
<path d="M1628 5075 c-3 -3 6 -18 21 -33 14 -15 36 -41 49 -57 l24 -30 -18 30
c-9 17 -27 42 -40 56 -14 14 -21 28 -17 32 3 4 2 7 -4 7 -5 0 -12 -2 -15 -5z"/>
<path d="M937 4854 c-13 -106 -47 -143 -225 -251 -13 -8 -22 -17 -19 -19 10
-10 173 87 200 119 33 38 59 122 55 174 -3 33 -4 30 -11 -23z"/>
<path d="M2489 4641 c-24 -21 -41 -42 -38 -45 3 -3 25 15 49 39 54 55 48 59
-11 6z"/>
<path d="M4729 4653 c-13 -16 -12 -17 4 -4 9 7 17 15 17 17 0 8 -8 3 -21 -13z"/>
<path d="M2441 4564 c0 -11 3 -14 6 -6 3 7 2 16 -1 19 -3 4 -6 -2 -5 -13z"/>
<path d="M2576 4435 c-3 -9 -6 -22 -5 -28 0 -7 5 -1 10 12 5 13 8 26 5 28 -2
2 -6 -3 -10 -12z"/>
<path d="M2316 4155 c4 -22 11 -47 15 -55 6 -9 7 0 3 25 -4 22 -11 47 -15 55
-6 9 -7 0 -3 -25z"/>
<path d="M2 3785 c0 -16 2 -22 5 -12 2 9 2 23 0 30 -3 6 -5 -1 -5 -18z"/>
<path d="M72 3260 c0 -14 2 -19 5 -12 2 6 2 18 0 25 -3 6 -5 1 -5 -13z"/>
<path d="M5049 2043 c-26 -28 -28 -33 -10 -22 22 14 60 59 49 59 -2 0 -20 -17
-39 -37z"/>
<path d="M3875 1570 c19 -8 123 -14 114 -6 -2 2 -33 6 -69 9 -38 3 -57 1 -45
-3z"/>
<path d="M3968 220 c-9 -59 -5 -206 6 -217 4 -4 5 10 2 32 l-5 40 10 -38 c7
-22 17 -37 26 -37 11 0 13 3 5 13 -12 15 -35 97 -29 104 3 2 21 -23 42 -56 20
-34 41 -61 46 -61 5 0 0 15 -11 33 -11 17 -20 48 -21 67 -1 31 -2 32 -8 10
l-7 -24 -21 30 c-15 21 -23 49 -25 90 l-3 59 -7 -45z"/>
<path d="M80 140 c30 -76 62 -140 71 -140 8 0 -67 169 -83 185 -5 6 0 -15 12
-45z"/>
<path d="M1695 146 c-11 -7 -42 -17 -70 -21 -61 -9 -107 -32 -164 -85 -31 -29
-38 -40 -26 -40 10 0 39 20 65 44 32 30 65 50 100 60 30 9 55 14 58 12 2 -3
-14 -27 -37 -54 -23 -26 -41 -52 -41 -58 0 -5 12 7 27 26 15 19 47 56 72 83
46 49 49 56 16 33z"/>
<path d="M756 77 c-5 -37 -6 -70 -3 -73 9 -9 19 58 15 101 -3 35 -5 31 -12
-28z"/>
<path d="M1475 100 c-13 -6 -15 -9 -5 -9 8 0 22 4 30 9 18 12 2 12 -25 0z"/>
<path d="M0 95 c0 -10 80 -82 85 -77 6 7 -65 82 -77 82 -4 0 -8 -2 -8 -5z"/>
<path d="M2878 89 c9 -10 49 -14 145 -15 94 -2 125 1 107 8 -22 8 -90 11 -170
6 -14 -1 -41 2 -60 6 -29 7 -33 6 -22 -5z"/>
<path d="M3468 45 c-2 -25 0 -45 4 -45 5 0 8 20 8 45 0 25 -2 45 -4 45 -2 0
-6 -20 -8 -45z"/>
<path d="M3670 84 c0 -19 24 -84 31 -84 4 0 1 20 -8 45 -13 40 -23 56 -23 39z"/>
<path d="M4800 84 c0 -5 -4 -26 -9 -46 -5 -21 -5 -38 -1 -38 8 0 21 82 14 89
-2 2 -4 0 -4 -5z"/>
<path d="M5100 80 c-9 -6 -10 -10 -3 -10 6 0 15 5 18 10 8 12 4 12 -15 0z"/>
<path d="M2505 61 c9 -10 26 -12 59 -7 68 11 63 22 -9 21 -54 0 -62 -2 -50
-14z"/>
<path d="M2800 40 c-6 -11 -8 -20 -5 -20 3 0 14 9 25 20 15 15 16 20 5 20 -8
0 -19 -9 -25 -20z"/>
<path d="M5060 30 c-31 -16 -47 -29 -36 -30 21 0 96 40 96 52 0 10 4 12 -60
-22z"/>
<path d="M620 22 c0 -12 19 -26 26 -19 2 2 -2 10 -11 17 -9 8 -15 8 -15 2z"/>
<path d="M3661 14 c0 -11 3 -14 6 -6 3 7 2 16 -1 19 -3 4 -6 -2 -5 -13z"/>
<path d="M1750 10 c-13 -8 -12 -10 3 -10 9 0 17 5 17 10 0 12 -1 12 -20 0z"/>
<path d="M1828 3 c7 -3 16 -2 19 1 4 3 -2 6 -13 5 -11 0 -14 -3 -6 -6z"/>
</g>
</svg>