<?xml version="1.0" standalone="no"?>
<!DOCTYPE svg PUBLIC "-//W3C//DTD SVG 20010904//EN"
 "http://www.w3.org/TR/2001/REC-SVG-20010904/DTD/svg10.dtd">
<svg version="1.0" xmlns="http://www.w3.org/2000/svg"
 width="512.000000pt" height="512.000000pt" viewBox="0 0 512.000000 512.000000"
 preserveAspectRatio="xMidYMid meet">
<metadata>
Created by potrace 1.16, written by Peter Selinger 2001-2019
</metadata>
<g transform="translate(0.000000,512.000000) scale(0.100000,-0.100000)"
fill="#000000" stroke="none">
<path d="M34 5104 c3 -9 16 -49 29 -90 12 -41 25 -74 28 -74 8 0 29 113 29
153 0 25 -3 27 -46 27 -38 0 -45 -3 -40 -16z"/>
<path d="M175 5108 c-2 -7 -6 -31 -10 -53 -4 -22 -20 -89 -37 -148 -16 -60
-28 -111 -25 -113 9 -9 108 131 147 210 55 108 54 116 -15 116 -36 0 -57 -4
-60 -12z"/>
<path d="M356 5073 c-9 -26 -16 -47 -16 -48 0 -3 195 7 198 11 2 1 1 21 -3 43
l-7 41 -78 0 -78 0 -16 -47z"/>
<path d="M570 5118 c0 -2 7 -23 14 -48 l14 -45 16 37 c22 51 20 58 -14 58 -16
0 -30 -1 -30 -2z"/>
<path d="M715 5073 c-19 -25 -34 -48 -32 -49 6 -6 139 24 148 33 4 4 11 20 14
36 7 27 7 27 -43 27 -49 0 -53 -2 -87 -47z"/>
<path d="M877 5098 c-9 -31 -2 -33 17 -3 13 20 14 25 2 25 -7 0 -16 -10 -19
-22z"/>
<path d="M891 5059 c-30 -33 -52 -61 -50 -63 5 -6 137 106 138 117 2 23 -41
-3 -88 -54z"/>
<path d="M1010 5105 c-11 -13 -8 -15 14 -15 41 0 30 -19 -18 -31 -25 -6 -56
-24 -72 -40 l-28 -29 48 0 c26 0 57 5 68 11 32 17 51 -10 56 -82 l5 -63 18 35
c14 26 18 57 19 132 l0 97 -49 0 c-31 0 -53 -5 -61 -15z"/>
<path d="M1160 5045 l0 -75 52 41 c44 35 88 87 88 104 0 3 -31 5 -70 5 l-70 0
0 -75z"/>
<path d="M1352 5104 c-12 -8 -22 -19 -22 -23 0 -9 68 0 170 23 l65 14 -95 1
c-72 1 -101 -3 -118 -15z"/>
<path d="M2066 5104 c-13 -33 -2 -184 13 -184 3 0 22 23 41 51 66 97 65 95 52
123 -10 22 -18 26 -56 26 -31 0 -46 -5 -50 -16z"/>
<path d="M2334 5102 c-10 -16 -5 -22 43 -47 69 -36 109 -83 144 -170 22 -55
28 -64 34 -46 8 26 -1 110 -21 209 l-15 72 -87 0 c-73 0 -89 -3 -98 -18z"/>
<path d="M2629 5093 c-10 -25 -7 -129 4 -139 2 -3 20 11 40 31 47 47 78 46
126 -2 20 -21 47 -51 60 -68 l22 -30 -5 70 c-3 39 -6 91 -6 118 l0 47 -115 0
-115 0 -11 -27z"/>
<path d="M2930 5094 c-11 -28 -13 -97 -4 -132 6 -20 13 -13 53 55 26 43 50 84
54 91 6 9 -4 12 -43 12 -45 0 -52 -3 -60 -26z"/>
<path d="M3020 5028 c-64 -98 -78 -140 -63 -185 l10 -28 44 61 c46 62 129 213
129 233 0 6 -14 11 -30 11 -28 0 -37 -9 -90 -92z"/>
<path d="M3375 5100 c-18 -19 -17 -20 6 -20 13 0 41 3 62 6 30 5 35 9 26 20
-17 21 -73 17 -94 -6z"/>
<path d="M3536 5111 c-14 -22 52 -27 80 -6 18 13 16 14 -28 15 -26 0 -49 -4
-52 -9z"/>
<path d="M3666 5104 c-4 -9 -5 -18 -4 -19 2 -1 26 6 53 16 l50 17 -46 1 c-35
1 -49 -3 -53 -15z"/>
<path d="M3920 5116 c0 -2 7 -6 15 -10 8 -3 15 -1 15 4 0 6 -7 10 -15 10 -8 0
-15 -2 -15 -4z"/>
<path d="M3997 5113 c-17 -16 -3 -31 49 -52 30 -13 89 -48 130 -77 41 -30 77
-54 80 -54 6 0 5 109 -2 153 l-7 37 -122 0 c-67 0 -125 -3 -128 -7z"/>
<path d="M4300 5108 c2 -50 31 -255 45 -307 16 -64 40 -111 56 -111 5 0 9 8 9
18 0 10 7 40 17 67 12 35 13 50 5 53 -20 6 -13 31 12 44 14 7 53 45 88 83 62
69 63 72 60 118 l-4 47 -144 0 c-109 0 -144 -3 -144 -12z"/>
<path d="M4900 5082 c-30 -20 -66 -55 -81 -77 -26 -38 -89 -178 -89 -196 0 -4
22 14 50 41 45 46 80 63 80 40 0 -5 21 -7 52 -3 62 7 60 -13 -3 -23 -21 -4
-39 -7 -39 -9 0 -1 18 -36 40 -79 22 -42 40 -86 40 -96 0 -10 4 -21 8 -24 13
-8 74 90 84 137 8 40 5 54 -27 138 -28 71 -36 104 -33 141 4 60 -7 61 -82 10z"/>
<path d="M5011 5074 c0 -35 11 -72 38 -129 l37 -80 18 52 c25 74 19 150 -14
174 -14 10 -37 21 -52 25 -28 6 -28 6 -27 -42z"/>
<path d="M1648 5102 c-15 -6 -12 -16 25 -82 l42 -75 3 50 c2 27 10 57 18 66
14 16 94 32 94 19 0 -3 -19 -14 -42 -25 l-43 -20 -3 -62 c-3 -58 0 -68 39
-133 47 -80 56 -89 66 -63 3 10 13 34 21 53 22 51 27 13 8 -54 l-16 -55 55
-98 c30 -54 55 -104 55 -110 0 -7 4 -13 9 -13 15 0 41 134 41 212 0 135 -43
245 -134 345 l-48 53 -87 -1 c-47 0 -94 -3 -103 -7z"/>
<path d="M3755 5085 c-16 -8 -54 -19 -82 -25 -33 -7 -58 -19 -67 -32 -14 -19
-12 -25 17 -66 38 -54 138 -164 144 -159 2 2 -4 35 -12 72 -17 71 -17 118 0
113 5 -2 14 15 21 37 6 22 15 39 20 37 13 -5 6 -60 -12 -87 -13 -19 -13 -33
-5 -78 11 -60 30 -111 53 -141 14 -17 17 -10 37 80 12 54 31 127 41 162 11 34
20 65 20 68 0 3 -16 12 -35 20 -42 17 -100 17 -140 -1z"/>
<path d="M1480 5064 l-95 -25 5 -72 c3 -47 12 -83 23 -101 11 -15 37 -76 58
-134 22 -58 51 -125 64 -148 25 -42 120 -122 132 -110 15 14 -21 86 -73 146
-56 65 -84 114 -84 147 0 13 7 8 21 -14 12 -18 22 -33 24 -33 6 0 -17 75 -32
104 l-15 29 93 -6 c52 -3 106 -10 122 -16 26 -10 27 -10 16 11 -7 12 -27 46
-45 74 l-33 52 -68 -23 c-84 -28 -183 -39 -183 -21 0 9 22 15 64 19 34 3 88
16 119 29 l55 22 -24 48 c-13 26 -30 48 -37 47 -6 0 -55 -12 -107 -25z"/>
<path d="M2257 5063 c-6 -10 55 -282 89 -393 14 -47 49 -128 79 -180 29 -52
60 -108 68 -124 l15 -30 6 65 c4 35 12 99 18 142 9 60 9 95 0 146 -16 93 -57
221 -85 261 -33 50 -177 135 -190 113z m226 -405 c29 -39 46 -85 27 -73 -9 6
-9 3 -1 -13 6 -11 11 -31 11 -43 0 -31 -56 77 -65 124 -9 45 -3 46 28 5z"/>
<path d="M3299 5055 c-25 -14 -39 -48 -39 -97 0 -18 2 -19 16 -7 14 11 64 100
64 114 0 8 -13 5 -41 -10z"/>
<path d="M3465 5055 c-5 -2 -31 -6 -57 -10 -31 -4 -51 -13 -58 -24 -9 -19 -50
-194 -50 -219 0 -19 80 39 170 125 l75 71 -21 29 c-20 27 -38 36 -59 28z"/>
<path d="M3552 5049 c2 -6 8 -10 13 -10 5 0 11 4 13 10 2 6 -4 11 -13 11 -9 0
-15 -5 -13 -11z"/>
<path d="M3940 4984 l-20 -67 24 -41 c13 -23 44 -63 69 -90 39 -42 50 -48 74
-43 15 3 65 12 111 18 l84 12 -7 36 c-8 42 -47 87 -130 146 -60 43 -156 95
-174 95 -6 0 -19 -30 -31 -66z"/>
<path d="M1267 4997 c-32 -17 -58 -36 -58 -42 0 -5 25 -15 56 -22 31 -7 65
-17 75 -23 19 -10 20 -7 20 55 0 78 -7 81 -93 32z"/>
<path d="M2 4815 c0 -204 0 -208 14 -150 19 78 19 246 0 310 -14 48 -14 40
-14 -160z"/>
<path d="M765 5008 c-105 -23 -116 -28 -131 -63 -25 -62 -18 -71 26 -31 23 20
60 41 86 48 25 7 50 21 56 31 13 24 10 25 -37 15z"/>
<path d="M2203 4998 c-69 -76 -100 -155 -118 -298 -7 -58 -20 -150 -29 -205
-9 -55 -16 -135 -16 -177 l0 -78 51 -25 c29 -13 56 -22 60 -19 5 3 9 23 9 44
0 31 -10 52 -50 105 -55 73 -67 109 -26 78 13 -10 22 -21 19 -25 -2 -4 2 -5
10 -2 8 3 21 -6 31 -20 22 -35 20 -43 -6 -20 -21 19 -21 18 1 -14 34 -49 45
-29 46 81 0 91 -1 95 -38 156 -37 59 -42 91 -15 91 6 0 22 -9 34 -21 l23 -21
11 43 c6 24 13 50 15 57 3 7 -4 31 -16 54 -21 42 -19 59 5 39 30 -25 39 -68
27 -128 -14 -74 -14 -83 4 -83 9 0 34 -9 56 -21 38 -19 40 -19 36 -2 -26 90
-49 186 -67 280 -11 62 -24 122 -28 133 -8 21 -8 21 -29 -2z"/>
<path d="M405 4999 c-27 -5 -61 -15 -74 -22 -21 -11 -149 -173 -216 -275 -26
-40 -81 -219 -70 -230 3 -3 24 1 47 8 56 16 123 83 136 135 6 22 16 59 22 83
11 43 24 53 34 27 8 -21 -10 -108 -29 -146 -16 -31 -16 -31 7 -24 43 13 143
66 171 91 27 23 29 30 28 95 0 39 -8 98 -17 130 -21 73 -11 88 16 26 23 -51
40 -132 40 -185 0 -22 4 -32 9 -26 18 18 41 155 41 238 l0 86 -47 -1 c-27 -1
-70 -5 -98 -10z"/>
<path d="M3101 4878 c-66 -73 -121 -140 -121 -148 0 -13 49 -118 75 -160 5 -7
23 25 46 80 20 51 58 128 84 172 34 59 48 95 52 134 4 36 2 54 -5 54 -6 0 -65
-60 -131 -132z"/>
<path d="M2683 4956 c-41 -37 -39 -26 -25 -190 l7 -78 32 44 c17 25 35 57 38
71 8 32 25 35 32 7 3 -11 7 -20 9 -20 10 0 84 53 84 60 0 24 -111 140 -134
140 -4 0 -23 -15 -43 -34z"/>
<path d="M4562 4949 c-44 -54 -81 -143 -93 -221 -15 -103 0 -187 54 -298 l41
-85 7 108 c4 60 15 151 25 204 17 98 16 296 -2 313 -5 4 -20 -5 -32 -21z"/>
<path d="M893 4957 c-19 -9 -83 -84 -83 -98 0 -4 37 -7 83 -6 45 1 99 -2 120
-6 l37 -8 0 53 c0 29 -4 58 -8 64 -8 13 -122 13 -149 1z"/>
<path d="M3505 4912 c-33 -32 -75 -70 -94 -85 -18 -15 -32 -29 -30 -31 10 -8
181 -77 184 -74 1 1 14 26 28 54 14 27 33 56 41 63 23 20 20 31 -27 83 l-42
48 -60 -58z"/>
<path d="M725 4926 c-52 -24 -111 -88 -117 -127 l-6 -36 66 44 c48 33 71 55
84 85 25 56 24 57 -27 34z"/>
<path d="M1135 4875 c-21 -36 -24 -49 -15 -55 25 -15 300 -62 300 -51 0 2 -9
23 -20 46 -17 36 -30 46 -86 70 -35 15 -84 30 -108 32 -42 5 -43 5 -71 -42z"/>
<path d="M3238 4853 c-48 -75 -82 -143 -70 -143 22 0 82 54 87 78 3 15 12 51
19 80 7 28 12 52 10 52 -1 0 -22 -30 -46 -67z"/>
<path d="M3895 4804 c-15 -66 -15 -78 -3 -91 20 -19 195 -94 238 -101 33 -5
31 -2 -53 74 -49 43 -106 104 -127 136 l-38 57 -17 -75z"/>
<path d="M2906 4862 c-4 -6 0 -26 8 -44 l14 -33 1 30 c1 35 -13 63 -23 47z"/>
<path d="M4798 4837 c-42 -36 -75 -96 -97 -177 -31 -116 -44 -227 -37 -310 8
-90 44 -271 56 -284 5 -5 19 4 34 20 14 16 26 23 26 17 0 -7 5 -13 12 -13 11
0 6 189 -8 259 l-7 32 -33 -32 c-49 -47 -42 -16 10 48 l45 54 -16 47 c-8 26
-17 77 -20 114 l-5 67 47 50 c54 58 74 60 28 3 -62 -78 -67 -116 -27 -202 l25
-55 20 25 c82 106 90 132 61 210 -18 48 -74 150 -82 150 -3 0 -17 -10 -32 -23z"/>
<path d="M5101 4832 c-14 -26 -7 -42 10 -25 6 6 9 19 7 29 -3 17 -5 17 -17 -4z"/>
<path d="M3652 4808 c-20 -23 -52 -87 -52 -107 0 -6 17 -5 43 4 62 20 107 39
107 45 0 3 -17 23 -38 43 l-38 37 -22 -22z"/>
<path d="M806 4811 c-22 -4 -38 -21 -67 -69 l-38 -62 27 7 c15 3 50 25 77 48
52 44 95 71 95 59 0 -4 -25 -30 -56 -59 l-56 -51 63 -22 64 -23 48 52 c26 28
54 64 62 79 l15 28 -51 11 c-53 12 -136 13 -183 2z"/>
<path d="M1557 4802 c6 -4 14 -29 18 -55 7 -43 67 -146 86 -147 3 0 9 29 12
65 7 76 18 101 49 111 l23 7 -25 9 c-31 11 -180 21 -163 10z"/>
<path d="M2827 4786 c-124 -76 -210 -229 -220 -393 -2 -35 0 -63 3 -63 3 0 26
28 50 63 24 34 90 124 147 200 l103 138 -20 40 c-11 21 -21 39 -23 39 -1 0
-19 -11 -40 -24z"/>
<path d="M2603 4735 c0 -38 2 -53 4 -32 2 20 2 52 0 70 -2 17 -4 1 -4 -38z"/>
<path d="M658 4747 c-36 -29 -57 -56 -66 -81 -7 -22 -10 -41 -8 -43 10 -10 84
69 110 116 15 28 25 51 22 51 -3 0 -29 -19 -58 -43z"/>
<path d="M1054 4749 c-14 -23 -44 -61 -66 -86 -24 -25 -37 -47 -32 -52 5 -4
50 -45 101 -90 l92 -81 -5 87 c-3 49 -12 114 -20 146 -18 74 -18 85 0 67 19
-21 46 -107 46 -148 0 -20 5 -64 11 -99 9 -51 16 -66 33 -72 30 -12 116 -20
116 -12 0 4 -34 56 -75 116 -77 112 -97 159 -49 114 30 -28 144 -195 144 -211
0 -16 31 13 41 38 6 17 19 24 54 29 25 4 57 5 71 2 38 -7 16 8 -39 26 -33 11
-90 51 -186 131 -124 103 -172 136 -202 136 -5 0 -20 -19 -35 -41z"/>
<path d="M1757 4772 c1 -3 -8 -17 -21 -33 -44 -52 -44 -217 0 -301 9 -18 53
-85 98 -148 79 -112 81 -114 83 -80 1 19 8 85 14 147 10 90 10 118 -1 145 -24
60 -108 203 -142 239 -18 19 -32 33 -31 31z"/>
<path d="M3326 4758 c-19 -10 -37 -21 -39 -25 -3 -5 -17 -53 -31 -108 -15 -55
-29 -108 -32 -118 -5 -16 1 -15 48 9 29 14 54 27 55 28 2 2 7 26 13 55 16 86
30 96 23 17 l-6 -70 69 38 c75 41 114 73 114 92 0 7 -40 32 -89 56 l-89 44
-36 -18z"/>
<path d="M5098 4753 c-17 -20 -68 -100 -68 -107 0 -3 20 7 45 21 41 23 45 28
45 64 0 44 -1 46 -22 22z"/>
<path d="M1247 4723 c26 -20 72 -56 102 -80 62 -51 139 -98 147 -90 3 3 -1 18
-9 34 -8 15 -22 52 -32 81 -11 36 -24 56 -39 62 -18 6 -179 30 -209 30 -5 0
13 -17 40 -37z"/>
<path d="M4158 4728 l-67 -10 77 -78 c59 -59 97 -87 161 -119 45 -23 85 -40
87 -38 2 2 -24 61 -58 130 l-62 127 -35 -1 c-20 -1 -66 -6 -103 -11z"/>
<path d="M3690 4690 c-77 -34 -86 -40 -94 -72 -5 -19 -5 -69 -1 -112 l7 -77
46 27 c118 68 125 75 156 158 l29 78 -24 19 c-13 10 -26 18 -29 18 -3 -1 -43
-18 -90 -39z"/>
<path d="M3211 4692 c-13 -9 -33 -32 -46 -51 -26 -43 -148 -341 -141 -348 9
-10 57 31 92 78 20 27 45 73 56 101 20 53 69 230 65 234 -1 1 -13 -5 -26 -14z"/>
<path d="M2887 4633 c-31 -37 -54 -69 -53 -70 1 -1 36 12 78 28 76 31 76 31
66 59 -20 58 -32 56 -91 -17z"/>
<path d="M3841 4629 c-11 -29 -21 -55 -21 -59 0 -9 107 47 114 59 3 4 -12 17
-33 29 l-38 22 -22 -51z"/>
<path d="M5072 4642 c-23 -13 -49 -36 -56 -51 -14 -26 -41 -220 -32 -228 9 -9
86 71 111 115 22 39 25 56 23 117 l-3 70 -43 -23z"/>
<path d="M684 4631 c-55 -25 -111 -76 -135 -124 l-21 -40 49 7 c116 17 127 25
158 115 24 70 19 74 -51 42z"/>
<path d="M776 4628 c-2 -7 -11 -34 -18 -60 l-15 -46 61 38 c33 21 62 43 64 48
1 5 -10 13 -25 16 -15 4 -36 9 -46 12 -9 3 -19 -1 -21 -8z"/>
<path d="M2140 4636 c0 -2 8 -10 18 -17 15 -13 16 -12 3 4 -13 16 -21 21 -21
13z"/>
<path d="M3514 4597 l-50 -31 4 -60 c3 -34 7 -62 11 -63 3 -2 5 -47 3 -100 -2
-70 0 -94 7 -83 6 8 11 11 11 6 0 -4 18 8 40 28 22 20 43 36 46 36 9 0 -32
-53 -70 -89 -20 -19 -36 -38 -36 -43 0 -6 144 66 163 82 4 4 -4 31 -19 60
l-26 52 -24 -28 c-13 -16 -34 -44 -46 -63 -37 -58 -32 -15 7 56 36 65 36 67
33 169 -2 57 -3 103 -3 103 0 0 -23 -15 -51 -32z"/>
<path d="M440 4589 c-25 -15 -82 -45 -127 -65 -46 -20 -83 -40 -83 -44 0 -12
79 -20 155 -16 l70 5 18 47 c10 26 17 60 15 74 l-3 27 -45 -28z"/>
<path d="M3911 4570 c-40 -21 -81 -46 -92 -56 -17 -16 -50 -91 -65 -149 l-6
-26 77 38 c72 36 76 40 71 66 -6 32 6 35 25 6 l14 -20 45 20 c103 45 216 49
327 10 29 -10 53 -16 53 -14 0 11 -100 60 -182 90 -51 19 -116 43 -143 54
l-51 19 -73 -38z"/>
<path d="M889 4571 l-23 -18 52 -55 c28 -30 87 -79 129 -109 75 -53 163 -96
163 -79 0 23 -265 280 -289 280 -5 0 -19 -8 -32 -19z"/>
<path d="M2917 4560 c-103 -43 -142 -73 -208 -162 -80 -108 -99 -147 -115
-237 -15 -87 -19 -317 -5 -326 17 -10 137 156 156 215 10 30 45 124 78 208 33
84 57 155 55 158 -3 3 -40 -15 -83 -40 -42 -26 -79 -46 -83 -46 -20 0 71 74
124 100 35 17 68 39 73 48 8 13 10 8 11 -23 0 -42 -15 -97 -48 -180 -11 -27
-30 -75 -42 -105 l-21 -55 51 50 c28 27 62 67 77 88 32 46 103 220 103 253 0
32 -27 84 -43 83 -6 0 -43 -13 -80 -29z"/>
<path d="M2223 4472 l2 -107 54 32 c55 33 91 42 91 23 0 -5 -33 -26 -72 -46
-40 -20 -75 -38 -78 -41 -2 -2 -9 -41 -15 -86 l-11 -82 46 -46 c25 -25 56 -69
70 -99 l25 -54 5 59 c5 52 9 61 42 88 21 17 40 28 43 26 3 -3 -9 -24 -25 -46
-17 -23 -35 -64 -41 -96 -14 -67 1 -126 69 -271 46 -99 47 -99 54 -65 16 67
22 433 9 500 -13 68 -90 272 -123 327 -18 30 -61 58 -123 82 l-24 9 2 -107z"/>
<path d="M4892 4498 c-66 -84 -70 -94 -63 -157 l6 -53 32 40 c48 60 71 110 78
175 4 31 5 57 2 57 -3 0 -28 -28 -55 -62z"/>
<path d="M844 4541 c-5 -5 -31 -21 -59 -35 -32 -16 -44 -27 -35 -30 49 -16
133 -37 136 -33 2 2 -4 27 -14 55 -11 31 -22 48 -28 43z"/>
<path d="M3417 4539 c-15 -9 -67 -97 -67 -114 0 -3 13 9 30 27 44 49 36 18
-10 -38 -22 -27 -38 -55 -35 -62 11 -30 16 -181 7 -239 -4 -34 -5 -60 -1 -58
4 3 28 38 53 79 l46 74 -2 171 c-3 159 -4 169 -21 160z"/>
<path d="M3280 4482 c-46 -26 -75 -53 -102 -91 -21 -30 -36 -56 -34 -58 2 -2
39 9 82 25 l79 28 23 58 c13 32 22 62 20 67 -2 5 -32 -8 -68 -29z"/>
<path d="M915 4445 c9 -22 20 -49 25 -61 6 -15 20 -23 52 -27 23 -3 44 -4 46
-3 2 2 -16 18 -40 36 -24 18 -56 47 -71 64 l-29 31 17 -40z"/>
<path d="M1538 4475 c-3 -3 -32 -10 -64 -15 -61 -10 -94 -34 -94 -69 0 -41
172 -281 201 -281 5 0 9 37 9 83 l0 82 -36 20 c-34 18 -93 100 -81 112 3 3 28
-18 56 -46 27 -28 54 -51 60 -51 8 0 41 92 41 114 0 6 -72 56 -81 56 -3 0 -8
-2 -11 -5z"/>
<path d="M3693 4444 c-35 -20 -63 -40 -63 -45 0 -22 52 -111 60 -103 7 7 71
185 66 184 0 -1 -29 -17 -63 -36z"/>
<path d="M5106 4465 c-3 -8 -1 -15 4 -15 6 0 10 7 10 15 0 8 -2 15 -4 15 -2 0
-6 -7 -10 -15z"/>
<path d="M100 4434 c-19 -8 -49 -26 -67 -40 l-33 -25 0 -287 1 -287 38 90 c21
50 68 141 106 203 73 123 84 156 85 273 0 61 -3 78 -16 83 -27 10 -77 6 -114
-10z"/>
<path d="M577 4443 c-53 -4 -58 -6 -73 -36 -10 -18 -28 -47 -42 -64 -16 -23
-20 -33 -11 -33 27 0 114 48 140 76 28 32 53 65 48 62 -2 -1 -30 -3 -62 -5z"/>
<path d="M690 4441 c0 -6 -16 -29 -37 -51 l-36 -41 149 7 c82 4 150 8 152 9 1
1 0 9 -4 18 -11 30 -224 85 -224 58z"/>
<path d="M4026 4430 c-32 -10 -63 -23 -68 -28 -5 -5 -6 -32 -2 -60 l6 -51 75
51 c42 27 100 61 129 75 30 13 54 26 54 29 0 12 -143 0 -194 -16z"/>
<path d="M292 4433 l-33 -4 3 -81 c2 -49 7 -83 14 -85 28 -9 164 131 164 168
0 9 -83 10 -148 2z"/>
<path d="M1651 4374 c-20 -78 -21 -76 39 -88 30 -7 65 -17 77 -24 12 -7 24
-12 28 -12 11 0 -52 84 -93 124 l-41 39 -10 -39z"/>
<path d="M4180 4387 c-30 -13 -84 -42 -118 -65 -35 -23 -73 -44 -84 -48 -12
-3 -17 -11 -14 -21 3 -8 6 -21 6 -29 0 -9 12 -14 36 -14 l37 0 -7 40 c-8 53 9
51 26 -2 14 -40 18 -43 59 -50 24 -4 53 -10 65 -12 16 -4 23 2 32 27 12 34 69
103 78 94 3 -2 -9 -26 -25 -53 -17 -26 -31 -62 -31 -79 0 -30 1 -30 57 -33 32
-2 80 -8 107 -13 27 -5 75 -9 107 -9 69 0 72 6 35 78 -30 59 -113 142 -176
176 -70 38 -123 42 -190 13z"/>
<path d="M5075 4362 c-22 -16 -56 -46 -74 -66 l-35 -36 30 0 c17 0 35 -5 41
-11 14 -14 72 -2 79 16 3 7 4 38 2 69 l-3 58 -40 -30z"/>
<path d="M1220 4372 c0 -30 53 -78 135 -121 l91 -47 -47 71 c-26 39 -53 76
-61 82 -18 14 -118 28 -118 15z"/>
<path d="M3830 4339 c-107 -58 -115 -68 -129 -151 -6 -39 -10 -73 -7 -75 4 -4
106 66 106 73 0 2 -14 17 -31 32 -48 43 -32 57 23 21 l47 -31 35 21 c52 33 58
43 50 100 -4 28 -9 51 -13 51 -3 0 -40 -19 -81 -41z"/>
<path d="M4873 4310 c-30 -35 -45 -90 -25 -90 13 0 64 98 60 115 -2 9 -14 1
-35 -25z"/>
<path d="M3245 4325 c-22 -8 -59 -14 -83 -14 -36 -1 -43 -4 -38 -18 20 -68 28
-128 33 -269 5 -147 0 -222 -23 -314 -13 -51 15 -4 55 93 87 211 128 386 115
489 -4 26 -9 48 -13 47 -3 -1 -24 -7 -46 -14z"/>
<path d="M680 4320 c-93 -6 -170 -24 -170 -39 0 -4 26 -15 58 -25 76 -24 141
-66 202 -133 27 -30 50 -53 50 -50 0 2 -16 50 -35 107 -20 56 -34 108 -32 114
6 15 68 -121 98 -213 23 -71 31 -82 176 -240 150 -164 208 -218 182 -169 -7
12 -24 39 -38 58 -14 20 -36 58 -48 86 -34 74 -169 423 -184 472 l-12 42 -76
-2 c-42 0 -119 -4 -171 -8z"/>
<path d="M960 4321 c0 -20 32 -97 47 -113 25 -28 37 -21 14 8 -44 56 -15 61
34 7 29 -32 45 -40 97 -49 35 -7 64 -11 65 -10 1 1 -3 24 -10 51 l-12 49 -80
27 c-88 29 -155 42 -155 30z"/>
<path d="M3041 4243 c-75 -48 -140 -118 -211 -226 -64 -96 -76 -126 -66 -154
5 -12 13 -6 35 30 16 25 45 62 64 84 19 21 44 57 55 80 22 43 82 96 82 71 0
-7 -9 -24 -20 -38 -11 -14 -20 -28 -20 -32 0 -3 33 6 73 22 39 15 74 26 76 24
11 -10 -28 -36 -92 -61 -52 -20 -84 -41 -118 -75 -69 -72 -132 -199 -72 -146
19 17 88 48 105 48 6 0 4 -7 -3 -16 -15 -18 -118 -66 -128 -60 -3 2 -6 -65 -6
-150 0 -85 1 -154 2 -154 1 0 13 16 27 36 22 32 23 38 10 62 -15 28 -19 62 -7
62 3 0 15 -8 25 -17 17 -15 21 -15 29 -3 5 8 9 35 8 60 -2 68 -1 72 23 68 14
-2 24 -12 28 -26 l5 -24 21 29 c11 15 29 43 38 62 12 23 21 30 26 22 5 -9 15
-3 34 19 16 20 26 26 26 16 0 -8 -34 -55 -76 -103 -41 -48 -82 -100 -90 -115
l-14 -27 69 33 c39 18 78 36 88 38 22 6 40 71 49 176 l6 67 -50 27 c-27 15
-55 34 -62 43 -21 25 20 19 62 -10 20 -14 39 -25 42 -25 11 0 5 215 -7 266
l-12 52 -54 -35z"/>
<path d="M1633 4191 c3 -43 10 -88 17 -100 6 -12 48 -61 92 -109 87 -94 162
-201 191 -272 11 -25 28 -65 39 -90 12 -25 31 -72 44 -105 25 -64 24 -63 -43
26 -39 50 -40 44 -12 -58 26 -96 71 -163 108 -163 31 0 74 -27 66 -41 -4 -5
-22 -9 -42 -9 l-36 0 7 -66 c4 -37 14 -80 22 -96 l15 -29 45 50 c25 28 52 51
59 51 20 0 31 -23 14 -29 -8 -2 -33 -25 -56 -50 -32 -34 -43 -54 -43 -79 0
-51 45 -228 84 -330 20 -52 36 -101 37 -110 1 -27 86 157 100 216 24 104 -10
208 -193 577 -107 215 -150 336 -198 555 -25 114 -46 162 -93 216 -37 43 -126
95 -191 113 l-39 10 6 -78z"/>
<path d="M1234 4238 c4 -13 9 -35 12 -50 6 -26 10 -28 53 -28 42 0 111 -14
166 -34 28 -11 -67 50 -150 95 -82 45 -90 47 -81 17z"/>
<path d="M417 4243 c-16 -3 -53 -28 -89 -62 l-61 -57 44 -55 44 -55 136 1 135
0 -48 74 c-26 40 -48 80 -48 87 0 31 22 10 78 -73 52 -79 62 -89 98 -96 21 -5
65 -17 96 -26 l57 -17 -22 30 c-12 17 -58 67 -102 112 -74 75 -86 83 -168 112
-48 18 -96 31 -105 31 -9 -1 -30 -4 -45 -6z"/>
<path d="M3574 4189 c-44 -28 -92 -63 -108 -78 -28 -26 -80 -100 -74 -106 2
-1 55 -6 119 -9 l116 -7 16 103 c10 57 20 113 23 126 4 12 2 22 -4 22 -5 0
-45 -23 -88 -51z"/>
<path d="M4928 4223 c-23 -27 -48 -79 -52 -110 -2 -15 -7 -36 -11 -46 -10 -25
3 -90 18 -84 7 3 49 22 95 42 116 51 126 38 14 -19 -51 -26 -95 -52 -98 -60
-3 -7 4 -46 15 -87 11 -41 25 -93 31 -117 l11 -42 56 45 c31 26 69 53 85 61
l28 15 0 204 c0 189 -1 205 -17 205 -35 -1 -99 -38 -156 -90 -32 -29 -61 -50
-64 -46 -4 4 19 32 50 64 54 54 56 58 37 70 -25 15 -24 15 -42 -5z"/>
<path d="M3915 4220 c-3 -5 -1 -10 4 -10 6 0 11 5 11 10 0 6 -2 10 -4 10 -3 0
-8 -4 -11 -10z"/>
<path d="M2040 4150 c0 -45 4 -53 42 -89 24 -22 46 -37 50 -35 5 3 8 31 8 63
0 63 -5 69 -72 99 l-28 12 0 -50z"/>
<path d="M3879 4153 c5 -10 21 -29 35 -42 l26 -24 0 41 c0 41 -1 42 -35 42
-31 0 -34 -2 -26 -17z"/>
<path d="M3970 4128 c0 -74 5 -80 109 -133 l97 -51 -57 111 -58 110 -45 3 -46
3 0 -43z"/>
<path d="M4118 4113 c17 -32 47 -83 67 -113 20 -30 44 -68 52 -83 20 -40 26
-28 10 19 -8 21 -20 71 -26 109 -17 101 -18 102 -59 109 -20 4 -45 9 -55 12
-16 5 -14 -3 11 -53z"/>
<path d="M3755 4109 c-86 -62 -81 -57 -90 -98 l-7 -34 128 7 c145 7 169 17
141 58 -9 13 -36 44 -59 71 l-43 47 -70 -51z"/>
<path d="M1030 4137 c0 -4 11 -29 24 -55 13 -26 36 -78 51 -117 15 -38 44
-101 64 -140 l35 -70 7 75 c4 41 10 92 13 113 6 33 4 37 -15 37 -28 0 -89 38
-89 55 0 8 24 21 55 31 45 15 55 22 55 40 0 19 -8 24 -52 33 -58 12 -148 11
-148 -2z"/>
<path d="M1260 4119 c0 -8 3 -31 6 -51 l6 -37 54 36 c61 40 67 53 25 53 -16 0
-43 3 -60 6 -23 5 -31 3 -31 -7z"/>
<path d="M4243 4114 c3 -11 8 -37 12 -60 l6 -41 64 34 c36 19 67 38 70 43 3 4
-28 14 -67 20 -40 7 -77 15 -82 17 -4 3 -6 -3 -3 -13z"/>
<path d="M2180 4062 l0 -62 73 -79 c39 -43 73 -78 74 -77 2 1 -6 33 -16 70
-18 65 -70 154 -111 191 -20 18 -20 17 -20 -43z"/>
<path d="M228 4068 c-32 -42 -82 -128 -75 -128 3 0 21 9 39 19 18 11 53 25 78
32 25 7 47 14 49 15 2 2 -35 57 -60 87 -4 5 -18 -6 -31 -25z"/>
<path d="M1412 4082 c-17 -11 30 -139 60 -165 11 -9 52 -26 92 -38 39 -11 97
-29 129 -39 67 -22 71 -16 29 51 -69 107 -258 224 -310 191z"/>
<path d="M4355 4037 c-44 -23 -82 -43 -84 -45 -3 -1 5 -33 17 -71 27 -83 64
-137 134 -191 62 -49 61 -49 72 80 8 90 28 197 45 243 17 45 -6 33 -90 -47
-71 -68 -146 -122 -138 -98 2 5 24 26 49 47 24 20 66 57 93 81 l49 44 -33 0
c-20 -1 -67 -18 -114 -43z"/>
<path d="M2040 4015 c0 -65 19 -184 44 -280 17 -66 74 -217 75 -199 1 7 -15
79 -35 160 -41 169 -43 198 -19 244 16 31 16 33 -8 59 -13 14 -31 37 -40 51
-17 24 -17 24 -17 -35z"/>
<path d="M4786 4049 c-20 -29 -20 -70 -1 -179 8 -47 15 -87 15 -90 1 -3 7 6
14 19 18 33 27 12 15 -34 -6 -21 -8 -63 -4 -96 7 -58 18 -79 30 -59 3 5 13 10
21 10 8 0 12 -4 9 -10 -3 -5 -4 -10 -1 -10 3 0 13 14 22 31 20 39 13 82 -47
278 -50 168 -51 170 -73 140z"/>
<path d="M1323 4027 c-29 -17 -55 -37 -57 -43 -10 -26 -28 -244 -22 -267 8
-31 52 -84 108 -129 l40 -32 -14 30 c-9 16 -23 74 -33 129 -10 55 -20 106 -23
114 -3 9 -1 12 6 7 25 -15 55 -93 59 -151 4 -55 45 -166 62 -165 3 0 15 7 25
15 11 8 28 15 38 15 10 0 18 2 18 5 0 9 -52 86 -103 154 -26 35 -45 66 -42 69
10 10 95 -81 146 -155 27 -39 54 -75 60 -79 25 -15 -5 65 -66 176 -65 118 -99
195 -130 288 -9 28 -17 52 -18 52 -1 -1 -26 -15 -54 -33z"/>
<path d="M1181 4035 l-43 -10 34 -17 c39 -18 61 -11 56 19 -3 17 -7 18 -47 8z"/>
<path d="M4565 3994 c-9 -25 -21 -75 -26 -112 -11 -86 -11 -239 -1 -246 11 -6
70 72 107 141 20 39 26 59 20 80 -12 51 -66 183 -74 183 -5 0 -16 -20 -26 -46z"/>
<path d="M3969 3973 c-15 -39 -25 -243 -12 -243 17 0 43 36 43 59 0 12 -5 42
-11 66 -12 48 -7 98 6 57 5 -16 11 -20 20 -12 7 5 29 16 50 23 l37 13 -61 32
-61 32 -11 -27z"/>
<path d="M437 3974 c-13 -4 23 -25 110 -64 70 -31 173 -79 228 -104 l100 -47
-45 38 c-25 20 -77 69 -117 107 l-72 69 -93 3 c-51 2 -101 1 -111 -2z"/>
<path d="M810 3856 c107 -109 120 -118 194 -147 43 -16 80 -28 83 -26 7 7
-114 152 -166 199 -48 43 -111 71 -186 84 l-40 6 115 -116z"/>
<path d="M3403 3959 c-17 -5 -47 -27 -65 -49 -40 -45 -126 -205 -117 -215 8
-7 135 67 184 108 19 15 54 57 79 92 37 53 42 65 27 65 -10 0 -31 2 -47 4 -16
3 -43 1 -61 -5z"/>
<path d="M2135 3929 c-18 -34 -19 -58 -3 -126 9 -38 17 -52 27 -48 9 4 12 0 9
-13 -14 -54 48 -274 114 -406 22 -44 71 -130 108 -193 38 -62 71 -127 75 -143
14 -63 25 -14 25 108 -1 222 -48 470 -115 603 -10 19 -64 82 -121 140 l-105
107 -14 -29z"/>
<path d="M3541 3906 c-17 -24 -63 -74 -103 -111 l-72 -67 39 7 c88 14 141 26
152 33 7 5 16 22 19 40 l7 32 -44 0 c-55 0 -39 22 18 24 41 1 51 13 52 59 1
43 -33 35 -68 -17z"/>
<path d="M3650 3938 c0 -7 -3 -31 -6 -53 -4 -32 -3 -36 6 -22 7 11 24 17 49
17 33 0 131 48 131 65 0 3 -40 5 -90 5 -65 0 -90 -3 -90 -12z"/>
<path d="M3825 3910 c-27 -24 -67 -46 -99 -55 -36 -11 -59 -25 -74 -45 -29
-38 -28 -44 3 -24 37 24 42 10 6 -16 -27 -18 -31 -28 -31 -66 0 -39 3 -45 18
-40 9 3 50 13 91 22 63 14 82 23 122 60 44 42 47 48 54 111 4 37 9 72 12 80 4
9 -4 13 -25 13 -21 0 -45 -12 -77 -40z"/>
<path d="M311 3928 l-34 -9 6 -92 c3 -51 15 -123 27 -161 l22 -69 27 50 c16
28 53 87 84 131 32 44 57 82 57 85 0 10 -119 77 -137 76 -10 0 -33 -5 -52 -11z"/>
<path d="M4072 3902 c-24 -13 -46 -30 -48 -36 -7 -18 14 -68 26 -61 19 12 126
25 158 19 45 -9 40 -24 -8 -24 -54 0 -140 -19 -140 -32 0 -5 33 -68 73 -138
l72 -129 3 82 c2 96 8 127 23 127 7 0 8 -15 4 -42 l-7 -43 31 60 c17 33 31 70
31 83 0 27 -78 107 -137 138 l-38 21 -43 -25z"/>
<path d="M205 3888 c-33 -18 -66 -51 -91 -90 -34 -53 -74 -178 -74 -230 l0
-43 61 62 60 62 20 -32 c23 -38 79 -180 79 -201 0 -37 18 -21 24 21 10 74 7
124 -14 244 -11 63 -20 131 -20 151 0 39 -8 68 -19 68 -3 0 -15 -6 -26 -12z"/>
<path d="M1521 3790 c32 -60 62 -105 75 -110 23 -9 44 -68 44 -123 0 -20 3
-38 8 -40 4 -3 34 -8 67 -12 l59 -8 -27 32 c-45 54 -30 58 22 7 30 -29 68 -55
98 -66 26 -9 56 -20 65 -25 17 -7 17 -4 4 33 -20 55 -41 94 -89 166 -23 33
-53 82 -66 107 -24 45 -25 45 -115 69 -76 19 -122 36 -190 68 -5 3 16 -41 45
-98z"/>
<path d="M2699 3847 c-91 -145 -112 -228 -113 -437 0 -85 5 -166 10 -179 10
-24 13 -21 76 62 l66 87 7 166 c7 160 3 258 -13 316 l-7 28 -26 -43z"/>
<path d="M479 3779 c-40 -68 -42 -72 -25 -85 10 -7 37 -15 60 -18 42 -5 416
-15 416 -10 0 1 -44 10 -97 20 -116 21 -154 38 -245 110 l-67 54 -42 -71z"/>
<path d="M636 3791 c56 -55 64 -60 120 -66 32 -4 74 -10 92 -15 53 -14 27 6
-45 34 -38 15 -104 45 -148 67 l-80 39 61 -59z"/>
<path d="M1784 3825 c12 -50 46 -114 87 -162 l39 -44 0 32 c0 24 -15 53 -56
108 -74 99 -78 103 -70 66z"/>
<path d="M4653 3748 c-11 -24 -39 -64 -61 -89 l-41 -46 27 -27 c34 -32 35 -32
72 -4 42 30 51 14 11 -20 l-32 -27 36 -35 37 -35 -4 153 c-2 83 -9 157 -14
162 -7 7 -17 -4 -31 -32z"/>
<path d="M5023 3698 c-80 -98 -123 -154 -123 -163 0 -4 19 -30 43 -58 24 -29
53 -68 65 -87 l22 -35 0 55 c0 79 26 235 50 304 11 33 18 61 16 63 -2 2 -35
-33 -73 -79z"/>
<path d="M3573 3693 c-21 -52 -22 -53 -2 -53 24 0 31 17 27 66 l-3 39 -22 -52z"/>
<path d="M3886 3721 c-16 -18 -17 -26 -5 -91 7 -39 16 -73 21 -76 4 -3 8 38 8
90 0 53 -2 96 -3 96 -2 0 -12 -9 -21 -19z"/>
<path d="M3982 3709 c-29 -26 -32 -34 -33 -86 0 -32 -4 -96 -9 -143 -4 -47 -6
-87 -4 -89 2 -2 17 9 35 23 46 39 49 22 5 -23 l-38 -39 11 -95 c6 -53 11 -114
11 -137 0 -54 24 -52 54 5 29 55 28 219 -3 359 -12 55 -20 101 -18 103 10 9
29 -31 48 -103 18 -65 22 -109 23 -251 0 -95 3 -173 6 -173 14 0 83 83 144
173 l66 98 -58 77 c-64 85 -113 164 -161 259 -17 34 -34 64 -38 66 -5 3 -23
-8 -41 -24z m163 -407 c-6 -24 -8 -25 -17 -9 -5 10 -7 30 -3 45 6 24 8 25 17
9 5 -10 7 -30 3 -45z m22 -14 c-3 -8 -6 -5 -6 6 -1 11 2 17 5 13 3 -3 4 -12 1
-19z"/>
<path d="M4293 3687 c-52 -119 -51 -201 3 -279 24 -34 29 -37 42 -25 12 13 11
20 -10 53 -27 43 -41 84 -28 84 4 0 21 -20 37 -45 15 -25 31 -45 35 -45 17 0
81 115 92 165 6 28 1 34 -64 85 -39 30 -74 56 -78 57 -4 2 -17 -21 -29 -50z"/>
<path d="M3463 3712 c-62 -15 -74 -27 -51 -50 17 -17 -4 -15 -28 3 -28 21 -49
19 -118 -14 -65 -32 -56 -20 -164 -206 -22 -38 -39 -71 -38 -73 10 -9 276 100
276 113 0 2 -8 20 -17 39 -14 30 -20 35 -41 29 -29 -7 -23 10 8 27 17 9 23 4
44 -37 14 -27 25 -42 26 -35 0 7 -7 27 -16 43 -8 17 -13 38 -11 47 3 11 12 1
26 -31 25 -54 22 -55 99 17 36 34 92 119 92 141 0 7 -16 5 -87 -13z"/>
<path d="M5103 3662 c-7 -30 -13 -61 -13 -70 0 -15 1 -15 16 -1 11 11 14 31
12 70 l-3 54 -12 -53z"/>
<path d="M3725 3653 c-49 -14 -92 -26 -94 -28 -6 -6 19 -238 30 -279 8 -30 13
-36 20 -25 8 12 10 12 19 -1 5 -8 10 -24 10 -34 0 -20 0 -20 -15 0 -13 16 -13
13 0 -15 l17 -34 25 43 c22 37 25 50 19 99 l-6 56 25 -28 c14 -15 25 -37 25
-47 0 -26 -18 -71 -38 -96 -9 -11 -2 -5 16 13 23 23 32 28 32 17 0 -9 -20 -36
-44 -61 l-44 -44 5 -59 c3 -33 9 -60 12 -60 3 0 42 54 85 120 l79 120 -6 63
c-3 34 -17 109 -31 167 -14 58 -26 113 -26 123 0 21 -3 21 -115 -10z"/>
<path d="M387 3641 c-24 -41 -22 -42 22 -18 30 16 37 25 29 34 -17 20 -32 15
-51 -16z"/>
<path d="M674 3601 l38 -39 67 30 c36 16 70 33 76 39 5 5 -34 9 -105 9 l-114
0 38 -39z"/>
<path d="M910 3628 c-34 -12 -34 -12 40 -19 95 -8 174 -31 223 -64 42 -29 43
-29 21 25 -13 32 -23 42 -53 50 -55 17 -191 21 -231 8z"/>
<path d="M3045 3627 c-49 -20 -89 -44 -110 -67 -17 -19 -20 -36 -20 -120 0
-91 -2 -100 -25 -126 -18 -20 -10 -16 31 14 77 58 128 132 179 262 l20 50 -23
-1 c-12 0 -35 -6 -52 -12z"/>
<path d="M413 3595 c-59 -39 -68 -52 -77 -115 -4 -25 -9 -60 -13 -79 -6 -33
-5 -33 18 -18 13 9 65 32 114 52 83 34 182 84 213 108 10 8 5 19 -25 49 -36
37 -39 38 -108 37 -62 0 -76 -4 -122 -34z"/>
<path d="M3545 3603 c-27 -6 -106 -84 -98 -96 3 -6 1 -7 -4 -4 -14 9 -37 -19
-30 -36 2 -7 33 -18 68 -26 35 -7 76 -19 92 -28 16 -8 31 -12 33 -10 3 3 2 50
-2 106 -7 107 -7 106 -59 94z m-35 -59 c-8 -8 -23 -20 -34 -26 -19 -10 -18 -8
3 16 26 27 53 37 31 10z"/>
<path d="M85 3524 l-58 -65 6 -65 c10 -100 17 -105 65 -48 23 27 50 60 61 74
20 25 20 25 21 3 0 -12 -24 -50 -55 -87 -30 -35 -55 -71 -55 -80 0 -8 16 -49
35 -92 41 -90 46 -89 95 17 40 86 46 131 31 211 -12 63 -68 198 -81 198 -4 0
-33 -30 -65 -66z"/>
<path d="M805 3570 c-22 -11 -44 -21 -50 -24 -5 -2 11 -25 36 -52 25 -27 62
-70 83 -96 35 -45 121 -107 132 -96 2 3 -28 41 -67 84 -69 76 -99 124 -99 160
0 13 3 14 15 4 8 -7 15 -18 15 -25 0 -12 158 -190 203 -228 l22 -19 11 59 c6
32 14 65 18 75 5 11 -4 29 -31 59 l-38 42 35 -6 c37 -7 78 -47 167 -162 25
-33 43 -51 39 -40 -33 95 -64 160 -85 182 -48 48 -163 85 -301 97 -51 4 -73 1
-105 -14z"/>
<path d="M4860 3580 c-9 -6 -10 -10 -3 -10 6 0 15 5 18 10 8 12 4 12 -15 0z"/>
<path d="M1230 3575 c0 -3 13 -31 29 -63 16 -31 45 -99 65 -150 50 -130 149
-302 174 -302 11 0 35 107 28 119 -4 5 -29 17 -56 26 -58 19 -79 40 -31 31 17
-3 45 -9 61 -12 l30 -6 0 57 0 56 -104 50 c-92 43 -133 69 -110 69 15 0 180
-63 202 -78 36 -23 25 3 -16 40 -47 42 -272 177 -272 163z"/>
<path d="M4517 3553 c-4 -3 -6 -40 -6 -82 1 -58 3 -68 8 -41 9 42 28 80 41 80
13 0 13 0 -5 -50 -19 -53 -21 -193 -2 -169 43 55 88 102 93 96 9 -8 -13 -40
-70 -103 -41 -46 -47 -59 -56 -121 -5 -39 -12 -78 -16 -87 -8 -21 -7 -21 58 8
50 22 55 27 51 50 -3 14 -2 33 1 43 6 15 8 15 16 3 6 -8 10 -25 10 -37 0 -20
2 -20 30 -10 l30 12 -6 105 c-7 126 -24 167 -103 252 -55 59 -62 63 -74 51z"/>
<path d="M5104 3539 c-7 -8 -15 -34 -18 -59 l-7 -45 21 32 c23 34 26 100 4 72z"/>
<path d="M652 3497 c-50 -30 -52 -32 -30 -41 13 -5 68 -29 122 -53 55 -23 104
-43 109 -43 5 0 -6 19 -24 43 -39 50 -111 127 -119 126 -3 0 -29 -15 -58 -32z"/>
<path d="M1532 3478 c45 -55 58 -58 58 -15 0 27 -5 36 -25 45 -14 7 -35 12
-47 12 -19 0 -17 -4 14 -42z"/>
<path d="M4829 3453 c-18 -45 -23 -79 -23 -153 -1 -122 3 -133 46 -118 48 16
50 19 32 72 -26 77 -1 77 35 0 21 -43 24 -46 53 -40 17 3 39 6 49 6 17 0 17 3
5 45 -8 25 -26 64 -40 88 -31 54 -114 157 -126 157 -5 0 -19 -26 -31 -57z"/>
<path d="M2852 3448 c-11 -29 -24 -84 -27 -123 l-6 -70 21 25 c12 14 28 39 36
57 15 34 20 163 6 163 -5 0 -18 -24 -30 -52z"/>
<path d="M4472 3484 c-1 -6 -29 -43 -61 -81 l-59 -70 56 -93 c56 -92 56 -92
64 -61 5 17 7 95 5 173 -1 79 -4 138 -5 132z"/>
<path d="M1626 3465 c-3 -9 -6 -22 -6 -29 0 -16 181 -102 235 -112 l39 -7 -46
64 c-48 67 -60 74 -175 94 -32 5 -42 3 -47 -10z"/>
<path d="M3281 3413 c-54 -25 -70 -37 -60 -44 16 -10 5 -12 -41 -10 -47 3
-157 -37 -174 -64 -21 -32 -13 -31 70 6 37 17 80 35 94 40 52 18 -50 -59 -108
-82 -31 -12 -62 -27 -68 -33 -11 -12 -58 -156 -52 -160 1 -2 59 15 128 38
l125 41 50 98 c28 55 69 120 92 147 23 26 39 50 36 54 -9 8 -10 8 -92 -31z"/>
<path d="M535 3429 c-21 -10 -21 -11 8 -68 15 -32 33 -88 40 -124 6 -38 16
-66 21 -64 13 4 45 102 45 140 1 15 7 41 15 56 14 27 14 28 -17 43 -46 22 -89
28 -112 17z"/>
<path d="M1856 3413 c69 -107 65 -103 106 -103 37 0 38 1 27 23 -19 37 -62 78
-98 93 -48 20 -56 18 -35 -13z"/>
<path d="M5102 3422 c-7 -13 -12 -40 -10 -60 3 -36 3 -36 16 -14 7 13 12 40
10 60 -3 36 -3 36 -16 14z"/>
<path d="M3456 3343 c19 -43 44 -122 56 -175 31 -137 45 -129 49 28 4 118 5
127 28 145 l23 19 -45 19 c-48 21 -114 41 -133 41 -7 0 2 -32 22 -77z"/>
<path d="M443 3388 c-40 -21 -63 -55 -63 -96 0 -12 4 -12 23 4 l22 19 -19 -22
c-10 -13 -23 -20 -27 -17 -14 8 -10 -53 5 -90 12 -30 18 -34 67 -39 108 -13
102 -18 97 71 -4 72 -40 193 -56 191 -4 0 -26 -10 -49 -21z"/>
<path d="M1144 3343 c-10 -95 -1 -105 141 -180 65 -34 119 -62 120 -60 1 1
-20 38 -47 82 -43 72 -65 97 -37 42 18 -36 -4 -7 -61 76 -48 71 -83 107 -101
107 -4 0 -11 -30 -15 -67z"/>
<path d="M3347 3356 c-39 -58 -107 -190 -107 -206 0 -5 12 -10 28 -10 23 0 30
7 47 52 19 49 67 99 82 85 3 -4 -5 -20 -19 -35 -25 -26 -48 -64 -48 -77 0 -4
27 18 60 47 51 45 59 57 54 78 -9 38 -46 120 -54 120 -4 0 -23 -24 -43 -54z"/>
<path d="M680 3333 c-6 -32 -16 -76 -20 -98 -11 -48 -3 -58 19 -25 8 14 38 49
65 78 27 29 47 54 45 56 -6 6 -88 46 -93 46 -2 0 -10 -26 -16 -57z"/>
<path d="M1614 3378 c-3 -5 9 -40 28 -76 120 -229 139 -271 145 -305 3 -22 13
-44 21 -50 9 -7 42 -38 74 -70 l58 -58 0 36 c0 43 -11 66 -56 119 -41 48 -69
119 -97 249 l-22 99 -72 33 c-45 21 -75 30 -79 23z"/>
<path d="M331 3334 c-27 -22 -61 -97 -50 -108 2 -2 15 -2 29 1 21 4 27 14 40
69 9 35 15 64 14 64 -1 0 -16 -12 -33 -26z"/>
<path d="M2758 3328 c-22 -34 -69 -128 -64 -128 3 0 20 9 40 20 30 18 35 28
41 71 8 59 4 69 -17 37z"/>
<path d="M755 3269 c-31 -39 -55 -72 -53 -73 7 -6 228 68 228 75 0 5 -27 22
-59 39 l-59 29 -57 -70z"/>
<path d="M1570 3285 c0 -17 -3 -39 -6 -51 -4 -17 1 -23 33 -33 21 -7 44 -15
51 -18 18 -7 7 13 -42 82 -36 49 -36 50 -36 20z"/>
<path d="M1806 3281 c15 -64 57 -208 69 -238 8 -18 28 -51 46 -73 36 -44 49
-40 49 17 0 48 -14 76 -70 137 -55 61 -66 89 -24 61 34 -22 41 -12 21 30 -9
20 -17 41 -17 47 0 14 78 -73 106 -119 l21 -34 6 28 c5 26 2 68 -9 121 -4 20
-10 22 -67 22 -34 1 -79 7 -99 14 l-38 14 6 -27z"/>
<path d="M3593 3298 c-4 -7 -9 -61 -11 -120 l-4 -108 52 0 53 0 -6 59 c-6 58
-52 181 -68 181 -4 0 -11 -6 -16 -12z"/>
<path d="M4262 3259 c-13 -23 -20 -39 -15 -37 4 2 23 10 41 17 34 14 40 29 20
49 -18 18 -21 16 -46 -29z"/>
<path d="M5101 3293 c0 -5 4 -17 9 -28 8 -18 9 -17 9 8 1 15 -3 27 -9 27 -5 0
-10 -3 -9 -7z"/>
<path d="M0 3228 c0 -27 5 -37 20 -41 19 -5 19 -3 4 31 -20 49 -24 51 -24 10z"/>
<path d="M935 3232 c-39 -25 -160 -153 -180 -193 l-16 -30 83 6 c82 7 83 7
132 55 l49 48 -57 7 c-56 7 -88 25 -44 25 60 0 195 -23 245 -42 57 -21 123
-71 111 -83 -4 -4 -21 0 -39 9 -18 9 -34 14 -37 11 -12 -11 114 -117 174 -145
52 -25 256 -100 271 -100 2 0 -47 48 -108 108 -114 110 -171 153 -271 202 -32
16 -79 44 -105 63 -63 45 -127 77 -155 77 -13 0 -36 -8 -53 -18z"/>
<path d="M2878 3214 c-57 -35 -58 -36 -52 -73 4 -24 0 -51 -10 -75 l-16 -38
38 7 c20 4 42 11 49 17 13 11 63 153 63 181 0 23 -6 22 -72 -19z"/>
<path d="M3410 3200 c-25 -25 -57 -55 -71 -66 -24 -20 -26 -26 -19 -64 12 -64
19 -67 105 -40 l76 24 -7 45 c-4 25 -14 69 -23 96 l-16 50 -45 -45z"/>
<path d="M3842 3158 c-53 -79 -53 -80 -25 -72 15 4 43 8 61 8 l32 -1 0 74 c0
40 -3 73 -7 73 -5 0 -32 -37 -61 -82z"/>
<path d="M4300 3196 c-54 -39 -210 -201 -210 -217 0 -26 289 169 289 196 0 6
-7 20 -17 32 l-17 22 -45 -33z"/>
<path d="M325 3205 c-5 -2 -22 -6 -37 -9 -45 -10 -34 -32 19 -40 25 -3 48 -4
50 -2 6 6 -8 56 -16 55 -3 0 -10 -2 -16 -4z"/>
<path d="M765 3183 c-156 -49 -169 -55 -179 -91 -5 -18 -7 -35 -4 -37 14 -15
198 73 253 120 47 41 37 42 -70 8z"/>
<path d="M1560 3153 c0 -16 -7 -55 -15 -88 l-14 -60 112 -110 112 -110 3 55
c5 74 -14 162 -49 236 -26 55 -34 64 -78 83 -64 27 -71 27 -71 -6z"/>
<path d="M4960 3166 c-89 -20 -130 -37 -130 -52 0 -14 17 -93 26 -123 4 -11 9
-9 21 8 22 33 90 61 147 61 45 0 48 1 42 23 -3 12 -9 39 -12 60 -7 41 -9 42
-94 23z"/>
<path d="M16 3148 c-22 -31 -22 -133 -1 -124 8 3 29 0 47 -6 28 -10 30 -12 12
-19 -10 -4 -31 -8 -46 -8 -28 -1 -28 -2 -28 -70 0 -67 1 -70 32 -90 l33 -20
11 77 c7 42 15 98 19 124 7 40 4 56 -19 103 -15 30 -31 55 -36 55 -5 0 -16
-10 -24 -22z"/>
<path d="M2762 3144 c-23 -16 -31 -75 -13 -103 14 -21 27 -6 40 44 15 59 5 81
-27 59z"/>
<path d="M4364 3129 c-28 -31 -151 -121 -216 -158 -49 -27 -128 -111 -128
-135 0 -3 29 -6 65 -6 63 0 67 2 110 41 25 23 45 49 45 58 0 9 5 23 10 31 9
13 12 13 20 -2 9 -15 18 -12 85 30 44 28 74 54 74 64 1 23 -29 98 -39 98 -4 0
-15 -9 -26 -21z"/>
<path d="M263 3085 c4 -25 14 -77 23 -115 l17 -68 59 46 c58 43 60 46 54 81
-3 20 -6 44 -6 53 0 23 -24 34 -94 43 l-59 7 6 -47z"/>
<path d="M440 3099 c0 -26 28 -190 33 -195 2 -2 19 41 37 96 19 54 32 102 28
106 -4 3 -27 9 -53 11 -42 5 -45 4 -45 -18z"/>
<path d="M1968 3090 c11 -19 22 -42 25 -50 4 -10 6 -8 6 7 1 12 -11 35 -25 50
l-26 28 20 -35z"/>
<path d="M2060 3119 c0 -3 -11 -58 -25 -123 -27 -129 -32 -253 -14 -351 13
-74 22 -91 100 -196 l63 -84 27 89 28 90 -34 81 c-52 127 -73 199 -100 344
-14 74 -30 140 -35 145 -6 6 -10 8 -10 5z"/>
<path d="M2683 3088 c-11 -13 -29 -36 -39 -52 l-18 -29 44 28 c25 16 46 30 48
31 1 0 -1 11 -6 23 l-8 22 -21 -23z"/>
<path d="M3230 3081 c0 -16 -3 -44 -7 -62 -6 -31 -5 -33 11 -20 23 19 46 65
46 91 0 15 -6 20 -25 20 -21 0 -25 -5 -25 -29z"/>
<path d="M193 3038 c-17 -35 -34 -80 -38 -102 l-6 -38 47 7 c61 9 76 15 71 29
-3 6 -12 46 -22 89 -9 42 -18 77 -20 77 -1 0 -16 -28 -32 -62z"/>
<path d="M665 3056 l-90 -43 -62 -143 c-35 -79 -61 -145 -59 -147 8 -8 253
280 278 326 16 28 27 51 25 51 -1 0 -42 -20 -92 -44z"/>
<path d="M991 3056 c-45 -45 -42 -56 13 -56 12 0 60 -11 106 -25 111 -33 119
-32 81 10 -17 20 -31 46 -31 59 0 18 -9 28 -40 40 -62 25 -81 20 -129 -28z"/>
<path d="M3181 3078 c-6 -15 -13 -58 -16 -95 l-5 -68 20 85 c20 87 21 127 1
78z"/>
<path d="M3035 3056 c-55 -17 -105 -34 -112 -39 -17 -11 -73 -161 -73 -196 0
-17 7 -49 16 -71 l17 -41 17 28 c27 43 115 140 174 191 50 43 55 52 61 100 4
30 5 55 3 56 -2 2 -48 -11 -103 -28z"/>
<path d="M4612 3053 c-50 -24 -70 -39 -64 -46 5 -7 21 -33 36 -59 l27 -48 49
26 c27 14 59 24 72 22 18 -4 10 -10 -39 -32 -35 -16 -63 -34 -63 -41 0 -6 8
-36 19 -66 10 -31 22 -74 26 -98 7 -42 7 -42 27 -24 11 10 34 45 51 78 25 47
32 55 35 38 4 -26 -31 -98 -66 -136 l-26 -28 44 -38 45 -39 18 56 c40 125 32
191 -45 373 -28 67 -47 99 -57 98 -9 0 -49 -16 -89 -36z m158 -223 c0 -13 -43
-30 -76 -30 -41 0 -29 28 14 33 20 2 43 4 50 5 6 1 12 -3 12 -8z"/>
<path d="M3988 3047 c-19 -16 -27 -33 -30 -64 l-3 -41 25 18 c42 30 62 57 58
81 -4 31 -18 33 -50 6z"/>
<path d="M3820 3043 c-35 -25 -56 -51 -85 -108 l-25 -49 42 -21 c47 -22 67
-53 27 -39 -65 22 -70 18 -99 -96 -16 -58 -27 -106 -25 -108 1 -1 25 15 52 37
32 25 69 70 104 127 65 104 86 153 95 223 l7 51 -34 0 c-19 0 -46 -8 -59 -17z"/>
<path d="M3253 2991 c-32 -37 -44 -62 -57 -114 -6 -27 -6 -27 64 19 38 26 70
51 70 55 0 13 -33 79 -39 78 -3 0 -20 -18 -38 -38z"/>
<path d="M3540 3007 c0 -13 5 -61 11 -106 l11 -83 -41 -42 c-27 -28 -38 -45
-31 -52 5 -5 23 -45 39 -89 l28 -78 31 79 c33 86 77 259 87 342 l7 52 -71 0
c-68 0 -71 -1 -71 -23z"/>
<path d="M4980 3021 c-19 -4 -46 -13 -58 -20 -21 -11 -23 -18 -18 -49 3 -21 9
-70 12 -110 l7 -72 31 19 c17 11 50 25 74 32 l42 12 0 99 0 98 -27 -1 c-16 -1
-44 -4 -63 -8z"/>
<path d="M2653 2980 c-27 -21 -62 -57 -76 -79 -27 -40 -87 -181 -87 -203 0
-27 248 26 282 60 13 13 -46 262 -62 262 -4 0 -30 -18 -57 -40z"/>
<path d="M3455 3008 c-16 -6 -45 -17 -63 -24 l-33 -13 51 -102 c51 -100 51
-101 72 -83 37 34 40 51 27 145 -6 49 -15 89 -18 88 -3 0 -19 -5 -36 -11z"/>
<path d="M2825 3001 c-28 -6 -30 -10 -28 -46 4 -60 16 -60 46 0 15 30 23 54
19 54 -4 -1 -20 -4 -37 -8z"/>
<path d="M4420 2947 c-61 -48 -124 -116 -116 -124 3 -3 44 14 91 37 62 32 88
41 96 33 8 -8 0 -17 -32 -33 -54 -27 -109 -68 -109 -81 0 -5 12 -9 26 -9 32 0
64 -17 64 -33 0 -7 40 -29 90 -48 l90 -36 -6 41 c-10 68 -43 157 -85 228 -22
37 -43 68 -47 68 -4 0 -32 -19 -62 -43z"/>
<path d="M728 2967 c-41 -18 -209 -218 -189 -225 27 -9 174 94 261 182 l54 56
-49 0 c-28 -1 -62 -6 -77 -13z"/>
<path d="M783 2867 c-67 -56 -121 -103 -120 -104 1 0 45 4 97 9 92 10 96 12
141 53 25 23 56 48 68 55 l23 12 -28 30 c-52 54 -50 55 -181 -55z"/>
<path d="M996 2935 c27 -36 33 -36 78 -2 19 14 16 15 -33 26 -74 16 -75 15
-45 -24z"/>
<path d="M4008 2926 c-45 -35 -132 -135 -124 -143 8 -9 62 26 97 64 43 46 83
102 77 109 -3 2 -25 -11 -50 -30z"/>
<path d="M372 2920 c-24 -16 -47 -30 -53 -32 -5 -2 -3 -21 5 -48 9 -29 14 -37
15 -22 1 33 21 27 21 -7 0 -27 -10 -66 -33 -126 l-12 -30 -5 35 c-5 33 -8 35
-68 53 -82 25 -91 21 -85 -40 6 -72 33 -194 50 -231 20 -42 33 -32 83 67 84
169 133 296 138 354 2 31 0 57 -4 57 -5 0 -28 -13 -52 -30z"/>
<path d="M3049 2872 c-35 -37 -85 -93 -111 -123 l-48 -56 28 -50 c15 -28 30
-51 35 -52 4 -1 40 43 81 96 l73 98 6 78 c3 42 4 77 2 77 -1 0 -31 -30 -66
-68z"/>
<path d="M1093 2907 c-47 -23 -49 -25 -30 -51 13 -17 17 -17 93 4 43 12 83 25
87 30 5 4 -12 12 -36 18 -24 7 -51 14 -58 16 -8 3 -33 -5 -56 -17z"/>
<path d="M1804 2850 c4 -41 14 -86 21 -100 14 -26 107 -110 122 -110 5 0 5 36
-1 80 l-9 80 -70 62 -70 62 7 -74z"/>
<path d="M3283 2877 c-34 -23 -75 -50 -92 -59 -30 -17 -31 -19 -31 -87 l0 -70
45 19 c25 11 60 30 78 44 45 33 98 59 105 51 4 -4 -11 -23 -33 -42 l-40 -35
50 7 c77 11 78 15 37 103 -57 122 -48 117 -119 69z"/>
<path d="M215 2880 c-22 -4 -45 -5 -52 -3 -9 4 -13 -8 -13 -41 0 -43 2 -46 28
-46 15 -1 51 -9 80 -19 32 -11 51 -14 49 -7 -3 6 -10 37 -17 69 -7 31 -18 56
-24 56 -6 -1 -29 -5 -51 -9z"/>
<path d="M962 2839 c-23 -17 -42 -33 -42 -35 0 -6 68 6 98 17 19 7 21 12 12
29 -14 26 -19 26 -68 -11z"/>
<path d="M1185 2838 c-22 -6 -42 -12 -44 -14 -6 -5 25 -29 61 -49 25 -14 27
-13 63 30 l36 45 -38 -1 c-21 -1 -56 -6 -78 -11z"/>
<path d="M1287 2797 c-16 -23 -29 -46 -28 -50 0 -8 194 -137 206 -137 4 0 -7
24 -24 54 -40 68 -41 102 -4 78 15 -9 52 -95 61 -141 4 -19 14 -37 21 -39 24
-8 9 127 -20 178 -21 37 -33 46 -99 71 -41 16 -77 29 -80 29 -3 0 -18 -19 -33
-43z"/>
<path d="M1080 2788 c0 -38 39 -187 55 -212 8 -12 28 -29 43 -36 29 -13 112
-40 125 -40 10 0 -6 31 -48 95 -18 28 -36 61 -39 75 -6 23 -5 23 6 6 7 -10 27
-38 45 -62 18 -24 43 -61 57 -83 21 -33 32 -41 68 -46 24 -4 63 -5 87 -3 l43
3 -53 54 c-30 29 -118 96 -196 147 -77 52 -147 101 -153 109 -19 22 -40 18
-40 -7z"/>
<path d="M0 2705 c0 -52 2 -95 4 -95 1 0 17 5 35 11 30 11 31 12 31 74 0 59
-2 65 -29 84 -16 12 -32 21 -35 21 -3 0 -6 -43 -6 -95z"/>
<path d="M4992 2770 c-47 -24 -68 -42 -86 -73 -24 -43 -71 -208 -64 -229 2 -6
34 16 72 50 37 34 87 74 111 89 44 28 44 29 43 83 0 30 -3 68 -7 83 l-6 28
-63 -31z"/>
<path d="M945 2773 c-71 -17 -83 -26 -65 -48 17 -21 193 -136 198 -130 2 2 -4
47 -14 99 -20 109 -14 105 -119 79z"/>
<path d="M3990 2771 c-72 -28 -90 -43 -101 -86 -6 -22 -22 -62 -36 -90 l-25
-50 48 46 c27 25 85 73 129 106 44 33 86 68 94 77 12 14 9 16 -25 16 -22 -1
-59 -9 -84 -19z"/>
<path d="M4251 2781 c-9 -6 2 -14 38 -26 67 -22 87 -14 34 13 -47 24 -52 25
-72 13z"/>
<path d="M1540 2767 c0 -1 6 -23 14 -48 8 -25 17 -77 21 -115 4 -38 16 -90 27
-115 18 -43 23 -47 61 -52 23 -3 62 -9 87 -13 l45 -7 -42 46 c-44 48 -51 70
-56 172 l-2 60 -50 27 c-44 24 -105 50 -105 45z"/>
<path d="M702 2730 c-91 -13 -124 -21 -118 -27 3 -4 44 -16 91 -28 l85 -22 13
21 c8 12 19 31 26 44 11 20 10 22 -16 21 -15 -1 -52 -5 -81 -9z"/>
<path d="M2730 2708 c-55 -28 -176 -58 -230 -58 -26 0 -31 -6 -60 -81 -37 -96
-80 -253 -80 -292 0 -40 70 -113 117 -122 45 -8 93 -32 93 -45 0 -16 -27 -12
-73 10 l-42 21 35 -31 c49 -43 161 -122 167 -116 6 6 -45 104 -73 142 -27 35
-29 44 -11 44 20 0 72 -60 100 -115 29 -58 53 -92 60 -85 2 3 -2 52 -9 109 -8
71 -18 112 -32 130 -10 14 -63 49 -116 77 -96 50 -143 84 -118 84 15 0 167
-76 204 -101 32 -23 39 -24 31 -3 -3 9 -40 33 -82 53 -60 28 -71 36 -53 39 13
2 46 -7 73 -21 27 -13 49 -22 49 -20 0 12 -38 73 -72 117 -49 61 -33 75 23 20
28 -28 39 -33 39 -21 0 9 5 17 11 17 6 0 8 -8 4 -19 -3 -11 4 -40 17 -66 l23
-47 6 43 c3 24 3 57 -1 74 -7 36 -2 67 11 60 5 -4 7 -25 4 -48 -4 -33 -3 -36
4 -17 5 14 9 55 10 91 1 40 7 73 16 85 13 17 14 12 15 -56 0 -47 -8 -98 -20
-138 -21 -66 -26 -112 -12 -112 12 0 127 119 120 125 -3 3 -21 -2 -41 -10 -24
-10 -38 -11 -42 -4 -10 15 -5 18 53 31 29 7 52 16 52 21 0 7 -69 164 -103 237
l-12 25 -55 -27z"/>
<path d="M3062 2686 c-16 -19 -44 -55 -61 -80 -31 -44 -31 -47 -16 -76 20 -38
29 -33 51 28 9 26 21 51 26 57 13 15 10 -18 -7 -65 -21 -60 -10 -63 17 -4 19
44 38 174 25 174 -3 0 -18 -15 -35 -34z"/>
<path d="M4110 2684 c-86 -56 -85 -55 -51 -76 34 -22 31 -23 120 47 59 46 61
50 40 56 -43 12 -54 9 -109 -27z"/>
<path d="M830 2670 c-7 -17 -11 -32 -9 -34 2 -2 38 -16 79 -31 41 -15 86 -38
100 -50 14 -13 47 -30 74 -39 53 -18 72 -15 34 5 -12 6 -72 46 -133 89 -60 42
-115 79 -121 83 -7 4 -17 -6 -24 -23z"/>
<path d="M3406 2616 c-59 -91 -72 -129 -80 -239 l-5 -68 49 41 c66 55 160 163
160 183 0 20 -48 149 -60 161 -5 5 -33 -29 -64 -78z"/>
<path d="M3813 2661 c-28 -22 -60 -52 -70 -68 -20 -28 -66 -153 -59 -160 2 -2
24 19 50 48 43 48 141 207 133 216 -3 2 -27 -14 -54 -36z"/>
<path d="M3340 2670 c-108 -19 -190 -55 -190 -85 0 -8 22 -24 50 -36 27 -12
55 -27 61 -35 16 -20 29 -17 29 5 0 19 39 75 47 67 2 -2 -3 -18 -12 -36 -9
-18 -14 -34 -11 -38 3 -3 6 -1 6 4 0 6 18 40 40 77 39 64 48 88 33 86 -5 -1
-28 -5 -53 -9z"/>
<path d="M4229 2652 c-24 -16 -52 -38 -63 -50 -18 -21 -18 -22 15 -71 18 -28
37 -51 43 -51 6 0 47 32 91 70 44 39 97 79 117 89 l37 18 -50 11 c-86 20 -140
15 -190 -16z"/>
<path d="M1736 2654 c-13 -33 -5 -91 19 -139 34 -70 54 -90 120 -120 74 -32
185 -111 185 -132 0 -8 -6 -13 -12 -10 -119 52 -304 106 -365 107 -33 0 -4
-34 87 -105 159 -124 240 -220 330 -393 53 -103 61 -96 67 62 8 172 -29 286
-154 481 -48 74 -187 218 -240 247 -28 16 -32 16 -37 2z m135 -200 c63 -46 63
-61 0 -30 -61 32 -96 73 -116 138 -25 85 -17 87 26 6 31 -59 54 -87 90 -114z"/>
<path d="M465 2641 c-38 -23 -91 -84 -77 -89 13 -4 313 36 320 43 11 11 -15
24 -88 44 -92 26 -117 26 -155 2z"/>
<path d="M4479 2624 c-29 -9 -67 -32 -98 -60 -51 -46 -51 -47 -31 -61 14 -10
28 -12 39 -7 25 13 160 118 160 125 2 15 -26 16 -70 3z"/>
<path d="M3926 2546 c-45 -35 -72 -62 -64 -64 12 -2 171 68 184 81 2 2 -6 13
-19 24 l-22 21 -79 -62z"/>
<path d="M4503 2549 c-43 -34 -81 -65 -85 -68 -4 -3 36 -33 88 -65 52 -32 98
-55 102 -52 9 9 16 190 8 221 -4 14 -13 25 -21 25 -7 0 -49 -28 -92 -61z"/>
<path d="M33 2575 c-33 -14 -33 -15 -33 -82 0 -38 5 -84 10 -103 6 -19 13 -72
17 -118 7 -93 15 -102 90 -102 l36 0 -6 88 c-7 102 -59 332 -75 332 -4 -1 -22
-7 -39 -15z"/>
<path d="M740 2568 c-36 -13 -104 -23 -205 -29 -82 -6 -155 -12 -162 -14 -12
-4 -83 -136 -83 -155 0 -25 48 -21 95 9 79 50 187 90 312 115 65 13 140 33
167 43 l49 20 -48 16 c-57 20 -54 20 -125 -5z"/>
<path d="M3566 2468 c-58 -68 -101 -124 -96 -126 22 -8 125 54 140 83 8 16 21
34 27 40 16 13 55 125 43 125 -5 0 -56 -55 -114 -122z"/>
<path d="M5020 2550 c-62 -43 -137 -117 -128 -126 4 -3 33 4 66 16 41 15 76
21 112 19 47 -4 51 -2 45 16 -4 11 -11 38 -17 60 -6 22 -14 43 -17 47 -3 3
-31 -11 -61 -32z"/>
<path d="M4680 2561 c0 -5 7 -11 15 -15 8 -3 15 -13 15 -22 0 -10 -5 -14 -15
-10 -13 5 -14 -3 -9 -52 6 -56 26 -102 43 -102 7 0 41 119 41 144 0 2 -20 18
-45 35 -25 17 -45 26 -45 22z"/>
<path d="M3119 2518 c-56 -110 -101 -307 -79 -348 6 -11 15 -20 20 -20 12 0
50 51 94 126 36 63 62 91 73 81 7 -8 -69 -139 -114 -195 l-35 -42 28 -44 28
-44 38 62 c61 96 88 160 106 246 20 98 13 118 -63 167 -28 18 -56 37 -62 43
-9 8 -18 -1 -34 -32z"/>
<path d="M4023 2511 c-69 -34 -88 -51 -60 -51 7 0 28 -8 47 -17 35 -18 35 -18
98 13 l63 31 -26 32 c-15 17 -32 30 -38 29 -7 0 -44 -17 -84 -37z"/>
<path d="M911 2523 c-14 -6 131 -82 156 -83 24 0 23 20 -2 30 -14 5 -42 21
-63 35 -36 24 -62 29 -91 18z"/>
<path d="M810 2479 c-41 -15 -78 -25 -82 -22 -5 2 -8 -5 -8 -16 0 -16 13 -24
66 -41 36 -11 67 -20 69 -20 1 0 6 15 11 33 l8 32 4 -35 c4 -41 11 -47 73 -55
67 -9 89 0 89 36 0 16 -5 29 -12 29 -7 0 -42 19 -78 43 l-66 43 -74 -27z"/>
<path d="M4270 2462 l-23 -19 22 -40 c13 -22 29 -40 36 -40 16 0 27 87 13 105
-14 16 -22 15 -48 -6z"/>
<path d="M1102 2432 c-12 -16 -22 -39 -22 -50 0 -20 0 -20 63 -3 71 21 137 51
137 63 0 4 -12 8 -27 8 -16 0 -51 3 -79 6 -48 6 -52 5 -72 -24z"/>
<path d="M612 2438 l-43 -9 2 -44 3 -44 58 51 c32 27 58 52 58 54 0 6 -30 3
-78 -8z"/>
<path d="M4170 2443 c-46 -13 -100 -36 -100 -41 1 -4 12 -20 26 -37 l24 -30
21 25 c61 77 67 94 29 83z"/>
<path d="M4367 2443 c-4 -3 -7 -34 -7 -67 0 -54 4 -68 36 -115 l36 -53 64 63
c35 35 64 65 64 66 0 4 -62 42 -131 81 -31 17 -59 29 -62 25z"/>
<path d="M3794 2431 c-48 -12 -121 -59 -103 -66 8 -3 77 -4 153 -3 131 3 139
4 153 25 14 21 14 23 -13 34 -37 14 -150 21 -190 10z"/>
<path d="M2903 2408 c-6 -13 -36 -54 -67 -93 -30 -38 -58 -82 -61 -96 -6 -26
26 -221 46 -284 5 -17 34 -55 64 -85 l55 -55 -6 165 -6 165 -32 27 c-30 27
-23 38 14 18 21 -11 24 -2 36 102 6 56 -10 158 -25 158 -4 0 -12 -10 -18 -22z"/>
<path d="M1245 2380 l-100 -39 105 -49 c58 -28 120 -53 138 -57 32 -7 33 -6
26 22 -17 68 -50 157 -59 159 -5 1 -55 -15 -110 -36z"/>
<path d="M1390 2417 c0 -14 53 -155 65 -173 18 -28 57 -36 154 -32 l74 3 -77
92 c-80 96 -107 113 -177 113 -22 0 -39 -1 -39 -3z"/>
<path d="M5010 2411 c-8 -5 -12 -11 -10 -13 18 -13 90 -58 94 -58 7 0 29 61
23 66 -11 11 -92 15 -107 5z"/>
<path d="M467 2385 c-31 -13 -77 -37 -100 -53 -40 -27 -46 -28 -69 -16 -33 17
-35 12 -44 -106 l-7 -90 37 0 c42 0 40 -15 -2 -25 l-28 -6 3 -87 c2 -48 6
-107 9 -132 l6 -45 19 40 c10 22 37 89 60 148 l41 109 -33 34 c-18 18 -30 36
-27 40 3 3 25 -4 49 -15 50 -25 49 -24 49 -8 0 6 26 41 57 75 49 55 57 70 61
113 5 58 2 59 -81 24z"/>
<path d="M4191 2381 l-22 -31 40 0 c46 0 50 7 23 40 l-19 23 -22 -32z"/>
<path d="M4041 2382 c-6 -11 -11 -26 -11 -32 0 -10 49 -34 56 -27 2 2 -4 21
-15 42 -18 37 -19 37 -30 17z"/>
<path d="M636 2352 c-48 -35 -48 -36 -25 -45 13 -5 38 -15 54 -22 l30 -12 -3
46 c-2 25 -4 51 -5 58 -1 7 -23 -4 -51 -25z"/>
<path d="M712 2334 c12 -75 30 -107 99 -176 61 -62 85 -73 75 -35 -5 19 -31
146 -41 202 -3 14 -22 26 -67 43 -35 12 -66 22 -69 22 -3 0 -2 -25 3 -56z"/>
<path d="M4913 2357 l-22 -12 28 -45 c33 -54 47 -66 83 -72 52 -10 41 39 -26
115 -28 30 -32 31 -63 14z"/>
<path d="M5017 2329 c43 -44 65 -50 37 -11 -8 12 -30 29 -47 38 -31 16 -31 15
10 -27z"/>
<path d="M884 2284 c3 -29 17 -88 31 -131 28 -89 54 -120 149 -177 67 -40 81
-44 71 -18 -45 108 -86 230 -98 287 l-14 70 -72 11 -73 11 6 -53z"/>
<path d="M1100 2330 c-22 -6 -25 -11 -23 -51 1 -24 9 -62 17 -84 l15 -40 0 82
c1 55 5 83 14 86 22 8 3 14 -23 7z"/>
<path d="M4171 2319 c-14 -6 -21 -13 -15 -18 11 -11 177 -81 181 -78 1 2 -14
27 -34 55 -32 47 -40 52 -72 51 -20 0 -47 -5 -60 -10z"/>
<path d="M4512 2257 l-73 -74 21 -54 c30 -79 40 -91 40 -49 0 55 19 108 57
166 59 89 37 94 -45 11z"/>
<path d="M4823 2306 c-15 -13 -35 -37 -45 -52 l-16 -29 83 3 83 3 -30 50 c-17
27 -34 49 -39 49 -4 0 -20 -11 -36 -24z"/>
<path d="M1142 2183 c3 -94 9 -139 22 -168 l18 -40 17 56 c23 71 66 151 91
167 31 19 26 -16 -9 -64 -30 -42 -71 -142 -71 -174 0 -67 177 39 265 160 19
26 35 50 35 52 0 3 -34 11 -75 17 -54 9 -106 28 -186 67 l-111 54 4 -127z"/>
<path d="M3622 2292 c-25 -17 -38 -262 -13 -262 4 0 14 13 24 29 9 16 33 43
52 60 19 17 35 36 35 44 0 7 -9 41 -21 75 -17 51 -25 62 -42 62 -12 0 -28 -4
-35 -8z"/>
<path d="M3726 2278 c4 -13 14 -40 23 -61 l16 -38 60 30 c32 17 61 28 64 26 8
-9 -24 -37 -71 -61 -36 -18 -48 -29 -44 -42 3 -9 8 -52 12 -95 l6 -78 30 28
c28 26 131 225 144 277 5 21 1 24 -42 30 -26 3 -82 6 -126 6 -78 0 -79 0 -72
-22z"/>
<path d="M4653 2267 c-29 -31 -87 -137 -79 -144 10 -11 75 69 92 114 20 51 15
62 -13 30z"/>
<path d="M3528 2274 c-6 -5 16 -102 25 -110 3 -3 8 16 12 42 3 26 9 53 12 60
3 10 -3 14 -19 14 -14 0 -27 -3 -30 -6z"/>
<path d="M3976 2217 c-15 -34 -43 -95 -62 -135 l-34 -72 43 21 c76 38 105 67
142 141 l36 73 -28 11 c-67 27 -66 27 -97 -39z"/>
<path d="M519 2232 c-23 -24 -38 -46 -34 -53 4 -6 28 -24 53 -40 52 -33 92
-36 162 -15 49 15 51 23 17 73 -26 39 -62 60 -115 69 -39 6 -44 4 -83 -34z"/>
<path d="M5098 2235 c-15 -37 -15 -41 0 -59 16 -18 17 -17 20 8 2 14 2 40 0
58 l-3 33 -17 -40z"/>
<path d="M3463 2250 c-13 -5 -23 -12 -23 -15 0 -23 65 -94 76 -83 5 5 -19 108
-25 107 -3 0 -16 -4 -28 -9z"/>
<path d="M4122 2197 c-6 -18 -27 -59 -46 -90 l-35 -57 39 0 c50 0 172 -23 256
-50 37 -11 69 -18 71 -16 6 6 -46 81 -81 119 l-26 28 -29 -21 c-34 -23 -50
-12 -21 15 11 10 20 22 20 26 0 9 -110 79 -125 79 -6 0 -16 -15 -23 -33z"/>
<path d="M3351 2179 c-29 -23 -50 -43 -48 -45 2 -2 19 1 38 6 18 6 53 10 77
10 l42 0 -22 35 c-13 19 -26 35 -29 35 -4 0 -30 -19 -58 -41z"/>
<path d="M2342 2068 c2 -80 6 -149 9 -152 3 -4 26 5 51 19 25 14 78 30 120 37
l74 12 -75 56 c-42 31 -100 83 -129 116 l-53 59 3 -147z"/>
<path d="M4885 2128 c33 -34 65 -66 70 -70 11 -8 48 99 40 120 -3 8 -30 12
-87 12 l-82 0 59 -62z"/>
<path d="M4710 2110 c-23 -39 -40 -78 -38 -88 2 -9 44 -42 94 -72 50 -30 106
-68 125 -84 l34 -29 6 33 c4 18 10 57 14 87 l7 55 -84 84 c-46 46 -92 84 -101
84 -9 0 -33 -28 -57 -70z"/>
<path d="M1563 2130 c-24 -10 -43 -24 -43 -29 0 -14 53 -121 60 -120 3 0 22
22 42 49 45 59 79 83 110 78 20 -3 15 -8 -31 -36 -61 -38 -63 -54 -2 -23 42
22 76 28 66 11 -3 -5 -37 -26 -75 -46 -90 -47 -98 -72 -47 -150 l21 -31 32 19
c18 11 57 22 86 25 53 5 138 -11 138 -26 0 -4 -9 -43 -21 -87 -11 -43 -21
-115 -22 -159 -2 -76 0 -85 41 -169 68 -142 165 -297 177 -284 2 2 0 89 -5
194 -11 220 -36 339 -99 470 -61 129 -115 202 -214 292 -44 40 -49 42 -109 42
-40 0 -78 -7 -105 -20z"/>
<path d="M56 2113 c8 -33 59 -158 79 -193 13 -23 14 -15 15 91 l0 116 -37 7
c-62 10 -64 9 -57 -21z"/>
<path d="M480 2088 c10 -29 21 -66 25 -81 l6 -28 41 35 c23 20 46 36 52 36 6
0 -8 11 -32 25 -24 13 -55 34 -69 45 -39 31 -44 25 -23 -32z"/>
<path d="M3030 2093 c0 -58 17 -194 29 -225 5 -15 13 -3 33 57 l26 77 -44 71
-44 71 0 -51z"/>
<path d="M5052 2102 c-21 -69 -34 -191 -27 -247 l7 -56 44 87 c54 106 58 157
18 216 -15 21 -28 38 -29 38 -1 0 -7 -17 -13 -38z"/>
<path d="M413 2077 c-24 -49 -57 -166 -50 -174 3 -2 27 2 53 10 l49 14 -1 64
c0 35 -7 79 -15 97 l-14 34 -22 -45z"/>
<path d="M3342 2101 c-69 -24 -93 -48 -141 -140 -75 -146 -98 -268 -78 -413
l8 -58 42 28 c23 16 89 55 146 86 57 32 133 77 170 102 36 24 72 44 80 44 12
0 13 17 8 98 -7 107 -27 187 -60 238 -20 31 -26 34 -72 34 -27 -1 -74 -9 -103
-19z"/>
<path d="M3688 2078 c-55 -72 -60 -92 -52 -199 3 -55 10 -101 13 -104 4 -2 25
26 47 63 38 66 39 69 39 166 0 111 -8 125 -47 74z"/>
<path d="M1 1954 c-1 -154 7 -191 68 -312 27 -53 34 -62 47 -51 27 23 46 113
39 191 -6 62 -13 82 -49 138 l-41 64 -2 -44 c-8 -142 -15 -192 -26 -181 -8 8
-11 55 -10 144 1 94 -2 141 -12 162 -12 27 -13 17 -14 -111z"/>
<path d="M715 2077 c-81 -27 -193 -138 -222 -220 -26 -76 -24 -203 6 -289 12
-38 27 -68 32 -68 13 0 35 39 63 112 27 74 68 149 92 169 19 15 14 3 -37 -111
-21 -47 -41 -105 -45 -129 l-7 -45 49 41 c27 22 76 58 109 79 33 21 65 45 72
53 16 20 17 83 1 99 -8 8 -8 15 1 26 7 8 11 29 9 46 -3 29 -7 32 -100 64 -165
56 -205 98 -46 48 150 -47 142 -47 175 -4 17 20 33 42 36 48 4 7 -16 24 -51
42 -85 45 -103 50 -137 39z"/>
<path d="M1472 2058 c-5 -7 -29 -58 -52 -112 -44 -103 -43 -115 5 -116 11 0
45 -11 75 -23 49 -20 76 -37 173 -107 18 -13 17 -9 -7 30 -15 25 -60 111 -99
192 -40 81 -75 148 -78 148 -4 0 -11 -6 -17 -12z"/>
<path d="M3998 2003 c-24 -26 -75 -141 -82 -185 l-7 -37 63 24 c35 13 115 41
178 60 165 52 201 67 197 79 -2 6 -22 17 -44 25 l-41 15 -56 -43 c-30 -24 -81
-54 -113 -67 -68 -27 -133 -32 -133 -9 0 8 4 15 8 15 20 0 169 116 161 125 -2
2 -29 6 -59 10 -47 6 -58 4 -72 -12z"/>
<path d="M1391 1986 c-13 -13 -50 -39 -83 -56 l-60 -32 39 -24 c21 -13 43 -24
50 -24 11 0 87 149 80 157 -2 1 -14 -8 -26 -21z"/>
<path d="M4136 1974 c-14 -18 -48 -47 -76 -65 -27 -18 -50 -34 -50 -36 0 -1
24 6 53 18 54 21 157 86 157 99 0 4 -13 10 -29 12 -23 3 -34 -2 -55 -28z"/>
<path d="M907 1949 c-15 -22 -25 -44 -22 -49 7 -12 174 -50 220 -50 32 0 36 2
25 15 -6 8 -40 30 -73 49 -34 20 -75 44 -92 55 l-30 19 -28 -39z"/>
<path d="M4634 1933 c-6 -45 -2 -77 14 -139 17 -69 96 -289 108 -303 19 -22
119 152 146 251 12 48 12 48 -22 84 -19 19 -71 58 -115 85 -44 27 -90 56 -102
65 -21 15 -21 15 -29 -43z"/>
<path d="M3881 1950 c-30 -17 -64 -38 -74 -48 -45 -39 -164 -248 -155 -271 3
-9 130 79 179 124 15 14 30 37 34 52 3 15 22 60 40 100 19 40 33 73 32 73 -1
0 -26 -14 -56 -30z"/>
<path d="M4414 1905 c-12 -8 -43 -23 -69 -33 l-49 -19 40 -7 c21 -5 65 -19 98
-33 32 -13 60 -22 63 -20 7 7 -41 120 -52 124 -6 2 -20 -3 -31 -12z"/>
<path d="M2526 1873 c13 -55 87 -167 142 -216 19 -18 21 -17 65 50 57 87 61
101 38 139 -23 38 -77 54 -181 54 l-70 0 6 -27z m200 -19 c34 -16 60 -41 52
-49 -4 -4 -158 52 -167 61 -13 12 86 2 115 -12z"/>
<path d="M2424 1865 c-64 -38 -68 -54 -72 -284 l-4 -203 29 19 c15 11 55 32
88 47 70 32 89 47 122 101 14 22 34 47 44 55 18 14 16 19 -42 100 -66 92 -99
150 -99 175 0 21 -19 19 -66 -10z"/>
<path d="M380 1861 c-19 -10 -49 -39 -67 -66 -46 -66 -44 -105 16 -284 58
-171 71 -238 71 -381 1 -62 6 -117 14 -135 12 -28 13 -21 19 80 3 66 14 142
28 190 34 125 34 142 -1 251 -34 106 -42 200 -27 307 10 65 4 69 -53 38z"/>
<path d="M5077 1813 c-22 -48 -31 -81 -30 -112 2 -60 15 -69 47 -31 24 29 26
39 26 121 0 49 -2 89 -6 89 -3 0 -19 -30 -37 -67z"/>
<path d="M866 1829 c-3 -18 -3 -54 0 -81 l7 -48 55 32 c31 17 76 41 100 53
l45 22 -85 21 c-46 12 -92 24 -100 27 -11 5 -17 -3 -22 -26z"/>
<path d="M1720 1838 c-49 -13 -51 -18 -30 -58 11 -19 19 -28 20 -19 0 27 39
68 73 78 l32 9 -30 0 c-16 0 -46 -4 -65 -10z"/>
<path d="M1797 1813 c-25 -10 -44 -28 -57 -52 l-18 -36 29 -55 c16 -30 42 -70
58 -89 l28 -34 8 79 c4 43 16 106 26 139 10 33 19 61 19 63 0 8 -61 -2 -93
-15z"/>
<path d="M1173 1790 c-46 -10 -193 -68 -208 -83 -7 -7 -3 -8 10 -3 11 4 80 25
154 47 74 21 137 41 139 44 8 7 -46 4 -95 -5z"/>
<path d="M2824 1777 c4 -15 9 -47 13 -72 5 -43 23 -64 23 -27 0 9 4 22 8 29 4
6 6 -49 6 -123 -1 -73 4 -157 11 -186 l11 -53 60 -7 c80 -10 104 -17 104 -28
0 -6 -34 -10 -80 -10 l-80 0 0 -37 c0 -21 -3 -47 -6 -58 -5 -19 2 -22 60 -32
40 -7 85 -23 116 -42 28 -17 52 -31 54 -31 2 0 -4 29 -13 65 -13 54 -21 68
-49 85 -38 24 -41 35 -7 26 14 -4 25 -5 25 -3 0 2 -18 66 -40 142 -49 166 -96
260 -168 334 -48 50 -53 53 -48 28z"/>
<path d="M4168 1789 c-25 -8 -44 -23 -63 -51 -15 -22 -25 -41 -23 -43 6 -6
283 51 302 63 15 9 -64 32 -124 37 -30 2 -72 -1 -92 -6z"/>
<path d="M2753 1684 c-45 -63 -50 -74 -36 -85 8 -7 28 -33 45 -57 27 -39 30
-50 26 -102 l-4 -59 20 32 c26 41 31 134 14 253 l-13 91 -52 -73z"/>
<path d="M4003 1732 c-34 -15 -75 -37 -90 -49 l-28 -22 57 0 c55 -1 58 0 94
44 20 25 35 47 33 49 -2 3 -32 -8 -66 -22z"/>
<path d="M1320 1695 c0 -25 -13 -109 -30 -187 -41 -194 -41 -193 23 -131 28
28 62 56 75 63 22 11 23 10 13 -9 -6 -11 -40 -45 -75 -76 -51 -45 -65 -64 -68
-91 -2 -19 -2 -34 2 -34 3 0 39 14 81 31 73 30 77 34 83 68 3 20 6 52 6 72 0
22 7 42 18 52 24 22 35 22 24 0 -16 -31 -22 -143 -8 -143 18 0 179 103 183
117 3 6 -25 40 -61 74 -62 58 -85 96 -51 83 27 -11 16 4 -27 35 -44 32 -92 40
-129 21 -15 -9 -19 -7 -19 5 0 24 56 44 97 35 49 -11 78 -33 114 -87 46 -67
112 -143 124 -143 6 1 25 13 42 29 l33 27 -33 31 c-65 61 -193 156 -242 179
-36 17 -68 24 -112 24 l-63 0 0 -45z"/>
<path d="M4402 1732 c-13 -4 -24 -10 -25 -13 -2 -5 46 -168 62 -211 5 -14 15
-7 55 38 44 50 47 58 41 91 -8 42 -63 104 -91 102 -11 -1 -29 -4 -42 -7z"/>
<path d="M1235 1723 c-42 -9 -122 -37 -163 -56 l-42 -19 42 -27 c51 -33 107
-93 140 -150 13 -23 25 -41 28 -41 9 0 50 211 50 258 0 44 -4 47 -55 35z"/>
<path d="M3505 1679 c-38 -27 -119 -78 -178 -112 -132 -75 -177 -111 -177
-140 0 -41 85 -287 98 -287 4 1 19 20 34 43 15 23 68 89 118 147 50 58 101
128 115 155 27 54 69 206 63 229 -2 10 -24 0 -73 -35z"/>
<path d="M4931 1634 c-32 -82 -63 -125 -125 -172 l-28 -22 23 -95 c12 -53 26
-94 30 -93 5 2 41 70 81 153 69 142 73 153 72 216 -2 108 -14 111 -53 13z"/>
<path d="M4195 1679 c-71 -17 -141 -37 -154 -46 l-25 -16 55 -14 c30 -8 71
-23 92 -33 46 -24 66 -25 95 -4 31 22 40 10 19 -26 l-18 -29 53 -3 c48 -3 51
-4 31 -16 -16 -9 -28 -9 -50 -1 -15 6 -43 15 -61 19 l-33 8 18 -26 c10 -15 32
-56 50 -91 l32 -64 28 48 c15 26 38 62 50 80 18 29 20 39 12 77 -14 64 -50
168 -57 167 -4 0 -65 -14 -137 -30z"/>
<path d="M923 1599 l-51 -20 5 -42 c8 -75 42 -199 70 -259 l28 -59 38 27 c21
14 41 23 44 20 9 -8 -17 -35 -49 -52 l-28 -14 23 -35 c13 -21 30 -35 42 -35
33 0 123 58 140 90 28 53 22 60 -44 54 -56 -6 -60 -5 -119 35 -61 41 -78 58
-69 68 11 11 94 5 117 -8 25 -14 25 -14 -15 -19 -40 -6 -40 -6 32 -23 40 -9
83 -17 97 -17 24 0 26 3 26 48 0 55 -37 126 -96 185 -70 70 -117 84 -191 56z"/>
<path d="M2634 1575 c-24 -37 -12 -40 15 -5 12 17 17 30 12 30 -6 0 -18 -11
-27 -25z"/>
<path d="M3870 1574 c-59 -15 -158 -72 -175 -99 -8 -12 4 -42 48 -128 93 -182
86 -180 128 -33 l35 124 -49 16 c-27 9 -67 16 -88 16 -56 0 -57 17 -1 25 36 5
61 1 99 -13 l51 -19 21 54 c12 30 21 59 21 64 0 12 -25 10 -90 -7z"/>
<path d="M2626 1520 c-40 -48 -67 -69 -140 -106 -124 -63 -126 -66 -126 -134
0 -67 16 -160 30 -174 6 -6 27 7 58 36 26 25 90 70 143 101 112 66 143 92 163
142 27 64 21 100 -25 150 -23 25 -44 45 -48 45 -3 0 -28 -27 -55 -60z"/>
<path d="M3991 1548 c-17 -47 -17 -53 -2 -64 13 -10 13 -14 2 -28 -8 -9 -16
-14 -20 -11 -3 3 -11 -18 -18 -47 -14 -64 -28 -198 -20 -198 3 0 33 35 66 79
l60 79 -11 67 c-5 38 -8 83 -5 101 4 23 1 34 -10 38 -25 10 -33 7 -42 -16z"/>
<path d="M815 1549 c-11 -6 -37 -23 -58 -37 -43 -29 -43 -29 -13 -132 11 -37
16 -96 16 -181 l0 -126 68 23 c37 13 88 24 114 24 l47 0 -39 83 c-42 90 -84
223 -95 305 -7 56 -9 57 -40 41z"/>
<path d="M4496 1506 l-46 -54 6 -85 7 -85 31 46 c33 48 60 71 72 60 8 -8 -47
-97 -90 -146 -27 -31 -29 -41 -34 -132 -2 -54 -2 -114 2 -134 l7 -35 46 29
c26 17 73 35 106 42 l58 12 -6 66 c-13 132 -37 258 -68 362 -18 60 -35 108
-39 108 -3 0 -27 -24 -52 -54z"/>
<path d="M4075 1529 c-4 -5 -4 -42 0 -81 l7 -71 34 54 c40 64 41 73 12 93 -26
19 -44 20 -53 5z"/>
<path d="M197 1509 c-18 -67 -8 -124 40 -220 29 -59 48 -87 50 -76 11 46 -39
258 -71 302 -12 17 -13 16 -19 -6z"/>
<path d="M5107 1493 c-4 -7 -14 -30 -22 -52 -13 -37 -12 -46 8 -103 l22 -63 3
58 c4 83 -2 174 -11 160z"/>
<path d="M1755 1448 l-38 -34 44 -36 c45 -37 149 -94 149 -82 0 12 -68 128
-93 158 l-24 29 -38 -35z"/>
<path d="M4160 1460 c0 -19 -81 -138 -163 -240 -42 -52 -77 -100 -77 -107 0
-27 157 49 273 131 53 37 57 44 53 72 -9 63 -86 191 -86 144z"/>
<path d="M651 1424 c-40 -44 -66 -104 -92 -203 -25 -97 -25 -101 10 -101 37 0
92 -20 86 -30 -3 -5 -30 -6 -60 -3 l-55 6 6 -64 c4 -35 8 -66 10 -67 1 -2 36
18 78 45 84 54 82 49 91 193 5 71 2 113 -9 164 -24 101 -27 104 -65 60z"/>
<path d="M4376 1410 c-16 -30 -37 -68 -48 -83 -14 -20 -18 -37 -14 -58 7 -35
74 -184 80 -178 12 11 26 260 18 314 l-8 60 -28 -55z"/>
<path d="M1 1399 c-1 -44 3 -60 19 -74 11 -10 22 -16 25 -13 3 2 -6 36 -19 74
l-25 69 0 -56z"/>
<path d="M3636 1434 c-19 -13 -19 -18 -7 -77 12 -59 58 -164 118 -272 16 -27
36 -68 44 -90 l15 -40 13 97 13 97 -37 43 c-20 24 -60 91 -88 150 -49 101 -53
106 -71 92z"/>
<path d="M1644 1372 c-22 -16 -59 -40 -84 -55 l-45 -27 75 1 c41 1 103 4 138
8 l64 6 -55 47 -55 47 -38 -27z"/>
<path d="M2826 1368 c-21 -30 -20 -38 4 -38 16 0 20 7 20 30 0 36 -4 37 -24 8z"/>
<path d="M3518 1308 c-24 -29 -58 -74 -76 -99 l-31 -46 27 -26 c15 -14 52 -37
83 -51 57 -27 165 -53 175 -43 3 3 -12 40 -34 83 -22 44 -49 111 -62 149 -12
39 -26 74 -30 78 -4 4 -27 -16 -52 -45z"/>
<path d="M4997 1302 c-42 -93 -72 -242 -48 -242 12 0 82 78 109 122 l23 37
-22 71 c-13 38 -26 70 -30 70 -3 0 -18 -26 -32 -58z"/>
<path d="M2785 1280 c-22 -11 -50 -28 -63 -38 l-24 -18 72 -18 c40 -9 74 -16
75 -14 2 2 6 27 10 56 6 46 5 52 -12 52 -10 0 -36 -9 -58 -20z"/>
<path d="M0 1222 l0 -69 40 -16 c25 -9 40 -22 40 -32 0 -11 -5 -15 -16 -11 -8
3 -26 -1 -40 -10 -23 -16 -24 -21 -24 -119 0 -100 1 -104 27 -125 14 -11 30
-17 33 -13 4 4 17 67 29 138 20 121 20 134 6 188 -19 75 -28 91 -65 117 l-30
21 0 -69z"/>
<path d="M1535 1251 c-38 -3 -70 -10 -70 -16 0 -5 9 -38 19 -73 18 -59 21 -63
45 -58 14 3 72 8 129 12 89 5 102 8 97 23 -3 9 -13 39 -24 66 l-19 50 -53 1
c-30 0 -85 -2 -124 -5z"/>
<path d="M1750 1248 c0 -52 201 -378 304 -493 53 -59 52 -63 36 110 -8 88 -16
122 -40 170 -36 74 -108 157 -164 190 -52 31 -136 45 -136 23z"/>
<path d="M4198 1211 c-31 -25 -57 -48 -57 -51 0 -3 21 -18 47 -35 138 -88 182
-113 182 -105 0 4 -6 10 -14 13 -7 3 -16 18 -19 34 -4 25 -69 179 -78 187 -2
2 -30 -17 -61 -43z"/>
<path d="M1341 1196 l-63 -22 41 -37 c36 -32 47 -37 91 -37 56 0 55 -2 38 69
-13 59 -15 59 -107 27z"/>
<path d="M2644 1172 c-25 -21 -30 -31 -23 -47 4 -11 40 -100 78 -198 77 -194
90 -221 92 -197 4 41 -5 79 -28 118 -14 24 -23 46 -19 49 8 9 21 -5 40 -42
l16 -30 0 35 c0 19 9 88 21 153 11 65 19 124 16 131 -3 7 -36 21 -74 31 -37
10 -72 19 -78 21 -5 2 -24 -9 -41 -24z"/>
<path d="M5096 1171 c-11 -12 -16 -24 -12 -28 9 -9 39 22 34 37 -2 7 -10 4
-22 -9z"/>
<path d="M1228 1145 c-3 -3 -29 -14 -57 -24 l-52 -18 66 -7 c36 -4 80 -9 98
-13 l32 -6 -34 37 c-35 36 -43 41 -53 31z"/>
<path d="M2877 1099 c-4 -24 -9 -133 -13 -242 l-7 -197 59 35 c60 36 184 88
242 100 39 8 39 11 6 139 -18 68 -33 107 -48 119 -41 34 -138 78 -186 84 l-48
6 -5 -44z"/>
<path d="M4000 1090 c-56 -28 -101 -52 -99 -54 2 -2 42 0 89 4 47 5 115 9 151
9 36 1 69 4 72 7 6 7 -89 84 -103 84 -4 0 -53 -23 -110 -50z"/>
<path d="M2544 1098 c-62 -46 -117 -105 -142 -153 -25 -47 -26 -60 -30 -213
-2 -89 -1 -174 2 -188 7 -26 8 -25 79 43 40 38 85 78 100 88 23 15 27 23 22
46 -5 24 1 36 40 78 29 30 52 48 61 44 10 -4 6 18 -17 78 -17 46 -40 110 -52
142 -12 31 -24 57 -28 57 -3 0 -19 -10 -35 -22z"/>
<path d="M3366 1072 l-25 -48 26 -72 26 -72 43 40 c42 39 64 49 64 31 0 -5 -7
-14 -16 -22 -9 -7 -28 -31 -43 -53 -25 -36 -28 -48 -23 -99 l5 -57 51 43 c139
117 171 112 44 -7 l-88 -81 0 -155 c0 -134 22 -385 34 -397 5 -5 100 113 143
177 79 118 133 269 154 430 10 75 9 100 -5 162 -22 98 -36 118 -86 118 -57 0
-162 36 -220 75 -29 19 -54 35 -56 35 -2 0 -15 -22 -28 -48z"/>
<path d="M1615 1083 c-22 -2 -55 -6 -74 -9 l-33 -5 7 -97 c8 -108 30 -190 68
-254 26 -44 137 -160 137 -143 -1 12 -41 82 -88 151 -32 48 -44 80 -58 159 -6
35 -5 38 8 28 8 -7 27 -44 42 -81 14 -38 41 -91 59 -118 l32 -49 6 100 c6 97
24 165 55 213 26 40 34 14 13 -46 -22 -64 -37 -182 -23 -182 5 0 40 30 76 68
l67 67 -67 103 -66 102 -61 -2 c-33 -1 -78 -3 -100 -5z"/>
<path d="M5086 1067 l-29 -24 32 -22 31 -22 0 45 c0 25 -1 46 -2 46 -2 0 -16
-11 -32 -23z"/>
<path d="M1401 1039 c20 -24 46 -60 58 -79 l22 -35 -7 70 c-3 39 -7 71 -8 72
0 0 -23 4 -51 9 l-50 7 36 -44z"/>
<path d="M233 1049 c-1 -8 -17 -61 -36 -119 -42 -126 -60 -233 -51 -303 9 -73
19 -87 32 -47 10 28 10 31 -5 26 -13 -5 -14 -4 -3 9 7 8 18 15 25 15 6 0 16
10 22 23 6 13 45 59 86 103 l76 81 -45 79 c-50 88 -100 154 -101 133z"/>
<path d="M914 1030 c-38 -10 -87 -25 -108 -34 l-38 -16 8 -52 c4 -29 7 -106 7
-170 l-1 -116 46 24 c46 24 109 30 105 9 -1 -5 -18 -13 -38 -17 -61 -13 -92
-35 -109 -78 -28 -70 -22 -71 69 -22 55 29 92 56 104 76 11 17 33 44 50 60 17
17 31 33 31 38 0 4 -15 14 -33 22 -36 14 -87 69 -87 92 0 28 39 15 55 -18 14
-30 62 -68 86 -68 5 0 18 19 30 43 12 23 24 37 26 30 2 -6 -3 -26 -12 -43 -9
-18 -13 -36 -8 -41 11 -11 83 -41 83 -34 0 3 -16 39 -35 79 -19 41 -35 77 -35
80 0 4 -17 30 -38 59 -22 29 -46 67 -56 85 -9 17 -20 32 -24 31 -4 0 -39 -8
-78 -19z"/>
<path d="M1040 1041 c0 -4 22 -38 48 -75 l49 -66 13 27 c14 27 14 27 20 -32
10 -88 65 -199 131 -264 69 -68 111 -92 239 -136 57 -20 133 -50 168 -65 l63
-29 -17 28 c-69 116 -201 231 -362 313 -83 42 -110 63 -99 75 9 8 52 -11 143
-63 43 -24 79 -43 80 -41 2 2 -16 46 -39 98 -48 106 -97 182 -131 204 -40 26
-306 49 -306 26z"/>
<path d="M4100 1014 c-91 -6 -173 -15 -182 -19 -22 -9 -45 -71 -58 -155 -18
-117 -19 -115 48 -72 32 21 98 53 146 72 66 25 98 44 132 78 33 34 44 41 44
27 0 -10 -10 -30 -22 -43 l-23 -24 50 8 c28 4 76 8 108 8 31 0 57 2 57 4 0 4
-104 107 -120 118 -10 7 -68 6 -180 -2z"/>
<path d="M4989 989 c-45 -48 -56 -76 -64 -163 l-7 -80 28 19 c82 52 174 150
174 183 0 6 -17 21 -37 33 -21 13 -44 27 -51 32 -8 6 -23 -3 -43 -24z"/>
<path d="M4612 984 c-24 -7 -68 -25 -98 -40 -51 -26 -55 -30 -50 -56 13 -64
139 -348 154 -348 6 0 12 6 15 14 10 27 29 291 25 367 l-3 76 -43 -13z"/>
<path d="M685 934 c-60 -40 -105 -85 -127 -127 -19 -39 -19 -39 0 -105 27 -89
39 -152 48 -242 l7 -75 18 40 c10 22 23 64 29 93 15 71 35 58 26 -17 -7 -56
-7 -56 13 -36 42 42 71 495 32 495 -3 0 -24 -12 -46 -26z m-25 -371 c0 -5 -5
-15 -10 -23 -8 -12 -10 -11 -10 8 0 12 5 22 10 22 6 0 10 -3 10 -7z"/>
<path d="M3317 920 c-10 -61 8 -182 35 -239 21 -45 22 -45 26 -17 5 41 -14
170 -36 241 l-18 60 -7 -45z"/>
<path d="M1922 855 c4 -18 -13 -53 -28 -59 -12 -5 -13 -2 -3 17 6 12 -18 -7
-55 -43 -75 -73 -78 -88 -51 -195 26 -100 68 -178 137 -251 36 -38 85 -97 110
-131 l45 -62 7 57 c11 101 19 386 12 432 -5 35 -19 59 -64 111 -31 36 -69 81
-84 100 -16 18 -27 30 -26 24z"/>
<path d="M4288 853 c-21 -2 -38 -6 -38 -9 0 -18 36 -54 54 -54 11 0 28 -5 36
-10 11 -7 4 -10 -26 -10 -56 0 -152 -50 -204 -106 -23 -25 -39 -48 -36 -51 7
-7 69 15 229 82 151 64 145 57 117 130 -7 19 -17 25 -39 25 -16 0 -35 1 -43 3
-7 2 -30 2 -50 0z"/>
<path d="M5079 814 c-18 -20 -62 -56 -95 -80 -64 -45 -74 -65 -74 -137 l0 -31
43 40 c23 23 70 62 105 88 l62 47 0 55 c0 30 -1 54 -3 54 -2 0 -19 -16 -38
-36z"/>
<path d="M2649 807 c-36 -51 -53 -81 -42 -74 17 11 76 97 66 97 -4 0 -15 -11
-24 -23z"/>
<path d="M4092 795 c-172 -70 -233 -126 -278 -253 -14 -42 -37 -101 -51 -131
-13 -30 -22 -56 -20 -58 3 -2 16 11 30 30 41 55 118 127 180 168 31 22 57 44
57 50 0 25 122 136 180 164 57 27 59 30 43 47 -23 25 -46 23 -141 -17z"/>
<path d="M0 719 c1 -85 3 -97 25 -124 l25 -30 0 101 c0 94 -2 102 -25 124
l-25 23 0 -94z"/>
<path d="M2679 778 c-7 -18 -66 -86 -131 -150 -148 -148 -172 -191 -172 -303
1 -66 8 -101 41 -200 22 -66 43 -113 46 -105 2 8 10 34 16 58 13 46 70 117
102 127 21 7 67 -17 82 -42 14 -23 26 -14 32 25 4 20 19 98 35 172 46 220 46
240 10 345 -18 50 -35 94 -39 98 -5 4 -14 -7 -22 -25z"/>
<path d="M3073 729 c-62 -27 -131 -61 -153 -75 l-40 -27 6 -81 c4 -48 2 -97
-4 -120 l-11 -40 57 56 c68 67 275 205 280 188 5 -15 -21 -42 -89 -89 -60 -42
-56 -24 -41 -183 l7 -67 50 65 c31 40 51 58 53 49 5 -23 -38 -90 -117 -182
-89 -105 -88 -104 -40 -80 22 11 60 22 84 25 l44 4 11 -42 c6 -23 22 -53 34
-65 29 -29 106 -69 114 -60 13 13 7 299 -7 355 -28 117 -115 420 -121 419 -3
0 -56 -23 -117 -50z"/>
<path d="M4436 721 c-3 -4 -71 -37 -151 -71 l-146 -63 80 -43 79 -43 74 34
c40 18 86 37 101 40 16 4 26 13 24 19 -3 7 -13 40 -22 74 -17 59 -27 73 -39
53z"/>
<path d="M363 657 c-34 -37 -81 -98 -104 -137 l-42 -71 36 -77 c20 -42 44
-105 53 -139 12 -43 22 -63 33 -63 9 -1 40 -9 69 -19 28 -10 52 -15 52 -11 0
21 -34 97 -60 137 -17 25 -29 47 -27 50 12 12 87 -93 98 -139 13 -49 14 -49
22 -22 4 16 10 83 14 149 6 133 -15 260 -59 357 l-23 51 -62 -66z"/>
<path d="M1023 668 c-37 -50 -39 -56 -35 -110 4 -66 4 -65 89 -43 78 20 143
19 205 -5 29 -11 66 -20 81 -20 29 0 29 0 -15 35 -23 20 -62 57 -86 83 -38 41
-44 45 -53 30 -14 -26 -29 -22 -29 7 0 18 -9 29 -37 44 -74 37 -77 36 -120
-21z"/>
<path d="M5042 582 c-66 -67 -113 -144 -127 -209 -6 -32 -5 -33 24 -33 38 0
74 -15 134 -58 l47 -34 0 201 c0 111 -2 201 -5 201 -3 0 -36 -31 -73 -68z"/>
<path d="M2798 590 c-5 -14 -24 -156 -34 -265 l-4 -50 14 36 c21 53 38 175 34
239 -2 30 -6 48 -10 40z"/>
<path d="M861 512 c-109 -73 -114 -82 -75 -124 68 -72 100 -142 118 -258 l13
-75 21 69 c17 54 22 93 22 185 0 140 -4 155 -38 168 l-27 10 27 7 c20 6 27 15
30 42 2 19 2 34 -2 33 -3 0 -43 -26 -89 -57z"/>
<path d="M4082 557 c-6 -7 -18 -35 -28 -62 -18 -55 -70 -162 -139 -287 -25
-44 -45 -82 -45 -84 0 -14 200 130 238 171 128 140 161 183 149 192 -33 26
-136 83 -150 83 -8 0 -19 -6 -25 -13z"/>
<path d="M3979 517 c-66 -41 -114 -84 -216 -198 -87 -97 -253 -303 -253 -315
0 -2 47 -4 103 -4 l104 0 111 168 c112 170 197 328 190 356 -2 12 -9 11 -39
-7z"/>
<path d="M4437 516 c-71 -29 -119 -62 -172 -116 -45 -46 -42 -49 15 -19 59 31
141 24 209 -19 l51 -31 -1 37 c-2 59 -23 165 -34 169 -5 1 -36 -8 -68 -21z"/>
<path d="M1 408 c-1 -123 0 -128 25 -155 l25 -28 -4 110 c-3 84 -8 120 -24
155 l-21 45 -1 -127z"/>
<path d="M961 514 c0 -11 3 -14 6 -6 3 7 2 16 -1 19 -3 4 -6 -2 -5 -13z"/>
<path d="M1100 488 c-19 -5 -52 -14 -72 -19 l-38 -10 1 -57 c0 -31 3 -51 6
-44 2 6 11 12 19 12 17 0 17 0 -1 -43 -8 -20 -15 -57 -15 -83 l0 -46 64 51
c35 28 110 79 166 113 57 35 105 68 107 74 2 7 -20 24 -49 38 -56 28 -122 33
-188 14z"/>
<path d="M2922 383 c-76 -74 -107 -112 -127 -155 -29 -64 -42 -151 -29 -195 7
-25 9 -21 14 30 7 77 24 77 28 0 2 -35 6 -63 10 -63 19 0 189 197 218 252 13
25 15 48 9 118 -4 48 -10 92 -14 99 -5 8 -42 -21 -109 -86z"/>
<path d="M1421 410 c-55 -12 -60 -17 -54 -57 l5 -32 92 6 c88 5 180 26 191 43
7 11 -78 38 -140 44 -27 3 -70 1 -94 -4z"/>
<path d="M182 362 c-17 -74 -24 -207 -17 -288 l7 -74 55 0 55 0 -4 117 c-4
103 -9 129 -37 200 -18 46 -36 85 -41 88 -4 3 -13 -16 -18 -43z"/>
<path d="M679 363 c-73 -99 -71 -89 -46 -201 l23 -100 29 16 c17 8 62 26 100
38 l70 23 -2 38 c-4 52 -54 150 -100 196 l-39 37 -35 -47z"/>
<path d="M1242 318 c-46 -27 -82 -52 -80 -54 5 -4 176 41 184 48 7 7 -6 58
-15 57 -3 0 -43 -23 -89 -51z"/>
<path d="M4260 329 c-36 -14 -120 -70 -120 -79 0 -4 19 -1 43 7 23 8 86 20
140 26 80 9 102 9 120 -2 l22 -14 -20 23 c-42 47 -122 64 -185 39z"/>
<path d="M1656 311 l-39 -17 65 -42 c91 -59 183 -95 208 -82 40 22 17 60 -71
119 -68 46 -100 50 -163 22z"/>
<path d="M4896 274 c-9 -65 -8 -232 2 -238 4 -2 55 19 112 47 85 42 106 57
108 76 7 44 -104 135 -189 156 -25 6 -26 4 -33 -41z"/>
<path d="M1423 283 c-42 -4 -43 -5 -43 -42 0 -54 27 -139 62 -193 28 -45 33
-48 74 -48 34 0 46 5 55 22 l11 21 19 -24 c9 -13 21 -21 24 -17 14 14 -8 70
-56 144 -50 77 -57 103 -18 68 28 -25 67 -87 84 -133 l14 -36 0 43 c1 26 5 41
11 37 6 -3 10 -33 10 -66 l0 -59 39 0 39 0 -14 53 c-18 67 -18 92 1 107 12 10
3 20 -59 60 -41 26 -77 53 -80 59 -7 11 -80 12 -173 4z"/>
<path d="M1300 261 c-27 -8 -28 -9 -16 -61 4 -21 3 -47 -4 -65 l-11 -30 25 24
c14 14 29 22 32 18 4 -3 -21 -35 -55 -70 -33 -35 -61 -67 -61 -70 0 -4 49 -7
109 -7 l110 0 -34 55 c-29 49 -55 142 -55 198 0 18 -2 19 -40 8z"/>
<path d="M4400 254 c-8 -1 -54 -8 -101 -14 -47 -6 -91 -15 -98 -19 -10 -6 -7
-31 11 -114 l23 -107 167 0 168 0 -7 33 c-8 44 -59 177 -78 205 -15 21 -41 26
-85 16z"/>
<path d="M1188 230 c-110 -34 -175 -87 -225 -185 l-16 -30 24 21 c25 22 62 44
75 44 12 0 -29 -42 -61 -61 l-30 -19 100 0 101 0 35 43 c52 62 61 83 60 145 0
30 -2 56 -3 57 -2 2 -29 -5 -60 -15z"/>
<path d="M4120 203 c-8 -3 -41 -17 -72 -30 l-57 -25 29 -37 c16 -20 36 -53 45
-73 15 -38 15 -38 76 -38 l60 0 -7 48 c-20 142 -33 170 -74 155z"/>
<path d="M0 123 c0 -66 1 -69 36 -96 19 -16 38 -26 41 -23 12 12 -56 186 -72
186 -3 0 -5 -30 -5 -67z"/>
<path d="M567 110 c-9 -36 -20 -75 -23 -87 -6 -21 -3 -23 31 -23 l36 0 -6 54
c-4 29 -10 68 -14 87 -7 33 -7 33 -24 -31z"/>
<path d="M2549 139 c-27 -29 -49 -83 -49 -122 0 -16 8 -18 57 -15 55 3 58 4
80 43 29 51 29 57 -6 94 -36 39 -46 39 -82 0z"/>
<path d="M1764 125 c-6 -26 6 -85 24 -113 6 -9 38 -12 120 -10 l112 3 -29 44
c-39 59 -37 57 -198 98 -18 4 -23 0 -29 -22z"/>
<path d="M330 70 l0 -70 55 0 c48 0 55 3 60 23 14 60 11 72 -25 88 -19 9 -47
20 -62 23 l-28 6 0 -70z"/>
<path d="M3078 125 c-20 -7 -49 -21 -65 -31 -15 -10 -29 -19 -31 -20 -2 -1 7
-18 19 -38 l21 -36 85 0 84 0 -21 30 c-12 17 -24 49 -27 70 -6 44 -10 45 -65
25z"/>
<path d="M2370 58 c0 -55 1 -58 25 -58 14 0 25 2 25 4 0 2 -11 28 -25 58 l-25
53 0 -57z"/>
<path d="M3860 59 c-41 -28 -77 -53 -79 -55 -2 -2 57 -4 132 -4 77 0 137 4
137 9 0 5 -15 29 -33 53 -46 60 -66 60 -157 -3z"/>
<path d="M779 77 c-70 -24 -119 -51 -119 -67 0 -6 45 -10 110 -10 l110 0 0 50
c0 59 -4 60 -101 27z"/>
<path d="M5030 45 l-85 -44 88 0 87 -1 0 45 c0 25 -1 45 -2 44 -2 0 -41 -20
-88 -44z"/>
<path d="M2915 25 l-30 -25 53 0 52 0 -16 25 c-20 30 -21 30 -59 0z"/>
<path d="M2675 20 c-18 -20 -17 -20 13 -20 34 0 35 1 26 24 -8 21 -17 20 -39
-4z"/>
<path d="M3197 19 c12 -12 25 -20 28 -17 3 3 -7 13 -22 23 l-28 17 22 -23z"/>
</g>
</svg>